<?xml version="1.0" encoding="utf-8"?>
<!-- Generator: Adobe Illustrator 16.0.0, SVG Export Plug-In . SVG Version: 6.00 Build 0)  -->
<!DOCTYPE svg PUBLIC "-//W3C//DTD SVG 1.1//EN" "http://www.w3.org/Graphics/SVG/1.1/DTD/svg11.dtd">
<svg version="1.1" id="Layer_1" xmlns="http://www.w3.org/2000/svg" xmlns:xlink="http://www.w3.org/1999/xlink" x="0px" y="0px"
	 width="800px" height="600px" viewBox="0 0 800 600" enable-background="new 0 0 800 600" xml:space="preserve">
<polygon opacity="0.2" fill="#E5007E" points="376.5,265.656 337,252.719 337,237.194 376.389,224.594 416,237.306 416,252.719 "/>
<polygon opacity="0.2" fill="#E5007E" points="304.5,265.656 265,252.719 265,237.193 304.389,224.594 344,237.307 344,252.719 "/>
<polygon opacity="0.2" fill="#E5007E" points="338,243.156 299,230.219 299,214.694 337.889,202.094 377,214.806 377,230.219 "/>
<polygon opacity="0.2" fill="#E5007E" points="266,243.156 227,230.219 227,214.694 265.889,202.094 305,214.806 305,230.219 "/>
<polygon opacity="0.2" fill="#E5007E" points="379,308.406 340,295.469 340,279.943 378.889,267.344 418,280.057 418,295.469 "/>
<polygon opacity="0.2" fill="#E5007E" points="412.5,285.906 373,272.969 373,257.444 412.389,244.844 452,257.556 452,272.969 "/>
<polygon opacity="0.2" fill="#E5007E" points="340.5,285.906 301,272.969 301,257.444 340.389,244.844 380,257.556 380,272.969 "/>
<polygon opacity="0.2" fill="#E5007E" points="237,265.656 197,252.719 197,237.194 236.889,224.594 277,237.306 277,252.719 "/>
<polygon opacity="0.2" fill="#E5007E" points="275,288.156 236,275.219 236,259.694 274.889,247.094 314,259.806 314,275.219 "/>
<polygon opacity="0.2" fill="#E5007E" points="277.5,330.906 238,317.969 238,302.443 277.389,289.844 317,302.557 317,317.969 "/>
<polygon opacity="0.2" fill="#E5007E" points="311,308.406 272,295.469 272,279.944 310.889,267.344 350,280.056 350,295.469 "/>
<polygon opacity="0.2" fill="#E5007E" points="239,308.406 200,295.469 200,279.944 238.889,267.344 278,280.056 278,295.469 "/>
<polygon opacity="0.2" fill="#E5007E" points="237,351.156 197,338.219 197,322.693 236.889,310.094 277,322.807 277,338.219 "/>
<polygon opacity="0.2" fill="#E5007E" points="309,351.156 269,338.219 269,322.693 308.889,310.094 349,322.807 349,338.219 "/>
<polygon opacity="0.2" fill="#E5007E" points="345,371.406 305,358.469 305,342.943 344.889,330.344 385,343.057 385,358.469 "/>
<polygon opacity="0.2" fill="#E5007E" points="273,371.406 233,358.469 233,342.943 272.889,330.344 313,343.057 313,358.469 "/>
<polygon opacity="0.2" fill="#E5007E" points="478,243.156 439,230.219 439,214.693 477.889,202.094 517,214.807 517,230.219 "/>
<polygon opacity="0.2" fill="#E5007E" points="514,263.406 475,250.469 475,234.944 513.889,222.344 553,235.056 553,250.469 "/>
<polygon opacity="0.2" fill="#E5007E" points="410,243.156 371,230.219 371,214.694 409.889,202.094 449,214.806 449,230.219 "/>
<polygon opacity="0.2" fill="#E5007E" points="448.5,265.656 409,252.719 409,237.194 448.389,224.594 488,237.306 488,252.719 "/>
<polygon opacity="0.2" fill="#E5007E" points="451,308.406 412,295.469 412,279.943 450.889,267.344 490,280.057 490,295.469 "/>
<polygon opacity="0.2" fill="#E5007E" points="484.5,285.906 445,272.969 445,257.444 484.389,244.844 524,257.556 524,272.969 "/>
<polygon opacity="0.2" fill="#E5007E" points="376.5,351.156 337,338.219 337,322.693 376.389,310.094 416,322.807 416,338.219 "/>
<polygon opacity="0.2" fill="#E5007E" points="410,328.656 371,315.719 371,300.193 409.889,287.594 449,300.307 449,315.719 "/>
<polygon opacity="0.2" fill="#E5007E" points="338,328.656 299,315.719 299,300.193 337.889,287.594 377,300.307 377,315.719 "/>
<polygon opacity="0.2" fill="#E5007E" points="482,328.656 443,315.719 443,300.193 481.889,287.594 521,300.307 521,315.719 "/>
<polygon opacity="0.2" fill="#E5007E" points="484.5,371.406 445,358.469 445,342.943 484.389,330.344 524,343.057 524,358.469 "/>
<polygon opacity="0.2" fill="#E5007E" points="518,348.906 479,335.969 479,320.443 517.889,307.844 557,320.557 557,335.969 "/>
<polygon opacity="0.2" fill="#E5007E" points="446,348.906 407,335.969 407,320.443 445.889,307.844 485,320.557 485,335.969 "/>
<polygon opacity="0.2" fill="#E5007E" points="415,371.406 376,358.469 376,342.943 414.889,330.344 454,343.057 454,358.469 "/>
<polygon opacity="0.2" fill="#E5007E" points="518,306.156 479,293.219 479,277.693 517.889,265.094 557,277.807 557,293.219 "/>
</svg>
