<?xml version="1.0" standalone="no"?>
<!DOCTYPE svg PUBLIC "-//W3C//DTD SVG 1.1//EN" "http://www.w3.org/Graphics/SVG/1.1/DTD/svg11.dtd" >
<svg>
<metadata>
Created by FontForge 20090914 at Tue Jul 28 21:19:58 2015
 By www-data
Copyright (c) Galdino Otten, 2012
</metadata>
<defs>
<font id="ThinDesign" horiz-adv-x="907" >
  <font-face 
    font-family="Thin Design"
    font-weight="400"
    font-stretch="normal"
    units-per-em="2048"
    panose-1="2 0 5 0 0 0 0 0 0 0"
    ascent="1638"
    descent="-410"
    x-height="1202"
    cap-height="1601"
    bbox="-47 -408.001 1024 1723"
    underline-thickness="150"
    underline-position="-142"
    unicode-range="U+0020-U+FB02"
  />
<missing-glyph 
d="M282 832v174c0 20 7.33301 37.667 22 53c14 16 32.333 26.667 55 32v-325zM507 528l0.000976562 -215c0 -19.333 -7.33301 -37 -22 -53c-14.667 -15.333 -33.334 -26 -56.001 -32v369zM600.001 898l-0.000976562 108c0 40.667 -16.333 76.667 -49 108
s-73.334 50 -122.001 56v81h-70v-81c-48.667 -6 -89 -24.667 -121 -56c-32.667 -31.333 -49 -67.333 -49 -108l1 -200l169 -148v-430c-22.667 6 -41 16.667 -55 32c-14.667 16 -22 33.667 -22 53v157h-93v-157c0 -40.667 16.333 -76.667 49 -108
c32 -30.667 72.333 -49.334 121 -56.001v-154h70v154c48.667 6.66699 89.334 25.334 122.001 56.001c32.667 31.333 49 67.333 49 108v249l-171 145v384c22.667 -5.33301 41.334 -16 56.001 -32c14.667 -15.333 22 -33 22 -53v-108h93z" />
    <glyph glyph-name=".notdef" 
d="M282 832v174c0 20 7.33301 37.667 22 53c14 16 32.333 26.667 55 32v-325zM507 528l0.000976562 -215c0 -19.333 -7.33301 -37 -22 -53c-14.667 -15.333 -33.334 -26 -56.001 -32v369zM600.001 898l-0.000976562 108c0 40.667 -16.333 76.667 -49 108
s-73.334 50 -122.001 56v81h-70v-81c-48.667 -6 -89 -24.667 -121 -56c-32.667 -31.333 -49 -67.333 -49 -108l1 -200l169 -148v-430c-22.667 6 -41 16.667 -55 32c-14.667 16 -22 33.667 -22 53v157h-93v-157c0 -40.667 16.333 -76.667 49 -108
c32 -30.667 72.333 -49.334 121 -56.001v-154h70v154c48.667 6.66699 89.334 25.334 122.001 56.001c32.667 31.333 49 67.333 49 108v249l-171 145v384c22.667 -5.33301 41.334 -16 56.001 -32c14.667 -15.333 22 -33 22 -53v-108h93z" />
    <glyph glyph-name="space" unicode=" " horiz-adv-x="508" 
 />
    <glyph glyph-name="space" unicode="&#xa0;" horiz-adv-x="508" 
 />
    <glyph glyph-name="exclam" unicode="!" horiz-adv-x="223" 
d="M57 -14h93v218h-93v-218zM53 320h86l19 1100h-105v-1100z" />
    <glyph glyph-name="quotedbl" unicode="&#x22;" horiz-adv-x="385" 
d="M58 1521h82v-465h-82v465zM239 1521h81v-465h-81v465z" />
    <glyph glyph-name="numbersign" unicode="#" 
d="M714 1086l-137 -390h-176l136 390h-58l-136 -390h-228l-15 -44h227l-47 -135h-227l-16 -45h227l-136 -390h58l136 390h177l-137 -390h58l137 390h227l16 45h-227l47 135h227l16 44h-227l136 390h-58zM385 652h177l-47 -135h-177z" />
    <glyph glyph-name="dollar" unicode="$" 
d="M346 942v167.001c0 19.333 7.33301 36.333 22 51c14 15.333 32.333 25.666 55 30.999v-313zM571 649.001l0.000976562 -207c0 -18.667 -7.33301 -35.667 -22 -51c-14.667 -14.667 -33.334 -25 -56.001 -31v355zM664.001 1005l-0.000976562 103.999
c0 39.333 -16.333 74 -49 104s-73.334 48 -122.001 54v78h-70v-78c-48.667 -6 -89 -24 -121 -54c-32.667 -30 -49 -64.667 -49 -104l1 -192l169 -143v-414c-22.667 6 -41 16.333 -55 31c-14.667 15.333 -22 32.333 -22 51v151h-93v-151c0 -39.333 16.333 -74 49 -104
c32 -29.333 72.333 -47.333 121 -54v-148h70v148c48.667 6.66699 89.334 24.667 122.001 54c32.667 30 49 64.667 49 104v240l-171 139v370c22.667 -5.33301 41.334 -15.666 56.001 -30.999c14.667 -14.667 22 -31.667 22 -51v-104h93z" />
    <glyph glyph-name="percent" unicode="%" horiz-adv-x="696" 
d="M196 1121c-6.66699 -6 -10 -13.667 -10 -23v-237c0 -9.33301 3.33301 -17 10 -23c6.66699 -6.66699 15 -10 25 -10c9.33301 0 17.333 3.33301 24 10c6.66699 6 10 13.667 10 23v237c0 9.33301 -3.33301 17 -10 23c-6.66699 6.66699 -14.667 10 -24 10
c-10 0 -18.333 -3.33301 -25 -10zM141 785c-22 20.667 -33 46 -33 76v237c0 30 11 55.333 33 76c22 21.333 48.667 32 80 32c30.667 0 57 -10.667 79 -32c22 -20.667 33 -46 33 -76v-237c0 -30 -11 -55.333 -33 -76c-22 -21.333 -48.333 -32 -79 -32
c-31.333 0 -58 10.667 -80 32zM494 458c-6.66699 -6.66699 -10 -14.334 -10 -23.001v-237c0 -9.33301 3.33301 -17.333 10 -24c6.66699 -6 14.667 -9 24 -9s17.666 3 24.999 9c6.66699 6.66699 10 14.667 10 24v237c0 8.66699 -3.33301 16.334 -10 23.001
c-7.33301 6.66699 -15.666 10 -24.999 10s-17.333 -3.33301 -24 -10zM439 122c-22 20.667 -33 46 -33 76v237c0 29.333 11 54.666 33 75.999c22 20.667 48.333 31 79 31c31.333 0 58 -10.333 80 -31c22 -21.333 33 -46.666 33 -75.999v-237c0 -30 -11 -55.333 -33 -76
c-22 -21.333 -48.667 -32 -80 -32c-30.667 0 -57 10.667 -79 32zM165 3l-73 25l481 1265l74 -26z" />
    <glyph glyph-name="ampersand" unicode="&#x26;" horiz-adv-x="696" 
d="M173 160c-28.667 27.333 -43 60.333 -43 99v485c0 38.667 14.333 71.667 43 99s63.334 41 104.001 41s75.334 -13.667 104.001 -41s43 -60.333 43 -99v-485c0 -38.667 -14.333 -71.667 -43 -99s-63.334 -41 -104.001 -41s-75.334 13.667 -104.001 41zM224 1270
c0 14 5.33301 26 16 36c10 10 22.333 15 37 15s27.334 -5 38.001 -15c10 -10 15 -22 15 -36v-237c0 -14 -5 -26 -15 -36c-10.667 -10 -23.334 -15 -38.001 -15s-27 5 -37 15c-10.667 10 -16 22 -16 36v237zM651 466l-68.998 34l-79 -145v389c0 43.333 -12.667 83 -38 119
c-24.667 35.333 -57.334 61.333 -98.001 78c28 25.333 42 56 42 92v237c0 34.667 -13 64.334 -39 89.001c-25.333 24.667 -56.333 37 -93 37c-36 0 -66.667 -12.333 -92 -37c-26 -24.667 -39 -54.334 -39 -89.001v-237c0 -36 14 -66.667 42 -92
c-40.667 -16.667 -73.334 -42.667 -98.001 -78c-25.333 -36 -38 -75.667 -38 -119v-485c0 -59.333 22 -110 66 -152s97 -63 159 -63c56 0 105 17.333 147 52v-106h78l1 203z" />
    <glyph glyph-name="quotesingle" unicode="'" horiz-adv-x="327" 
d="M109 1507h81v-465h-81v465z" />
    <glyph glyph-name="parenleft" unicode="(" horiz-adv-x="567" 
d="M338 1359l74.999 -0.000976562c-40.667 -76 -75.667 -151.5 -105 -226.5s-53 -160.5 -71 -256.5s-27 -201.667 -27 -317c0.666992 -82 5 -158.833 13 -230.5s19.667 -140.167 35 -205.5s35.833 -131.166 61.5 -197.499s56.834 -132.833 93.501 -199.5h-75
c-75.333 118.667 -132.5 249 -171.5 391s-58.5 289.333 -58.5 442c0 139.333 19 277 57 413s95.667 265 173 387z" />
    <glyph glyph-name="parenright" unicode=")" horiz-adv-x="567" 
d="M417.5 972c33.667 -136 50.499 -273.666 50.499 -412.999c0 -152.667 -17.167 -300 -51.5 -442s-84.833 -272.333 -151.5 -391h-66c32 66.667 59.333 133.167 82 199.5s40.834 132.166 54.501 197.499s24 133.833 31 205.5s10.833 148.5 11.5 230.5
c0 115.333 -8 221 -24 317s-36.833 181.5 -62.5 256.5s-56.5 150.5 -92.5 226.5h66c68 -122 118.833 -251 152.5 -387z" />
    <glyph glyph-name="asterisk" unicode="*" horiz-adv-x="796" 
d="M442 1124v-246h-86v247l-147 -147l-71 56l181 183l-199 86l29 88l207 -98v235h92v-235l208 98l28 -93l-205 -85l179 -187l-75 -48z" />
    <glyph glyph-name="plus" unicode="+" 
d="M376 839h73v-288h252v-66h-252v-291h-73v291h-249v66h249v288z" />
    <glyph glyph-name="comma" unicode="," horiz-adv-x="456" 
d="M79 168v-163h65v-76h66v239h-131z" />
    <glyph glyph-name="hyphen" unicode="-" horiz-adv-x="543" 
d="M81 445v79h370v-79h-370z" />
    <glyph glyph-name="hyphen" unicode="&#xad;" horiz-adv-x="543" 
d="M81 445v79h370v-79h-370z" />
    <glyph glyph-name="period" unicode="." horiz-adv-x="456" 
d="M159 180h140v-180h-140v180z" />
    <glyph glyph-name="slash" unicode="/" horiz-adv-x="567" 
d="M-47 -190l568 1695h83l-571 -1695h-80z" />
    <glyph glyph-name="zero" unicode="0" horiz-adv-x="464" 
d="M354 175c0 -27.333 -11.667 -50.666 -35 -69.999c-24 -19.333 -52.667 -29 -86 -29s-62 9.66699 -86 29c-23.333 19.333 -35 42.666 -35 69.999v1043c0 27.333 11.667 50.666 35 69.999c24 18.667 52.667 28 86 28s62 -9.33301 86 -28
c23.333 -19.333 35 -42.666 35 -69.999v-1043zM82 1339c-41.333 -33.333 -62 -73.666 -62 -120.999v-1043c0 -47.333 20.667 -88 62 -122c42 -33.333 92.333 -50 151 -50s109 16.667 151 50c41.333 34 62 74.667 62 122v1043c0 47.333 -20.667 87.666 -62 120.999
c-42 33.333 -92.333 50 -151 50s-109 -16.667 -151 -50z" />
    <glyph glyph-name="one" unicode="1" horiz-adv-x="246" 
d="M106 1396v-60c0 -74.667 -31.333 -133 -94 -175c0 -2 0 -2.66699 0 -2v-96c38 12 69.333 33 94 63v-1128h92v1398h-92z" />
    <glyph glyph-name="two" unicode="2" horiz-adv-x="450" 
d="M424 909l1.00098 327c0 59.333 -20 110 -60 152c-39.333 41.333 -87.333 62 -144 62c-56 0 -103.667 -20.667 -143 -62c-40 -42 -60 -92.667 -60 -152v-139h92v139c0 32 11 59.333 33 82c21.333 22.667 47.333 34 78 34c31.333 0 57.666 -11.333 78.999 -34
c22 -22.667 33 -50 33 -82v-294l-315 -347v-589h9v-6h356v95h-273v457z" />
    <glyph glyph-name="three" unicode="3" horiz-adv-x="469" 
d="M431 936l1 264c0 60.667 -20 112.334 -60 155.001c-39.333 43.333 -87 65 -143 65c-56.667 0 -104.667 -21.667 -144 -65c-40 -42.667 -60 -94.334 -60 -155.001v-142h92v142c0 32.667 11 60.667 33 84c21.333 23.333 47.666 35 78.999 35
c30.667 0 56.667 -11.667 78 -35c22 -23.333 33 -51.333 33 -84v-230l-150 -169h117c22 -22.667 33 -50 33 -82v-532c0 -32 -11 -59.667 -33 -83c-21.333 -22.667 -47.333 -34 -78 -34c-31.333 0 -57.666 11.333 -78.999 34c-22 23.333 -33 51 -33 83v41h-92v-41
c0 -59.333 20 -110 60 -152c39.333 -42 87.333 -63 144 -63c56 0 103.667 21 143 63c40 42 60 92.667 60 152v532c0 58 -19.667 108 -59 150z" />
    <glyph glyph-name="four" unicode="4" horiz-adv-x="450" 
d="M211 1406l-185 -872h-3v-96h246v-439h94v439h49v96h-49v872h-152zM269 1264v-730h-146z" />
    <glyph glyph-name="five" unicode="5" horiz-adv-x="510" 
d="M463 1307l-0.000976562 99h-415v-626l321 -1v-559c0 -33.333 -11 -61.666 -33 -84.999c-22.667 -23.333 -49.667 -35 -81 -35s-58 11.667 -80 35s-33 51.666 -33 84.999v144h-94v-144c0 -61.333 20.333 -113.666 61 -156.999c40.667 -44 89.334 -66 146.001 -66
c57.333 0 106.333 22 147 66c40.667 43.333 61 95.666 61 156.999l-1 675l-320 2v410h321z" />
    <glyph glyph-name="six" unicode="6" horiz-adv-x="524" 
d="M336 722c22 -22.667 33 -49.667 33 -81v-451c0 -30.667 -12 -56.667 -36 -78c-24 -22 -53 -33 -87 -33s-63.333 11 -88 33c-24 21.333 -36 47.333 -36 78v492c26 50 70.667 74.667 134 74c31.333 -0.666992 58 -12 80 -34zM463 1073l0.000976562 135
c0 53.333 -21 98.666 -63 135.999c-42.667 38 -94 57 -154 57s-111.333 -19 -154 -57c-42.667 -37.333 -64 -82.666 -64 -135.999v-1018c0 -53.333 21.333 -98.666 64 -135.999s94 -56 154 -56s111.333 18.667 154 56c42 37.333 63 82.666 63 135.999v451
c0 58 -20.333 107.333 -61 148c-40.667 41.333 -89.334 62 -146.001 62c-44 0 -88.667 -11.333 -134 -34v391c0 30.667 12 56.667 36 78c24.667 22 54 33 88 33s63 -11 87 -33c24 -21.333 36 -47.333 36 -78v-135h94z" />
    <glyph glyph-name="seven" unicode="7" horiz-adv-x="487" 
d="M22 1396v-98h316l-183 -1304h97l197 1402h-427z" />
    <glyph glyph-name="eight" unicode="8" horiz-adv-x="464" 
d="M336 206c0 -28.667 -10.333 -53.667 -31 -75c-20 -21.333 -45 -33 -75 -35c-29.333 2 -54.333 13.667 -75 35c-20 21.333 -30 46.333 -30 75v508c0 29.333 10 54.666 30 75.999c20.667 20.667 45.667 32.334 75 35.001c30 -2.66699 55 -14.334 75 -35.001
c20.667 -21.333 31 -46.666 31 -75.999v-508zM125 1200c0 28.667 10 53.667 30 75c20.667 21.333 45.667 33 75 35c30 -2 55 -13.667 75 -35c20.667 -21.333 31 -46.333 31 -75v-166c0 -28.667 -10.333 -53.667 -31 -75c-20 -21.333 -45 -33 -75 -35
c-29.333 2 -54.333 13.667 -75 35c-20 21.333 -30 46.333 -30 75v166zM431 1035l-1 90l1 75c0 52.667 -18 98.667 -54 138s-80.333 61.666 -133 66.999v1l-2 1h-3c2.66699 0 -0.333008 -0.333008 -9 -1c-8 0.666992 -11 1 -9 1h-2c-1.33301 -0.666992 -2.33301 -1 -3 -1v-1
c-52.667 -5.33301 -96.667 -27.666 -132 -66.999c-36 -39.333 -54 -85.333 -54 -138v-61v-104c0 -65.333 26 -119 78 -161c-52 -41.333 -78 -94.666 -78 -159.999v-61v-446c0 -53.333 18 -99.666 54 -138.999c35.333 -38.667 79.333 -61 132 -67v-1h3h2c-2 0 1 0 9 0
s11 0 9 0h3h2v1c52.667 6 97 28.333 133 67c36 39.333 54 85.666 54 138.999l-1 432l1 75c0 65.333 -26 118.666 -78 159.999c52 42 78 95.667 78 161z" />
    <glyph glyph-name="nine" unicode="9" horiz-adv-x="538" 
d="M177 663c-23.333 23.333 -34.999 50.998 -34.999 82.998v462c0 31.333 12.667 58 38 80c24.667 22 54.667 33 90 33s65.666 -11 90.999 -33s38 -48.667 38 -80v-504c-27.333 -51.333 -73.666 -76.666 -138.999 -75.999c-32.667 0.666992 -60.334 12.334 -83.001 35.001z
M45.001 302.998v-138c0 -54 22 -100.333 66 -139s97 -58 159 -58c62.667 0 116 19.333 160 58s66 85 66 139v1043c0 54 -22 100.333 -66 139s-97.333 58 -160 58c-62 0 -115 -19.333 -159 -58s-66 -85 -66 -139v-462c0 -59.333 21 -110 63 -152s92.667 -63 152 -63
c45.333 0 91.666 11.667 138.999 35v-401c0 -31.333 -12.667 -58 -38 -80s-55.666 -33 -90.999 -33s-65.333 11 -90 33c-25.333 22 -38 48.667 -38 80v138h-97z" />
    <glyph glyph-name="colon" unicode=":" horiz-adv-x="315" 
d="M99 884h119v162h-119v-162zM99 41h119v163h-119v-163z" />
    <glyph glyph-name="semicolon" unicode=";" horiz-adv-x="311" 
d="M102 906h130v162h-130v-162zM102 168v-163h65v-76h66v239h-131z" />
    <glyph glyph-name="semicolon" unicode="&#x37e;" horiz-adv-x="311" 
d="M102 906h130v162h-130v-162zM102 168v-163h65v-76h66v239h-131z" />
    <glyph glyph-name="less" unicode="&#x3c;" 
d="M831 973l-738 -356v-158l738 -356v102l-663 333l663 333v102z" />
    <glyph glyph-name="equal" unicode="=" 
d="M848 710h-781v88h781v-88zM848 333h-781v87h781v-87z" />
    <glyph glyph-name="greater" unicode="&#x3e;" 
d="M101 973v-102l663 -333l-663 -333v-102l738 357v157z" />
    <glyph glyph-name="question" unicode="?" horiz-adv-x="500" 
d="M460 729l0.00195312 327c0 53.333 -17.333 98.666 -52 135.999c-34.667 38 -76.334 57 -125.001 57s-90.334 -19 -125.001 -57c-34.667 -37.333 -52 -82.666 -52 -135.999v-220h81v220c0 28.667 9 53.334 27 74.001c19.333 20 42.333 30 69 30s49.667 -10 69 -30
c18 -20.667 27 -45.334 27 -74.001v-288l-138 -409l-1 -162h79v132zM243.002 0h80v135h-80v-135z" />
    <glyph glyph-name="at" unicode="@" horiz-adv-x="960" 
d="M602 615c0 -21.333 -17.667 -40.333 -53 -57c-32.667 -16 -65.667 -24 -99 -24c-31.333 0 -58.333 8 -81 24c-22 15.333 -33 34.333 -33 57v154c0 22 11 41 33 57c22.667 16 49.667 24 81 24c33.333 0 66.333 -8 99 -24c35.333 -17.333 53 -36.333 53 -57v-154zM217 408
c-76.667 78.667 -115.002 173.334 -115.002 284.001s38.333 205.667 115 285s169 118 277 116c120.667 -2 211 -44.333 271 -127c45.333 -62 68 -135.333 68 -220c0 -70.667 -20 -136.334 -60 -197.001c-18 -28.667 -40 -44.667 -66 -48
c-26 0.666992 -41.333 9.66699 -46 27v358h-66v-43c-35.333 36.667 -83.666 55 -144.999 55c-49.333 0 -91 -12.667 -125 -38c-34.667 -25.333 -52 -55.666 -52 -90.999v-154c0 -36 17.333 -66.667 52 -92c34 -25.333 75.667 -38 125 -38
c61.333 0 109.666 18.667 144.999 56v-28c3.33301 -16.667 14.333 -31.667 33 -45c17.333 -12 37 -19.667 59 -23c35.333 -4.66699 65.666 2.66602 90.999 21.999l3 2l2 2c75.333 79.333 113 171 113 275c0 113.333 -30.333 202.333 -91 267
c-44.667 46.667 -102.667 81.334 -174 104.001c-50 16.667 -95.667 25 -137 25c-126 0 -233.333 -44 -322 -132c-89.333 -88 -134 -194 -134 -318s44.667 -230 134 -318c88.667 -88 196 -132 322 -132c120.667 0 225.334 41.333 314.001 124
c-23.333 11.333 -43.666 17.666 -60.999 18.999c-73.333 -63.333 -157.666 -95 -252.999 -95c-108 0 -200.333 39.333 -277 118z" />
    <glyph glyph-name="A" unicode="A" horiz-adv-x="472" 
d="M140 1604l-141 -1604h84l23 259h259l23 -259h84l-141 1604h-191zM225 1551h22l108 -1198h-239z" />
    <glyph glyph-name="B" unicode="B" horiz-adv-x="487" 
d="M363 191c0 -31.333 -11 -58 -33 -80c-22.667 -22 -49.667 -33 -81 -33h-117v868l117 1c31.333 0 58.333 -11 81 -33c22 -22 33 -48.667 33 -80v-643zM132 1526h117c31.333 0 58.333 -11 81 -33c22 -22 33 -48.667 33 -80v-245c0 -30.667 -11 -57 -33 -79
c-22.667 -22.667 -49.667 -34 -81 -34l-117 1v470zM358 1001l34 35.0029c37.333 36.667 56 80.667 56 132v245c0 53.333 -19.333 98.666 -58 135.999s-85.667 56 -141 56h-117v0h-85v-1606h202c55.333 0 102.333 18.667 141 56s58 82.666 58 135.999v643
c0 51.333 -18.667 95.666 -56 132.999z" />
    <glyph glyph-name="C" unicode="C" horiz-adv-x="515" 
d="M478 1427c0 54.667 -20.667 101.334 -62 140.001s-91 58 -149 58s-107.333 -19.333 -148 -58c-41.333 -38.667 -62 -85.334 -62 -140.001v-1248c0 -54 20.667 -100.333 62 -139c40.667 -38.667 90 -58 148 -58s107.667 19.333 149 58s62 85 62 139v104h-91v-119
c0 -31.333 -11.667 -58.333 -35 -81c-23.333 -22 -51.666 -33 -84.999 -33c-32.667 0 -60.667 11 -84 33c-23.333 22.667 -35 49.667 -35 81v1269c0 31.333 11.667 58.333 35 81c23.333 22 51.333 33 84 33c33.333 0 61.666 -11 84.999 -33
c23.333 -22.667 35 -49.667 35 -81v-109h91v103z" />
    <glyph glyph-name="D" unicode="D" horiz-adv-x="607" 
d="M437 192c0 -30.667 -12.333 -57 -37 -79s-54.667 -33 -90 -33c-10 0 -43 0.333008 -99 1h-52v1439h52c49.333 0.666992 82.333 1 99 1c35.333 0 65.333 -11 90 -33s37 -48.333 37 -79v-1217zM159 1601l-98 0.00195312v-1601h249c62.667 0 116 18.667 160 56
s66 82.666 66 135.999v1217c0 53.333 -22 98.666 -66 135.999s-97.333 56 -160 56h-151z" />
    <glyph glyph-name="E" unicode="E" horiz-adv-x="496" 
d="M160 900h265v67h-265v546h265v88h-359v-1601h359v89h-265v811z" />
    <glyph glyph-name="F" unicode="F" horiz-adv-x="445" 
d="M157 1512h265v89h-359v-1601h94v894h265v67h-265v551z" />
    <glyph glyph-name="G" unicode="G" horiz-adv-x="547" 
d="M503 980h-210v-70h114v-718c0 -30.667 -12.333 -57 -37 -79s-54.334 -33 -89.001 -33s-64.334 11 -89.001 33s-37 48.333 -37 79v1217c0 30.667 12.333 57 37 79s54.334 33 89.001 33s64.334 -11 89.001 -33s37 -48.333 37 -79v-100h96v100
c0 53.333 -21.667 98.666 -65 135.999s-95.666 56 -156.999 56s-113.666 -18.667 -156.999 -56s-65 -82.666 -65 -135.999v-1217c0 -53.333 21.667 -98.666 65 -135.999s95.666 -56 156.999 -56s113.666 18.667 156.999 56s65 82.666 65 135.999v788z" />
    <glyph glyph-name="H" unicode="H" horiz-adv-x="575" 
d="M415 0h94v1601h-94v-625h-267v625h-94v-1601h94v908h267v-908z" />
    <glyph glyph-name="I" unicode="I" horiz-adv-x="186" 
d="M136 1601h-87v-1601h87v1601z" />
    <glyph glyph-name="J" unicode="J" horiz-adv-x="353" 
d="M296 1601l-89 -0.000976562v-1403c0 -32 -11.333 -59.333 -34 -82c-22.667 -22 -49.667 -33 -81 -33h-68v-83h68c56 0 104 19.333 144 58s60 85.334 60 140.001v1403z" />
    <glyph glyph-name="K" unicode="K" horiz-adv-x="547" 
d="M505 1601h-80l-264 -621v621h-85v-1601h85v915l255 -915h100l-263 958z" />
    <glyph glyph-name="L" unicode="L" horiz-adv-x="426" 
d="M153 1604h-86v-1612h327v90h-241v1522z" />
    <glyph glyph-name="M" unicode="M" horiz-adv-x="872" 
d="M494 -8l230 1556v-1556h83v1612h-149l-212 -1447l-213 1447h-149v-1612h83v1556l230 -1556h97z" />
    <glyph glyph-name="N" unicode="N" horiz-adv-x="645" 
d="M57 1605v-1608h82v1547l298 -1547h53h85v1608h-85v-1506l-284 1506h-149z" />
    <glyph glyph-name="O" unicode="O" horiz-adv-x="515" 
d="M374 166c0 -30.667 -11 -57 -33 -79c-22.667 -22 -49.667 -33 -81 -33c-32 0 -59 11 -81 33c-22.667 22 -34 48.333 -34 79v1242c0 30.667 11.333 57 34 79c22 22 49 33 81 33c31.333 0 58.333 -11 81 -33c22 -22 33 -48.333 33 -79v-1242zM117 1546
c-39.333 -38 -59 -84 -59 -138v-1242c0 -54 19.667 -100 59 -138c39.333 -38.667 87 -58 143 -58c55.333 0 102.666 19.333 141.999 58c39.333 38 59 84 59 138v1242c0 54 -19.667 100 -59 138c-39.333 38.667 -86.666 58 -141.999 58c-56 0 -103.667 -19.333 -143 -58z" />
    <glyph glyph-name="P" unicode="P" horiz-adv-x="482" 
d="M360 1071c0 -36 -48.666 -86.667 -145.999 -152l-73 -48v655l49 -2c105.333 -6 161.666 -42 168.999 -108l1 -5v-340zM55.001 1604l-0.000976562 -1612h86v793l27 13c68.667 33.333 132.334 78.666 191.001 135.999s88 103 88 137v336
c-12 82.667 -42.333 138.334 -91 167.001c-34 20 -90 30 -168 30h-133z" />
    <glyph glyph-name="Q" unicode="Q" horiz-adv-x="543" 
d="M188 48c-22.667 22 -34 49 -34 81v1268c0 32 11.333 59.333 34 82s50 34 82 34s59.333 -11.333 82 -34s34 -50 34 -82v-1268c0 -32 -11.333 -59 -34 -81c-22.667 -22.667 -50 -34 -82 -34s-59.333 11.333 -82 34zM350 -60l35 23.001c60 40 90 95.333 90 166v1268
c0 55.333 -20.333 102.666 -61 141.999c-40 39.333 -88 59 -144 59c-56.667 0 -105 -19.667 -145 -59s-60 -86.666 -60 -141.999v-1268c0 -54.667 19 -101.334 57 -140.001c38.667 -38.667 85.667 -58.667 141 -60l33 -2l11 -31c10.667 -34 30.667 -61.667 60 -83
c28.667 -20.667 60.667 -31 96 -31h17v60h-17c-44 0 -75.667 20 -95 60z" />
    <glyph glyph-name="R" unicode="R" horiz-adv-x="547" 
d="M148 874l0.000976562 653l50 -2c107.333 -5.33301 164.666 -41 171.999 -107v-6v-338c0 -36 -49.333 -86.333 -148 -151zM358.001 927c67.333 61.333 101.001 110.333 101.001 147v335c-12.667 82.667 -43.334 138 -92.001 166c-34.667 20 -91.667 30 -171 30h-135v-1607
h87v791l27 13c8.66699 4 18.667 9 30 15l59 32l148 -851h86l-159 911z" />
    <glyph glyph-name="S" unicode="S" horiz-adv-x="538" 
d="M114 1547c-44 -40.667 -66 -89.667 -66 -147v-323l364 -255l-3 -633c0 -32.667 -13.333 -60.667 -40 -84s-59 -35 -97 -35s-70.333 11.667 -97 35s-40 51.333 -40 84v368h-87v-368c0 -57.333 22 -106.333 66 -147c43.333 -40.667 96 -61 158 -61
c61.333 0 114 20.333 158 61s66 89.667 66 147v679l-363 253l2 279c0 32.667 13.333 60.667 40 84s59 35 97 35s70.333 -11.667 97 -35s40 -51.333 40 -84v-225h87v225c0 57.333 -22 106.333 -66 147s-96.667 61 -158 61c-62 0 -114.667 -20.333 -158 -61z" />
    <glyph glyph-name="T" unicode="T" horiz-adv-x="441" 
d="M173 1h87v1516h154v91h-395v-91h154v-1516z" />
    <glyph glyph-name="U" unicode="U" horiz-adv-x="534" 
d="M70 193c0 -54 19.667 -100 59 -138c38.667 -38 85.667 -57 141 -57c54.667 0 101.667 19 141 57c38.667 38 58 84 58 138v1408h-86v-1408c0 -30.667 -11 -57 -33 -79s-48.667 -33 -80 -33s-58 11 -80 33c-22.667 22 -34 48.333 -34 79v1408h-86v-1408z" />
    <glyph glyph-name="V" unicode="V" horiz-adv-x="520" 
d="M110 1601h-82l138 -1596h186l137 1596h-82l-148 -1546z" />
    <glyph glyph-name="W" unicode="W" horiz-adv-x="914" 
d="M798 1601l-149 -1546l-148 1546h-97l-148 -1546l-149 1546h-82l138 -1596h186l103 1201l104 -1201h186l138 1596h-82z" />
    <glyph glyph-name="X" unicode="X" horiz-adv-x="520" 
d="M409 1601l-156 -646l-156 646h-88l205 -810l-201 -795h88l152 630l152 -630h88l-201 795l205 810h-88z" />
    <glyph glyph-name="Y" unicode="Y" horiz-adv-x="534" 
d="M415 1596l-149 -879l-148 879h-91l197 -1042v-554h85v563l196 1033h-90z" />
    <glyph glyph-name="Z" unicode="Z" horiz-adv-x="529" 
d="M29 1601v-89h367l-396 -1512h472v89h-367l396 1512h-472z" />
    <glyph glyph-name="bracketleft" unicode="[" horiz-adv-x="399" 
d="M106 1465l150 0.00195312c2.66699 -0.666992 4 -3.33398 4 -8.00098v-108c0 -5.33301 -1.33301 -8 -4 -8h-69v-1300h69c2.66699 -0.666992 4 -3.33398 4 -8.00098v-116c0 -5.33301 -1.33301 -8 -4 -8h-150c-2.66699 0 -4 2.66699 -4 8v1540c0 5.33301 1.33301 8 4 8z" />
    <glyph glyph-name="backslash" unicode="\" horiz-adv-x="569" 
d="M524 -190l-571 1695h83l568 -1695h-80z" />
    <glyph glyph-name="bracketright" unicode="]" horiz-adv-x="353" 
d="M260 1457v-1540c0 -5.33301 -1.33301 -8 -4 -8h-150c-2.66699 0 -4 2.66699 -4 8v116c0 4.66699 1.33301 7.33398 4 8.00098h69v1300h-69c-2.66699 0 -4 2.66699 -4 8v108c0 4.66699 1.33301 7.33398 4 8.00098h150c2.66699 0 4 -2.66699 4 -8z" />
    <glyph glyph-name="asciicircum" unicode="^" horiz-adv-x="1401" 
d="M824 1367c4 -2 57.332 -87.334 159.999 -256.001l-6 -3h-110c-6 0 -50.667 61.667 -134 185c-97.333 -117.333 -151.666 -179 -162.999 -185h-110c-4 0 -6 1.66699 -6 5c7.33301 6.66699 79 91.334 215 254.001h154z" />
    <glyph glyph-name="underscore" unicode="_" horiz-adv-x="1024" 
d="M0 -311h1024v-76h-1024v76z" />
    <glyph glyph-name="grave" unicode="`" horiz-adv-x="1024" 
d="M530 1251l-222 179l202 3l118 -182h-98z" />
    <glyph glyph-name="a" unicode="a" horiz-adv-x="450" 
d="M331 73l-49 2.00098c-103.333 5.33301 -158.333 39.666 -165 102.999l-1 5v325c0 34.667 47.667 83 143 145l72 47v-627zM93 1158c-37.333 -37.333 -56.001 -81.999 -56.001 -133.999v-89l86 34v55c0 28.667 10 53 30 73c20 20.667 44.333 31 73 31s53 -10.333 73 -31
c20 -20 30 -44.333 30 -73v-243l-26 -12c-67.333 -32 -129.666 -75.333 -186.999 -130c-56.667 -54.667 -85 -98.334 -85 -131.001v-322c12 -79.333 41.667 -132.333 89 -159c33.333 -19.333 88.333 -29 165 -29h130v1026c0 52 -18.667 96.667 -56 134
c-36.667 36.667 -81 55 -133 55s-96.333 -18.333 -133 -55z" />
    <glyph glyph-name="b" unicode="b" horiz-adv-x="547" 
d="M389 185c0 -26.667 -8.66699 -49 -26 -67s-39.333 -27 -66 -27c-12.667 0 -25.667 2.33301 -39 7c-27.333 10 -50 27.667 -68 53c-18.667 25.333 -28 52 -28 80v734c0 28 9.33301 54.667 28 80c18 25.333 40.667 43 68 53c13.333 4.66699 26.333 7 39 7
c26.667 0 48.667 -8.66699 66 -26c17.333 -18 26 -40.667 26 -68v-826zM293 1194c-18 -6.66699 -36 -15.668 -54 -27.001l-77 -48v481h-94v-1609h94v86l77 -48c18.667 -11.333 36.667 -20.333 54 -27c25.333 -9.33301 49.333 -14 72 -14c36.667 0 65.334 11.333 86.001 34
c20.667 22 31 52.333 31 91v970c0 38.667 -10.333 69.334 -31 92.001c-20.667 22 -49.334 33 -86.001 33c-22.667 0 -46.667 -4.66699 -72 -14z" />
    <glyph glyph-name="c" unicode="c" horiz-adv-x="478" 
d="M103 1161c-39.333 -40 -59 -88 -59 -144v-844c0 -55.333 19.667 -103 59 -143c40 -39.333 87.667 -59 143 -59c56 0 104 19.667 144 59c39.333 40 59 87.667 59 143v38h-92v-38c0 -30 -10.667 -56 -32 -78c-22 -21.333 -48.333 -32 -79 -32c-30 0 -56 10.667 -78 32
c-21.333 22 -32 48 -32 78v844c0 30.667 10.667 57 32 79c22 21.333 48 32 78 32c30.667 0 57 -10.667 79 -32c21.333 -22 32 -48.333 32 -79v-23h92v23c0 56 -19.667 104 -59 144c-40 39.333 -88 59 -144 59c-55.333 0 -103 -19.667 -143 -59z" />
    <glyph glyph-name="d" unicode="d" horiz-adv-x="496" 
d="M132 1011c0 27.333 8.66699 50 26 68c17.333 17.333 39 26 65 26c13.333 0 26.333 -2.33301 39 -7c27.333 -10 50.333 -27.667 69 -53c18 -25.333 27 -52 27 -80v-734c0 -28 -9 -54.667 -27 -80c-18.667 -25.333 -41.667 -43 -69 -53c-12.667 -4.66699 -25.667 -7 -39 -7
c-26 0 -47.667 9 -65 27s-26 40.333 -26 67v826zM155 1208c-36 0 -64.666 -10.999 -85.999 -32.999c-20.667 -22.667 -31 -53.334 -31 -92.001v-970c0 -38.667 10.333 -69 31 -91c21.333 -22.667 50 -34 86 -34c23.333 0 47.666 4.66699 72.999 14
c17.333 6.66699 35.333 15.667 54 27l77 48v-86h93v1619h-93v-491l-77 48c-18.667 11.333 -36.667 20.333 -54 27c-26 9.33301 -50.333 14 -73 14z" />
    <glyph glyph-name="e" unicode="e" horiz-adv-x="456" 
d="M333 729h-204v293c0 30 10 55.333 30 76c20 21.333 44 32 72 32c28.667 0 53 -10.667 73 -32c19.333 -20.667 29 -46 29 -76v-293zM100 1162c-36.667 -38.667 -55 -85.334 -55 -140.001v-828c0 -54.667 18.333 -101.334 55 -140.001c36 -38.667 79.667 -58 131 -58
c52 0 96 19.333 132 58c36.667 38.667 55 85.334 55 140.001v38h-85v-38c0 -30 -9.66699 -55.333 -29 -76c-20 -21.333 -44.333 -32 -73 -32c-28 0 -52 10.667 -72 32c-20 20.667 -30 46 -30 76v468h289v360c0 54.667 -18.333 101.334 -55 140.001
c-36 38.667 -80 58 -132 58c-51.333 0 -95 -19.333 -131 -58z" />
    <glyph glyph-name="f" unicode="f" horiz-adv-x="367" 
d="M210 1402c0 30 11 55.6689 33 77.002s48.667 32 80 32v90c-57.333 -0.666992 -106 -20.334 -146 -59.001c-40.667 -38.667 -61 -85.334 -61 -140.001v-129h-96v-73h96v-1200h94v1200h123v73h-123v129z" />
    <glyph glyph-name="g" unicode="g" horiz-adv-x="510" 
d="M363 230c0 -28 -9.33301 -55.001 -28 -81.001c-19.333 -26 -43 -44 -71 -54c-13.333 -4.66699 -26.666 -7 -39.999 -7c-26.667 0 -49 9 -67 27s-27 40.667 -27 68v841c0 26.667 9 49.334 27 68.001c18 18 40.333 27 67 27c13.333 0 26.666 -2.33301 39.999 -7
c28 -10.667 51.667 -28.667 71 -54c18.667 -26 28 -53 28 -81v-747zM66 1189c-21.333 -22.667 -32.001 -53.667 -32.001 -93v-986c0 -38.667 10.667 -69.667 32 -93c22 -22.667 51.333 -34 88 -34c24 0 49 5 75 15c18 6 36.333 15 55 27l79 48v-308
c0 -29.333 -11.333 -54.333 -34 -75s-50 -31 -82 -31s-59.333 10.333 -82 31s-34 45.667 -34 75v27h-96v-27c0 -47.333 20.667 -88 62 -122s91.333 -51 150 -51s108.667 17 150 51c42 34 63 74.667 63 122v1476h-97v-107l-79 48c-19.333 12 -37.666 21 -54.999 27
c-26.667 9.33301 -51.667 14 -75 14c-36.667 0 -66 -11.333 -88 -34z" />
    <glyph glyph-name="h" unicode="h" horiz-adv-x="534" 
d="M287 1195c-18 -6 -36.333 -14.668 -55 -26.001l-78 -47v522h-94v-1649h94l1 976c0 26.667 9 52.334 27 77.001c18.667 24.667 41.667 42 69 52c13.333 4.66699 26.666 7 39.999 7c26.667 0 48.667 -8.66699 66 -26s26 -39 26 -65v-1021h95v1091c0 38 -10.667 68 -32 90
s-50 33 -86 33c-23.333 0 -47.666 -4.66699 -72.999 -14z" />
    <glyph glyph-name="i" unicode="i" horiz-adv-x="195" 
d="M57 1376h93v160h-93v-160zM53 -14h93v1216h-93v-1216z" />
    <glyph glyph-name="j" unicode="j" horiz-adv-x="260" 
d="M90 -111c0 -32 -11.333 -59.333 -34 -82c-22.667 -23.333 -50 -35 -82 -35v-97c58.667 0 109 21 151 63c41.333 42 62 92.333 62 151v1322h-97v-1322zM94 1376h93v127h-93v-127z" />
    <glyph glyph-name="k" unicode="k" horiz-adv-x="580" 
d="M75 1603v-1606h93v777l48 -121l52 -144l178 -512h109l-287 824l189 556h-88l-23 -75l-178 -458v759h-93z" />
    <glyph glyph-name="l" unicode="l" horiz-adv-x="191" 
d="M146 5v1591h-96v-1591h96z" />
    <glyph glyph-name="m" unicode="m" horiz-adv-x="830" 
d="M659 1183c-40 0 -83.999 -19.002 -131.999 -57.002l-53 -41l-29 50c-14.667 24.667 -37.667 40.334 -69 47.001c-31.333 6 -66 2.66699 -104 -10c-17.333 -6 -35.333 -14.333 -54 -25l-76 -46v101h-94v-1207h94v960c0 26.667 9.33301 52 28 76
c18 24.667 40.667 41.667 68 51c13.333 4 26.333 6 39 6c26 0 47.667 -8.33301 65 -25c18 -17.333 27 -38.666 27 -63.999v-1004h93v997l4 10c17.333 39.333 45.666 66 84.999 80c13.333 4 26.333 6 39 6c26 0 47.667 -8.33301 65 -25c18 -17.333 27 -38.666 27 -63.999
v-1004h93v1072c0 49.333 -17.667 83.666 -53 102.999c-21.333 8.66699 -42.333 13 -63 13z" />
    <glyph glyph-name="n" unicode="n" horiz-adv-x="496" 
d="M266 1177c-16.667 -6 -34 -14.668 -52 -26.001l-73 -44v99h-90v-1210h90v967c0 26 8.66699 51 26 75c18 24 40 40.333 66 49c12.667 4.66699 25 7 37 7c25.333 0 46.333 -8 63 -24c16.667 -17.333 25 -38.666 25 -63.999v-1010h90v1078c0 35.333 -10.333 63.333 -31 84
c-20 20.667 -47 31 -81 31c-22 0 -45.333 -4 -70 -12z" />
    <glyph glyph-name="o" unicode="o" horiz-adv-x="436" 
d="M316 198c0 -29.333 -10 -54.666 -30 -75.999c-19.333 -20.667 -43 -31 -71 -31c-27.333 0 -51 10.333 -71 31c-19.333 21.333 -29 46.666 -29 75.999v822c0 30 9.66699 55.333 29 76c20 20.667 43.667 31 71 31c28 0 51.667 -10.333 71 -31c20 -20.667 30 -46 30 -76
v-822zM86 1160c-36 -38.667 -54 -85.334 -54 -140.001v-822c0 -54.667 18 -101.334 54 -140.001s79 -58 129 -58c50.667 0 94 19.333 130 58s54 85.334 54 140.001v822c0 54.667 -18 101.334 -54 140.001s-79.333 58 -130 58c-50 0 -93 -19.333 -129 -58z" />
    <glyph glyph-name="p" unicode="p" horiz-adv-x="496" 
d="M360 188c0 -26.667 -8.66699 -48.999 -26 -66.999s-39.333 -27 -66 -27c-12.667 0 -25.667 2.33301 -39 7c-27.333 10 -50 27.667 -68 53c-18.667 25.333 -28 52 -28 80v735c0 27.333 9.33301 53.666 28 78.999c18 25.333 40.667 43 68 53c13.333 5.33301 26.333 8 39 8
c26.667 0 48.667 -9 66 -27s26 -40.333 26 -67v-827zM336 -8.99902c36.667 0 65.334 11.332 86.001 33.999s31 53 31 91v970c0 38.667 -10.333 69.334 -31 92.001c-20.667 22 -49.334 33 -86.001 33c-22.667 0 -46.667 -4.66699 -72 -14c-17.333 -6 -35.333 -14.667 -54 -26
l-77 -48v85h-94v-1609h94v481l77 -48c18 -11.333 36 -20.333 54 -27c25.333 -9.33301 49.333 -14 72 -14z" />
    <glyph glyph-name="q" unicode="q" horiz-adv-x="496" 
d="M133 1015c0 26.667 8.66699 48.999 26 66.999s39 27 65 27c13.333 0 26.333 -2.66699 39 -8c27.333 -10 50.333 -27.667 69 -53c18 -25.333 27 -51.666 27 -78.999v-735c0 -28 -9 -54.667 -27 -80c-18.667 -25.333 -41.667 -43 -69 -53
c-12.667 -4.66699 -25.667 -7 -39 -7c-26 0 -47.667 9 -65 27s-26 40.333 -26 67v827zM229 4.99902c17.333 6.66699 35.332 15.668 53.999 27.001l77 48v-481h93v1609h-93v-85l-77 48c-18.667 11.333 -36.667 20 -54 26c-25.333 9.33301 -49.666 14 -72.999 14
c-36 0 -64.667 -11 -86 -33c-20.667 -22.667 -31 -53.334 -31 -92.001v-970c0 -38 10.333 -68.333 31 -91c21.333 -22.667 50 -34 86 -34c22.667 0 47 4.66699 73 14z" />
    <glyph glyph-name="r" unicode="r" horiz-adv-x="482" 
d="M262 1177c-16.667 -6.66699 -34.002 -15.333 -52.002 -26l-74 -45v100h-89v-1206h89l1 959c0 26.667 8.66699 52 26 76s39 40.667 65 50c12.667 4.66699 25.334 7 38.001 7c24 0 44.333 -8 61 -24s25.334 -36 26.001 -60h90v63c0 36.667 -10 65.667 -30 87
s-47.333 32 -82 32c-22 0 -45 -4.33301 -69 -13z" />
    <glyph glyph-name="s" unicode="s" horiz-adv-x="436" 
d="M410 889v130c0 55.333 -19 102.666 -57 141.999s-83.667 59 -137 59s-98.666 -19.667 -135.999 -59c-38 -39.333 -57 -86.666 -57 -141.999l1 -242l298 -335v-259c0 -30 -10.333 -55.667 -31 -77s-45.667 -32 -75 -32c-28.667 0 -53.334 10.667 -74.001 32
c-21.333 21.333 -32 47 -32 77v189h-87v-189c0 -55.333 19 -102.666 57 -141.999c37.333 -39.333 82.666 -59 135.999 -59s99 19.667 137 59s57 86.666 57 141.999v300l-300 326v210c0 30 10.667 55.667 32 77c20.667 20.667 45.334 31 74.001 31
c29.333 0 54.333 -10.333 75 -31c20.667 -21.333 31 -47 31 -77v-130h88z" />
    <glyph glyph-name="t" unicode="t" horiz-adv-x="278" 
d="M179 1597l-89 0.000976562v-353h-73v-73h73v-1022c0 -41.333 11.333 -79 34 -113c22.667 -32.667 52.667 -56.334 90 -71.001v104c-23.333 21.333 -35 48 -35 80v1022h83v73h-83v353z" />
    <glyph glyph-name="u" unicode="u" horiz-adv-x="473" 
d="M225 2c15.333 6.66699 31.332 15.334 47.999 26.001l67 46v-102h82v1239h-82l-1 -990c0 -26.667 -8 -52.334 -24 -77.001c-16 -24 -36 -41 -60 -51c-11.333 -4.66699 -22.666 -7 -33.999 -7c-22.667 0 -41.667 8.66699 -57 26s-23 39 -23 65v1034h-82v-1103
c0 -36.667 9.33301 -65.667 28 -87c18 -21.333 43 -32 75 -32c20 0 41 4.33301 63 13z" />
    <glyph glyph-name="v" unicode="v" horiz-adv-x="431" 
d="M333 1207l-117 -1170l-116 1170h-85l105 -1210h193l105 1210h-85z" />
    <glyph glyph-name="w" unicode="w" horiz-adv-x="761" 
d="M654 1202l-117 -1169l-115 1158l1 11h-87l1 -11l-116 -1158l-117 1169h-84l105 -1209h193l61 711l62 -711h193l105 1209h-85z" />
    <glyph glyph-name="x" unicode="x" horiz-adv-x="431" 
d="M324 1211l-108 -527l-109 527h-87l152 -610l-152 -611h87l109 493l108 -493h88l-152 611l152 610h-88z" />
    <glyph glyph-name="y" unicode="y" horiz-adv-x="445" 
d="M109 1205h-84l155 -1335c0 -30.667 -10 -56.667 -30 -78c-20 -20.667 -44.667 -31 -74 -31v-87c52.667 0 97.667 19 135 57c37.333 37.333 56 82.333 56 135l147 1339h-84l-109 -1067z" />
    <glyph glyph-name="z" unicode="z" horiz-adv-x="464" 
d="M74 1211v-87h261l-328 -1129h326v88h-221l328 1128h-366z" />
    <glyph glyph-name="braceleft" unicode="{" horiz-adv-x="524" 
d="M365 1465h20.998l3 -5c-8 -113.333 -13 -170 -15 -170c-63.333 103.333 -96.666 64.333 -99.999 -117c-2 -41.333 -3 -101.333 -3 -180v-174c-1.33301 -142.667 -19 -230.667 -53 -264c-2 -3.33301 -3.33301 -5 -4 -5v-5c16 0 32 -40.667 48 -122c6 -42 9 -89.333 9 -142
v-184c0 -133.333 3.66699 -213.333 11 -240c-3.33301 -85.333 23 -101 79 -47c6 0 10 -33.333 12 -100c0.666992 0 2.66699 -23.333 6 -70l-3 -5h-21c-91.333 0 -142.666 50.333 -153.999 151c-5.33301 36.667 -8 91.667 -8 165v193c0 173.333 -10 267.666 -30 282.999
c-10.667 15.333 -16 25 -16 29v188l25 43c14 32.667 21 117.334 21 254.001v208c0 157.333 15 250 45 278c20 25.333 62.333 38 127 38z" />
    <glyph glyph-name="bar" unicode="|" horiz-adv-x="1024" 
d="M424 1565h83v-1751h-83v1751z" />
    <glyph glyph-name="braceright" unicode="}" horiz-adv-x="520" 
d="M298 1427c30 -28 44.998 -120.667 44.998 -278v-208c0 -136.667 7 -221.334 21 -254.001l25 -43v-188c0 -4 -5.33301 -13.667 -16 -29c-20 -15.333 -30 -109.666 -30 -282.999v-193c0 -73.333 -2.66699 -128.333 -8 -165c-11.333 -100.667 -62.666 -151 -153.999 -151
h-21l-3 5c3.33301 46.667 5.33301 70 6 70c2 66.667 6 100 12 100c56 -54 82.333 -38.333 79 47c7.33301 26.667 11 106.667 11 240v184c0 52.667 3 100 9 142c16 81.333 32 122 48 122v5c-0.666992 0 -2 1.66699 -4 5c-34 33.333 -51.667 121.333 -53 264v174
c0 78.667 -1 138.667 -3 180c-3.33301 181.333 -36.666 220.333 -99.999 117c-2 0 -7 56.667 -15 170l3 5h21c64.667 0 107 -12.667 127 -38z" />
    <glyph glyph-name="asciitilde" unicode="~" horiz-adv-x="1336" 
d="M501 839h23c42.667 0 111 -16 205 -48c29.333 -7.33301 51 -11 65 -11h15c48 0 108.667 19 182 57h6l-28 -119c-48 -28.667 -102.667 -47.667 -164 -57c-12.667 0 -22.667 -0.666992 -30 -2c-34.667 0 -99 15.333 -193 46c-36.667 10 -64 15 -82 15h-12
c-2 0 -3 0.666992 -3 2c-49.333 0 -114 -20.333 -194 -61h-6l28 121c74 38 136.667 57 188 57z" />
    <glyph glyph-name="exclamdown" unicode="&#xa1;" 
d="M282 832v174c0 20 7.33301 37.667 22 53c14 16 32.333 26.667 55 32v-325zM507 528l0.000976562 -215c0 -19.333 -7.33301 -37 -22 -53c-14.667 -15.333 -33.334 -26 -56.001 -32v369zM600.001 898l-0.000976562 108c0 40.667 -16.333 76.667 -49 108
s-73.334 50 -122.001 56v81h-70v-81c-48.667 -6 -89 -24.667 -121 -56c-32.667 -31.333 -49 -67.333 -49 -108l1 -200l169 -148v-430c-22.667 6 -41 16.667 -55 32c-14.667 16 -22 33.667 -22 53v157h-93v-157c0 -40.667 16.333 -76.667 49 -108
c32 -30.667 72.333 -49.334 121 -56.001v-154h70v154c48.667 6.66699 89.334 25.334 122.001 56.001c32.667 31.333 49 67.333 49 108v249l-171 145v384c22.667 -5.33301 41.334 -16 56.001 -32c14.667 -15.333 22 -33 22 -53v-108h93z" />
    <glyph glyph-name="cent" unicode="&#xa2;" 
d="M346 942v167.001c0 19.333 7.33301 36.333 22 51c14 15.333 32.333 25.666 55 30.999v-313zM571 649.001l0.000976562 -207c0 -18.667 -7.33301 -35.667 -22 -51c-14.667 -14.667 -33.334 -25 -56.001 -31v355zM664.001 1005l-0.000976562 103.999
c0 39.333 -16.333 74 -49 104s-73.334 48 -122.001 54v78h-70v-78c-48.667 -6 -89 -24 -121 -54c-32.667 -30 -49 -64.667 -49 -104l1 -192l169 -143v-414c-22.667 6 -41 16.333 -55 31c-14.667 15.333 -22 32.333 -22 51v151h-93v-151c0 -39.333 16.333 -74 49 -104
c32 -29.333 72.333 -47.333 121 -54v-148h70v148c48.667 6.66699 89.334 24.667 122.001 54c32.667 30 49 64.667 49 104v240l-171 139v370c22.667 -5.33301 41.334 -15.666 56.001 -30.999c14.667 -14.667 22 -31.667 22 -51v-104h93z" />
    <glyph glyph-name="sterling" unicode="&#xa3;" 
d="M346 942v167.001c0 19.333 7.33301 36.333 22 51c14 15.333 32.333 25.666 55 30.999v-313zM571 649.001l0.000976562 -207c0 -18.667 -7.33301 -35.667 -22 -51c-14.667 -14.667 -33.334 -25 -56.001 -31v355zM664.001 1005l-0.000976562 103.999
c0 39.333 -16.333 74 -49 104s-73.334 48 -122.001 54v78h-70v-78c-48.667 -6 -89 -24 -121 -54c-32.667 -30 -49 -64.667 -49 -104l1 -192l169 -143v-414c-22.667 6 -41 16.333 -55 31c-14.667 15.333 -22 32.333 -22 51v151h-93v-151c0 -39.333 16.333 -74 49 -104
c32 -29.333 72.333 -47.333 121 -54v-148h70v148c48.667 6.66699 89.334 24.667 122.001 54c32.667 30 49 64.667 49 104v240l-171 139v370c22.667 -5.33301 41.334 -15.666 56.001 -30.999c14.667 -14.667 22 -31.667 22 -51v-104h93z" />
    <glyph glyph-name="currency" unicode="&#xa4;" 
d="M346 942v167.001c0 19.333 7.33301 36.333 22 51c14 15.333 32.333 25.666 55 30.999v-313zM571 649.001l0.000976562 -207c0 -18.667 -7.33301 -35.667 -22 -51c-14.667 -14.667 -33.334 -25 -56.001 -31v355zM664.001 1005l-0.000976562 103.999
c0 39.333 -16.333 74 -49 104s-73.334 48 -122.001 54v78h-70v-78c-48.667 -6 -89 -24 -121 -54c-32.667 -30 -49 -64.667 -49 -104l1 -192l169 -143v-414c-22.667 6 -41 16.333 -55 31c-14.667 15.333 -22 32.333 -22 51v151h-93v-151c0 -39.333 16.333 -74 49 -104
c32 -29.333 72.333 -47.333 121 -54v-148h70v148c48.667 6.66699 89.334 24.667 122.001 54c32.667 30 49 64.667 49 104v240l-171 139v370c22.667 -5.33301 41.334 -15.666 56.001 -30.999c14.667 -14.667 22 -31.667 22 -51v-104h93z" />
    <glyph glyph-name="yen" unicode="&#xa5;" horiz-adv-x="800" 
d="M565 1290l-167 -751l-167 751h-85l194 -788h-233v-58h247v-127h-247v-58h247v-259h89v259h247v58h-247l1 127h246v58h-235l195 788h-85z" />
    <glyph glyph-name="section" unicode="&#xa7;" 
d="M282 832v174c0 20 7.33301 37.667 22 53c14 16 32.333 26.667 55 32v-325zM507 528l0.000976562 -215c0 -19.333 -7.33301 -37 -22 -53c-14.667 -15.333 -33.334 -26 -56.001 -32v369zM600.001 898l-0.000976562 108c0 40.667 -16.333 76.667 -49 108
s-73.334 50 -122.001 56v81h-70v-81c-48.667 -6 -89 -24.667 -121 -56c-32.667 -31.333 -49 -67.333 -49 -108l1 -200l169 -148v-430c-22.667 6 -41 16.667 -55 32c-14.667 16 -22 33.667 -22 53v157h-93v-157c0 -40.667 16.333 -76.667 49 -108
c32 -30.667 72.333 -49.334 121 -56.001v-154h70v154c48.667 6.66699 89.334 25.334 122.001 56.001c32.667 31.333 49 67.333 49 108v249l-171 145v384c22.667 -5.33301 41.334 -16 56.001 -32c14.667 -15.333 22 -33 22 -53v-108h93z" />
    <glyph glyph-name="dieresis" unicode="&#xa8;" horiz-adv-x="450" 
d="M259 1370v-119h75v119h-75zM93 1370v-119h76v119h-76z" />
    <glyph glyph-name="copyright" unicode="&#xa9;" 
d="M354 1036c-25.333 -26 -38 -57.333 -38 -94v-556c0 -36.667 12.667 -68 38 -94s56 -39 92 -39c36.667 0 67.667 13 93 39s38 57.333 38 94v25h-59v-25c0 -20 -7 -37 -21 -51c-14 -14.667 -31 -22 -51 -22c-19.333 0 -36 7.33301 -50 22c-14 14 -21 31 -21 51v556
c0 20 7 37 21 51c14 14.667 30.667 22 50 22c20 0 37 -7.33301 51 -22c14 -14 21 -31 21 -51v-16h59v16c0 36.667 -12.667 68 -38 94s-56.333 39 -93 39c-36 0 -66.667 -13 -92 -39zM271 1182c-48 -43.333 -72 -95 -72 -155v-726c0 -60 24 -111.667 72 -155
c48.667 -42.667 107 -64 175 -64c68.667 0 127.334 21.333 176.001 64c48 43.333 72 95 72 155v726c0 60 -24 111.667 -72 155c-48.667 42.667 -107.334 64 -176.001 64c-68 0 -126.333 -21.333 -175 -64zM232 108c-59.333 53.333 -89 117.666 -89 192.999v726
c0 75.333 29.667 139.666 89 192.999s130.666 80 213.999 80c84 0 155.667 -26.667 215 -80s89 -117.666 89 -192.999v-726c0 -75.333 -29.667 -139.666 -89 -192.999s-131 -80 -215 -80c-83.333 0 -154.666 26.667 -213.999 80z" />
    <glyph glyph-name="ordfeminine" unicode="&#xaa;" 
d="M346 942v167.001c0 19.333 7.33301 36.333 22 51c14 15.333 32.333 25.666 55 30.999v-313zM571 649.001l0.000976562 -207c0 -18.667 -7.33301 -35.667 -22 -51c-14.667 -14.667 -33.334 -25 -56.001 -31v355zM664.001 1005l-0.000976562 103.999
c0 39.333 -16.333 74 -49 104s-73.334 48 -122.001 54v78h-70v-78c-48.667 -6 -89 -24 -121 -54c-32.667 -30 -49 -64.667 -49 -104l1 -192l169 -143v-414c-22.667 6 -41 16.333 -55 31c-14.667 15.333 -22 32.333 -22 51v151h-93v-151c0 -39.333 16.333 -74 49 -104
c32 -29.333 72.333 -47.333 121 -54v-148h70v148c48.667 6.66699 89.334 24.667 122.001 54c32.667 30 49 64.667 49 104v240l-171 139v370c22.667 -5.33301 41.334 -15.666 56.001 -30.999c14.667 -14.667 22 -31.667 22 -51v-104h93z" />
    <glyph glyph-name="guillemotleft" unicode="&#xab;" 
d="M282 832v174c0 20 7.33301 37.667 22 53c14 16 32.333 26.667 55 32v-325zM507 528l0.000976562 -215c0 -19.333 -7.33301 -37 -22 -53c-14.667 -15.333 -33.334 -26 -56.001 -32v369zM600.001 898l-0.000976562 108c0 40.667 -16.333 76.667 -49 108
s-73.334 50 -122.001 56v81h-70v-81c-48.667 -6 -89 -24.667 -121 -56c-32.667 -31.333 -49 -67.333 -49 -108l1 -200l169 -148v-430c-22.667 6 -41 16.667 -55 32c-14.667 16 -22 33.667 -22 53v157h-93v-157c0 -40.667 16.333 -76.667 49 -108
c32 -30.667 72.333 -49.334 121 -56.001v-154h70v154c48.667 6.66699 89.334 25.334 122.001 56.001c32.667 31.333 49 67.333 49 108v249l-171 145v384c22.667 -5.33301 41.334 -16 56.001 -32c14.667 -15.333 22 -33 22 -53v-108h93z" />
    <glyph glyph-name="logicalnot" unicode="&#xac;" 
d="M282 832v174c0 20 7.33301 37.667 22 53c14 16 32.333 26.667 55 32v-325zM507 528l0.000976562 -215c0 -19.333 -7.33301 -37 -22 -53c-14.667 -15.333 -33.334 -26 -56.001 -32v369zM600.001 898l-0.000976562 108c0 40.667 -16.333 76.667 -49 108
s-73.334 50 -122.001 56v81h-70v-81c-48.667 -6 -89 -24.667 -121 -56c-32.667 -31.333 -49 -67.333 -49 -108l1 -200l169 -148v-430c-22.667 6 -41 16.667 -55 32c-14.667 16 -22 33.667 -22 53v157h-93v-157c0 -40.667 16.333 -76.667 49 -108
c32 -30.667 72.333 -49.334 121 -56.001v-154h70v154c48.667 6.66699 89.334 25.334 122.001 56.001c32.667 31.333 49 67.333 49 108v249l-171 145v384c22.667 -5.33301 41.334 -16 56.001 -32c14.667 -15.333 22 -33 22 -53v-108h93z" />
    <glyph glyph-name="registered" unicode="&#xae;" 
d="M297 1300c-36.667 -33.333 -55 -73.666 -55 -120.999v-566c0 -47.333 18.333 -87.666 55 -120.999s80.667 -50 132 -50c52 0 96.333 16.667 133 50s55 73.666 55 120.999v566c0 47.333 -18.333 87.666 -55 120.999c-36.667 34 -81 51 -133 51
c-51.333 0 -95.333 -17 -132 -51zM267 462c-44.667 42 -67 92.333 -67 151v566c0 58.667 22.333 109 67 151c45.333 41.333 99.333 62 162 62c63.333 0 117.666 -20.667 162.999 -62c44.667 -42 67 -92.333 67 -151v-566c0 -58.667 -22.333 -109 -67 -151
c-45.333 -41.333 -99.666 -62 -162.999 -62c-62.667 0 -116.667 20.667 -162 62zM395 1158c31.333 -2 47.667 -10.334 49 -25.001v-131c0 -7.33301 -16.333 -21.666 -49 -42.999v199zM535.001 565.999l-64.001 365c30 27.333 45 51 45 71v131
c-5.33301 38.667 -20.666 65 -45.999 79c-16.667 9.33301 -41.667 14 -75 14h-71v-660h71v313c4 2 8.33301 4.33301 13 7l56 -320h71z" />
    <glyph glyph-name="plusminus" unicode="&#xb1;" 
d="M346 942v167.001c0 19.333 7.33301 36.333 22 51c14 15.333 32.333 25.666 55 30.999v-313zM571 649.001l0.000976562 -207c0 -18.667 -7.33301 -35.667 -22 -51c-14.667 -14.667 -33.334 -25 -56.001 -31v355zM664.001 1005l-0.000976562 103.999
c0 39.333 -16.333 74 -49 104s-73.334 48 -122.001 54v78h-70v-78c-48.667 -6 -89 -24 -121 -54c-32.667 -30 -49 -64.667 -49 -104l1 -192l169 -143v-414c-22.667 6 -41 16.333 -55 31c-14.667 15.333 -22 32.333 -22 51v151h-93v-151c0 -39.333 16.333 -74 49 -104
c32 -29.333 72.333 -47.333 121 -54v-148h70v148c48.667 6.66699 89.334 24.667 122.001 54c32.667 30 49 64.667 49 104v240l-171 139v370c22.667 -5.33301 41.334 -15.666 56.001 -30.999c14.667 -14.667 22 -31.667 22 -51v-104h93z" />
    <glyph glyph-name="acute" unicode="&#xb4;" horiz-adv-x="450" 
d="M267 1251l-265 179l124 3l203 -182h-62z" />
    <glyph glyph-name="mu" unicode="&#xb5;" 
d="M346 942v167.001c0 19.333 7.33301 36.333 22 51c14 15.333 32.333 25.666 55 30.999v-313zM571 649.001l0.000976562 -207c0 -18.667 -7.33301 -35.667 -22 -51c-14.667 -14.667 -33.334 -25 -56.001 -31v355zM664.001 1005l-0.000976562 103.999
c0 39.333 -16.333 74 -49 104s-73.334 48 -122.001 54v78h-70v-78c-48.667 -6 -89 -24 -121 -54c-32.667 -30 -49 -64.667 -49 -104l1 -192l169 -143v-414c-22.667 6 -41 16.333 -55 31c-14.667 15.333 -22 32.333 -22 51v151h-93v-151c0 -39.333 16.333 -74 49 -104
c32 -29.333 72.333 -47.333 121 -54v-148h70v148c48.667 6.66699 89.334 24.667 122.001 54c32.667 30 49 64.667 49 104v240l-171 139v370c22.667 -5.33301 41.334 -15.666 56.001 -30.999c14.667 -14.667 22 -31.667 22 -51v-104h93z" />
    <glyph glyph-name="paragraph" unicode="&#xb6;" 
d="M282 832v174c0 20 7.33301 37.667 22 53c14 16 32.333 26.667 55 32v-325zM507 528l0.000976562 -215c0 -19.333 -7.33301 -37 -22 -53c-14.667 -15.333 -33.334 -26 -56.001 -32v369zM600.001 898l-0.000976562 108c0 40.667 -16.333 76.667 -49 108
s-73.334 50 -122.001 56v81h-70v-81c-48.667 -6 -89 -24.667 -121 -56c-32.667 -31.333 -49 -67.333 -49 -108l1 -200l169 -148v-430c-22.667 6 -41 16.667 -55 32c-14.667 16 -22 33.667 -22 53v157h-93v-157c0 -40.667 16.333 -76.667 49 -108
c32 -30.667 72.333 -49.334 121 -56.001v-154h70v154c48.667 6.66699 89.334 25.334 122.001 56.001c32.667 31.333 49 67.333 49 108v249l-171 145v384c22.667 -5.33301 41.334 -16 56.001 -32c14.667 -15.333 22 -33 22 -53v-108h93z" />
    <glyph glyph-name="periodcentered" unicode="&#xb7;" 
d="M282 832v174c0 20 7.33301 37.667 22 53c14 16 32.333 26.667 55 32v-325zM507 528l0.000976562 -215c0 -19.333 -7.33301 -37 -22 -53c-14.667 -15.333 -33.334 -26 -56.001 -32v369zM600.001 898l-0.000976562 108c0 40.667 -16.333 76.667 -49 108
s-73.334 50 -122.001 56v81h-70v-81c-48.667 -6 -89 -24.667 -121 -56c-32.667 -31.333 -49 -67.333 -49 -108l1 -200l169 -148v-430c-22.667 6 -41 16.667 -55 32c-14.667 16 -22 33.667 -22 53v157h-93v-157c0 -40.667 16.333 -76.667 49 -108
c32 -30.667 72.333 -49.334 121 -56.001v-154h70v154c48.667 6.66699 89.334 25.334 122.001 56.001c32.667 31.333 49 67.333 49 108v249l-171 145v384c22.667 -5.33301 41.334 -16 56.001 -32c14.667 -15.333 22 -33 22 -53v-108h93z" />
    <glyph glyph-name="cedilla" unicode="&#xb8;" 
d="M282 832v174c0 20 7.33301 37.667 22 53c14 16 32.333 26.667 55 32v-325zM507 528l0.000976562 -215c0 -19.333 -7.33301 -37 -22 -53c-14.667 -15.333 -33.334 -26 -56.001 -32v369zM600.001 898l-0.000976562 108c0 40.667 -16.333 76.667 -49 108
s-73.334 50 -122.001 56v81h-70v-81c-48.667 -6 -89 -24.667 -121 -56c-32.667 -31.333 -49 -67.333 -49 -108l1 -200l169 -148v-430c-22.667 6 -41 16.667 -55 32c-14.667 16 -22 33.667 -22 53v157h-93v-157c0 -40.667 16.333 -76.667 49 -108
c32 -30.667 72.333 -49.334 121 -56.001v-154h70v154c48.667 6.66699 89.334 25.334 122.001 56.001c32.667 31.333 49 67.333 49 108v249l-171 145v384c22.667 -5.33301 41.334 -16 56.001 -32c14.667 -15.333 22 -33 22 -53v-108h93z" />
    <glyph glyph-name="ordmasculine" unicode="&#xba;" 
d="M346 942v167.001c0 19.333 7.33301 36.333 22 51c14 15.333 32.333 25.666 55 30.999v-313zM571 649.001l0.000976562 -207c0 -18.667 -7.33301 -35.667 -22 -51c-14.667 -14.667 -33.334 -25 -56.001 -31v355zM664.001 1005l-0.000976562 103.999
c0 39.333 -16.333 74 -49 104s-73.334 48 -122.001 54v78h-70v-78c-48.667 -6 -89 -24 -121 -54c-32.667 -30 -49 -64.667 -49 -104l1 -192l169 -143v-414c-22.667 6 -41 16.333 -55 31c-14.667 15.333 -22 32.333 -22 51v151h-93v-151c0 -39.333 16.333 -74 49 -104
c32 -29.333 72.333 -47.333 121 -54v-148h70v148c48.667 6.66699 89.334 24.667 122.001 54c32.667 30 49 64.667 49 104v240l-171 139v370c22.667 -5.33301 41.334 -15.666 56.001 -30.999c14.667 -14.667 22 -31.667 22 -51v-104h93z" />
    <glyph glyph-name="guillemotright" unicode="&#xbb;" 
d="M282 832v174c0 20 7.33301 37.667 22 53c14 16 32.333 26.667 55 32v-325zM507 528l0.000976562 -215c0 -19.333 -7.33301 -37 -22 -53c-14.667 -15.333 -33.334 -26 -56.001 -32v369zM600.001 898l-0.000976562 108c0 40.667 -16.333 76.667 -49 108
s-73.334 50 -122.001 56v81h-70v-81c-48.667 -6 -89 -24.667 -121 -56c-32.667 -31.333 -49 -67.333 -49 -108l1 -200l169 -148v-430c-22.667 6 -41 16.667 -55 32c-14.667 16 -22 33.667 -22 53v157h-93v-157c0 -40.667 16.333 -76.667 49 -108
c32 -30.667 72.333 -49.334 121 -56.001v-154h70v154c48.667 6.66699 89.334 25.334 122.001 56.001c32.667 31.333 49 67.333 49 108v249l-171 145v384c22.667 -5.33301 41.334 -16 56.001 -32c14.667 -15.333 22 -33 22 -53v-108h93z" />
    <glyph glyph-name="questiondown" unicode="&#xbf;" horiz-adv-x="500" 
d="M279 920l-0.00195312 132h-79l1 -162l138 -409v-288c0 -28.667 -9 -53.334 -27 -74.001c-19.333 -20 -42.333 -30 -69 -30s-49.667 10 -69 30c-18 20.667 -27 45.334 -27 74.001v220h-81v-220c0 -53.333 17.333 -98.666 52 -135.999c34.667 -38 76.334 -57 125.001 -57
s90.334 19 125.001 57c34.667 37.333 52 82.666 52 135.999v327zM202.998 1114h80v135h-80v-135z" />
    <glyph glyph-name="Agrave" unicode="&#xc0;" horiz-adv-x="472" 
d="M140 1604l-141 -1604h84l23 259h259l23 -259h84l-141 1604h-191zM225 1551h22l108 -1198h-239zM180 1611l89 92l103 -2l-137 -90h-55z" />
    <glyph glyph-name="Aacute" unicode="&#xc1;" horiz-adv-x="472" 
d="M140 1604l-141 -1604h84l23 259h259l23 -259h84l-141 1604h-191zM225 1551h22l108 -1198h-239zM226 1611l-136 90l103 2l89 -92h-56z" />
    <glyph glyph-name="Acircumflex" unicode="&#xc2;" horiz-adv-x="472" 
d="M140 1604l-141 -1604h84l23 259h259l23 -259h84l-141 1604h-191zM225 1551h22l108 -1198h-239zM222 1720l46 1l149 -150h-45l-150 113l-150 -113h-45l149 150z" />
    <glyph glyph-name="Atilde" unicode="&#xc3;" horiz-adv-x="472" 
d="M140 1604l-141 -1604h84l23 259h259l23 -259h84l-141 1604h-191zM225 1551h22l108 -1198h-239zM188 1710l8.99902 0.000976562c17.333 0 45 -8 83 -24c12 -3.33301 21 -5 27 -5h6c19.333 0 44 9.33301 74 28h2l-11 -59c-20 -14.667 -42.333 -24.334 -67 -29.001
c-5.33301 0 -9.33301 -0.333008 -12 -1c-14 0 -40 7.66699 -78 23c-15.333 5.33301 -26.666 8 -33.999 8h-5c-0.666992 0 -1 0.333008 -1 1c-20 0 -46.333 -10.333 -79 -31h-2l11 61c30 18.667 55.667 28 77 28z" />
    <glyph glyph-name="Adieresis" unicode="&#xc4;" 
d="M346 942v167.001c0 19.333 7.33301 36.333 22 51c14 15.333 32.333 25.666 55 30.999v-313zM571 649.001l0.000976562 -207c0 -18.667 -7.33301 -35.667 -22 -51c-14.667 -14.667 -33.334 -25 -56.001 -31v355zM664.001 1005l-0.000976562 103.999
c0 39.333 -16.333 74 -49 104s-73.334 48 -122.001 54v78h-70v-78c-48.667 -6 -89 -24 -121 -54c-32.667 -30 -49 -64.667 -49 -104l1 -192l169 -143v-414c-22.667 6 -41 16.333 -55 31c-14.667 15.333 -22 32.333 -22 51v151h-93v-151c0 -39.333 16.333 -74 49 -104
c32 -29.333 72.333 -47.333 121 -54v-148h70v148c48.667 6.66699 89.334 24.667 122.001 54c32.667 30 49 64.667 49 104v240l-171 139v370c22.667 -5.33301 41.334 -15.666 56.001 -30.999c14.667 -14.667 22 -31.667 22 -51v-104h93z" />
    <glyph glyph-name="Aring" unicode="&#xc5;" 
d="M346 942v167.001c0 19.333 7.33301 36.333 22 51c14 15.333 32.333 25.666 55 30.999v-313zM571 649.001l0.000976562 -207c0 -18.667 -7.33301 -35.667 -22 -51c-14.667 -14.667 -33.334 -25 -56.001 -31v355zM664.001 1005l-0.000976562 103.999
c0 39.333 -16.333 74 -49 104s-73.334 48 -122.001 54v78h-70v-78c-48.667 -6 -89 -24 -121 -54c-32.667 -30 -49 -64.667 -49 -104l1 -192l169 -143v-414c-22.667 6 -41 16.333 -55 31c-14.667 15.333 -22 32.333 -22 51v151h-93v-151c0 -39.333 16.333 -74 49 -104
c32 -29.333 72.333 -47.333 121 -54v-148h70v148c48.667 6.66699 89.334 24.667 122.001 54c32.667 30 49 64.667 49 104v240l-171 139v370c22.667 -5.33301 41.334 -15.666 56.001 -30.999c14.667 -14.667 22 -31.667 22 -51v-104h93z" />
    <glyph glyph-name="AE" unicode="&#xc6;" horiz-adv-x="800" 
d="M225 1551h22l108 -1198h-239zM760 0v89h-265v811h265v67h-265v546h265v88h-359v-793l-70 796h-191l-141 -1604h84l23 259h259l23 -259h372z" />
    <glyph glyph-name="Ccedilla" unicode="&#xc7;" horiz-adv-x="515" 
d="M478 1427c0 54.667 -20.667 101.334 -62 140.001s-91 58 -149 58s-107.333 -19.333 -148 -58c-41.333 -38.667 -62 -85.334 -62 -140.001v-1248c0 -54 20.667 -100.333 62 -139c40.667 -38.667 90 -58 148 -58s107.667 19.333 149 58s62 85 62 139v104h-91v-119
c0 -31.333 -11.667 -58.333 -35 -81c-23.333 -22 -51.666 -33 -84.999 -33c-32.667 0 -60.667 11 -84 33c-23.333 22.667 -35 49.667 -35 81v1269c0 31.333 11.667 58.333 35 81c23.333 22 51.333 33 84 33c33.333 0 61.666 -11 84.999 -33
c23.333 -22.667 35 -49.667 35 -81v-109h91v103zM244 -29l-78 -143l57 -31l-36 -67l58 -32l114 210z" />
    <glyph glyph-name="Eacute" unicode="&#xc9;" horiz-adv-x="472" 
d="M180 1611l89 92l103 -2l-137 -90h-55zM162 900h265v67h-265v546h265v88h-359v-1601h359v89h-265v811z" />
    <glyph glyph-name="Ecircumflex" unicode="&#xca;" horiz-adv-x="451" 
d="M235 1722l46 1l149 -102h-65l-130 57l-130 -57h-65l149 102zM132 900h265v67h-265v546h265v88h-359v-1601h359v89h-265v811z" />
    <glyph glyph-name="Edieresis" unicode="&#xcb;" horiz-adv-x="445" 
d="M135 904h265v67h-265v546h265v88h-359v-1601h359v89h-265v811zM267 1723v-91h76v91h-76zM102 1723v-91h75v91h-75z" />
    <glyph glyph-name="Igrave" unicode="&#xcc;" horiz-adv-x="200" 
d="M52 0h87v1601h-87v-1601zM58 1611l41 92l103 -2l-89 -90h-55z" />
    <glyph glyph-name="Iacute" unicode="&#xcd;" horiz-adv-x="200" 
d="M132 1601h-87v-1601h87v1601zM71 1611l-89 90l103 2l41 -92h-55z" />
    <glyph glyph-name="Icircumflex" unicode="&#xce;" horiz-adv-x="200" 
d="M164 1601h-87v-1601h87v1601zM104 1654l-73 -54h-55l72 92l56 -1l55 1l72 -92h-55z" />
    <glyph glyph-name="Idieresis" unicode="&#xcf;" horiz-adv-x="252" 
d="M164 1601h-87v-1601h87v1601zM158 1723v-91h75v91h-75zM-8 1723v-91h76v91h-76z" />
    <glyph glyph-name="Ntilde" unicode="&#xd1;" 
d="M346 942v167.001c0 19.333 7.33301 36.333 22 51c14 15.333 32.333 25.666 55 30.999v-313zM571 649.001l0.000976562 -207c0 -18.667 -7.33301 -35.667 -22 -51c-14.667 -14.667 -33.334 -25 -56.001 -31v355zM664.001 1005l-0.000976562 103.999
c0 39.333 -16.333 74 -49 104s-73.334 48 -122.001 54v78h-70v-78c-48.667 -6 -89 -24 -121 -54c-32.667 -30 -49 -64.667 -49 -104l1 -192l169 -143v-414c-22.667 6 -41 16.333 -55 31c-14.667 15.333 -22 32.333 -22 51v151h-93v-151c0 -39.333 16.333 -74 49 -104
c32 -29.333 72.333 -47.333 121 -54v-148h70v148c48.667 6.66699 89.334 24.667 122.001 54c32.667 30 49 64.667 49 104v240l-171 139v370c22.667 -5.33301 41.334 -15.666 56.001 -30.999c14.667 -14.667 22 -31.667 22 -51v-104h93z" />
    <glyph glyph-name="Ograve" unicode="&#xd2;" horiz-adv-x="450" 
d="M344 166c0 -30.667 -11 -57 -33 -79c-22.667 -22 -49.667 -33 -81 -33c-32 0 -59 11 -81 33c-22.667 22 -34 48.333 -34 79v1242c0 30.667 11.333 57 34 79c22 22 49 33 81 33c31.333 0 58.333 -11 81 -33c22 -22 33 -48.333 33 -79v-1242zM87 1546
c-39.333 -38 -59 -84 -59 -138v-1242c0 -54 19.667 -100 59 -138c39.333 -38.667 87 -58 143 -58c55.333 0 102.666 19.333 141.999 58c39.333 38 59 84 59 138v1242c0 54 -19.667 100 -59 138c-39.333 38.667 -86.666 58 -141.999 58c-56 0 -103.667 -19.333 -143 -58z
M142 1611l40 92l104 -2l-89 -90h-55z" />
    <glyph glyph-name="Oacute" unicode="&#xd3;" horiz-adv-x="450" 
d="M344 166c0 -30.667 -11 -57 -33 -79c-22.667 -22 -49.667 -33 -81 -33c-32 0 -59 11 -81 33c-22.667 22 -34 48.333 -34 79v1242c0 30.667 11.333 57 34 79c22 22 49 33 81 33c31.333 0 58.333 -11 81 -33c22 -22 33 -48.333 33 -79v-1242zM87 1546
c-39.333 -38 -59 -84 -59 -138v-1242c0 -54 19.667 -100 59 -138c39.333 -38.667 87 -58 143 -58c55.333 0 102.666 19.333 141.999 58c39.333 38 59 84 59 138v1242c0 54 -19.667 100 -59 138c-39.333 38.667 -86.666 58 -141.999 58c-56 0 -103.667 -19.333 -143 -58z
M231 1611l-89 90l103 2l41 -92h-55z" />
    <glyph glyph-name="Ocircumflex" unicode="&#xd4;" horiz-adv-x="450" 
d="M344 166c0 -30.667 -11 -57 -33 -79c-22.667 -22 -49.667 -33 -81 -33c-32 0 -59 11 -81 33c-22.667 22 -34 48.333 -34 79v1242c0 30.667 11.333 57 34 79c22 22 49 33 81 33c31.333 0 58.333 -11 81 -33c22 -22 33 -48.333 33 -79v-1242zM87 1546
c-39.333 -38 -59 -84 -59 -138v-1242c0 -54 19.667 -100 59 -138c39.333 -38.667 87 -58 143 -58c55.333 0 102.666 19.333 141.999 58c39.333 38 59 84 59 138v1242c0 54 -19.667 100 -59 138c-39.333 38.667 -86.666 58 -141.999 58c-56 0 -103.667 -19.333 -143 -58z
M229 1664l-55 -56h-55l40 92l36 -1l-2 2l103 2l41 -92h-55z" />
    <glyph glyph-name="Otilde" unicode="&#xd5;" horiz-adv-x="450" 
d="M188 1710l8.99902 0.000976562c17.333 0 45 -8 83 -24c12 -3.33301 21 -5 27 -5h6c19.333 0 44 9.33301 74 28h2l-11 -59c-20 -14.667 -42.333 -24.334 -67 -29.001c-5.33301 0 -9.33301 -0.333008 -12 -1c-14 0 -40 7.66699 -78 23c-15.333 5.33301 -26.666 8 -33.999 8
h-5c-0.666992 0 -1 0.333008 -1 1c-20 0 -46.333 -10.333 -79 -31h-2l11 61c30 18.667 55.667 28 77 28zM373.999 166.001c0 -30.667 -11 -57 -33 -79c-22.667 -22 -49.667 -33 -81 -33c-32 0 -59 11 -81 33c-22.667 22 -34 48.333 -34 79v1242c0 30.667 11.333 57 34 79
c22 22 49 33 81 33c31.333 0 58.333 -11 81 -33c22 -22 33 -48.333 33 -79v-1242zM116.999 1546c-39.333 -38 -59 -84 -59 -138v-1242c0 -54 19.667 -100 59 -138c39.333 -38.667 87 -58 143 -58c55.333 0 102.666 19.333 141.999 58c39.333 38 59 84 59 138v1242
c0 54 -19.667 100 -59 138c-39.333 38.667 -86.666 58 -141.999 58c-56 0 -103.667 -19.333 -143 -58z" />
    <glyph glyph-name="Odieresis" unicode="&#xd6;" 
d="M346 942v167.001c0 19.333 7.33301 36.333 22 51c14 15.333 32.333 25.666 55 30.999v-313zM571 649.001l0.000976562 -207c0 -18.667 -7.33301 -35.667 -22 -51c-14.667 -14.667 -33.334 -25 -56.001 -31v355zM664.001 1005l-0.000976562 103.999
c0 39.333 -16.333 74 -49 104s-73.334 48 -122.001 54v78h-70v-78c-48.667 -6 -89 -24 -121 -54c-32.667 -30 -49 -64.667 -49 -104l1 -192l169 -143v-414c-22.667 6 -41 16.333 -55 31c-14.667 15.333 -22 32.333 -22 51v151h-93v-151c0 -39.333 16.333 -74 49 -104
c32 -29.333 72.333 -47.333 121 -54v-148h70v148c48.667 6.66699 89.334 24.667 122.001 54c32.667 30 49 64.667 49 104v240l-171 139v370c22.667 -5.33301 41.334 -15.666 56.001 -30.999c14.667 -14.667 22 -31.667 22 -51v-104h93z" />
    <glyph glyph-name="Oslash" unicode="&#xd8;" 
d="M569 195c0 -30.667 -12 -57 -36 -79c-23.333 -22 -52 -33 -86 -33c-33.333 0 -62 11 -86 33c-23.333 22 -35 48.333 -35 79v175l243 626v-801zM326 1430c0 30.667 11.667 57 35 79c24 22 52.667 33 86 33c34 0 62.667 -11 86 -33c24 -22 36 -48.333 36 -79v-175
l-243 -626v801zM782 1545l-87.999 30l-39 -99c-11.333 43.333 -36.333 79 -75 107s-83 42 -133 42c-58.667 0 -109 -19 -151 -57c-42 -38.667 -63 -84.667 -63 -138v-1039l-121 -311l89 -30l38 99c12 -43.333 37 -79 75 -107c39.333 -28 83.666 -42 132.999 -42
c59.333 0 110 19 152 57c42 38.667 63 84.667 63 138v1039z" />
    <glyph glyph-name="Ugrave" unicode="&#xd9;" horiz-adv-x="500" 
d="M178 1611l40 92l103 -2l-88 -90h-55zM50 193c0 -54 19.667 -100 59 -138c38.667 -38 85.667 -57 141 -57c54.667 0 101.667 19 141 57c38.667 38 58 84 58 138v1408h-86v-1408c0 -30.667 -11 -57 -33 -79s-48.667 -33 -80 -33s-58 11 -80 33
c-22.667 22 -34 48.333 -34 79v1408h-86v-1408z" />
    <glyph glyph-name="Uacute" unicode="&#xda;" horiz-adv-x="500" 
d="M276 1611l-88 90l103 2l40 -92h-55zM60 193c0 -54 19.667 -100 59 -138c38.667 -38 85.667 -57 141 -57c54.667 0 101.667 19 141 57c38.667 38 58 84 58 138v1408h-86v-1408c0 -30.667 -11 -57 -33 -79s-48.667 -33 -80 -33s-58 11 -80 33c-22.667 22 -34 48.333 -34 79
v1408h-86v-1408z" />
    <glyph glyph-name="Ucircumflex" unicode="&#xdb;" horiz-adv-x="500" 
d="M229 1664l-55 -56h-55l40 92l36 -1l-2 2l103 2l41 -92h-55zM50 193c0 -54 19.667 -100 59 -138c38.667 -38 85.667 -57 141 -57c54.667 0 101.667 19 141 57c38.667 38 58 84 58 138v1408h-86v-1408c0 -30.667 -11 -57 -33 -79s-48.667 -33 -80 -33s-58 11 -80 33
c-22.667 22 -34 48.333 -34 79v1408h-86v-1408z" />
    <glyph glyph-name="Udieresis" unicode="&#xdc;" 
d="M346 942v167.001c0 19.333 7.33301 36.333 22 51c14 15.333 32.333 25.666 55 30.999v-313zM571 649.001l0.000976562 -207c0 -18.667 -7.33301 -35.667 -22 -51c-14.667 -14.667 -33.334 -25 -56.001 -31v355zM664.001 1005l-0.000976562 103.999
c0 39.333 -16.333 74 -49 104s-73.334 48 -122.001 54v78h-70v-78c-48.667 -6 -89 -24 -121 -54c-32.667 -30 -49 -64.667 -49 -104l1 -192l169 -143v-414c-22.667 6 -41 16.333 -55 31c-14.667 15.333 -22 32.333 -22 51v151h-93v-151c0 -39.333 16.333 -74 49 -104
c32 -29.333 72.333 -47.333 121 -54v-148h70v148c48.667 6.66699 89.334 24.667 122.001 54c32.667 30 49 64.667 49 104v240l-171 139v370c22.667 -5.33301 41.334 -15.666 56.001 -30.999c14.667 -14.667 22 -31.667 22 -51v-104h93z" />
    <glyph glyph-name="germandbls" unicode="&#xdf;" 
d="M282 832v174c0 20 7.33301 37.667 22 53c14 16 32.333 26.667 55 32v-325zM507 528l0.000976562 -215c0 -19.333 -7.33301 -37 -22 -53c-14.667 -15.333 -33.334 -26 -56.001 -32v369zM600.001 898l-0.000976562 108c0 40.667 -16.333 76.667 -49 108
s-73.334 50 -122.001 56v81h-70v-81c-48.667 -6 -89 -24.667 -121 -56c-32.667 -31.333 -49 -67.333 -49 -108l1 -200l169 -148v-430c-22.667 6 -41 16.667 -55 32c-14.667 16 -22 33.667 -22 53v157h-93v-157c0 -40.667 16.333 -76.667 49 -108
c32 -30.667 72.333 -49.334 121 -56.001v-154h70v154c48.667 6.66699 89.334 25.334 122.001 56.001c32.667 31.333 49 67.333 49 108v249l-171 145v384c22.667 -5.33301 41.334 -16 56.001 -32c14.667 -15.333 22 -33 22 -53v-108h93z" />
    <glyph glyph-name="agrave" unicode="&#xe0;" horiz-adv-x="450" 
d="M331 73l-49 2.00098c-103.333 5.33301 -158.333 39.666 -165 102.999l-1 5v325c0 34.667 47.667 83 143 145l72 47v-627zM93 1158c-37.333 -37.333 -56.001 -81.999 -56.001 -133.999v-89l86 34v55c0 28.667 10 53 30 73c20 20.667 44.333 31 73 31s53 -10.333 73 -31
c20 -20 30 -44.333 30 -73v-243l-26 -12c-67.333 -32 -129.666 -75.333 -186.999 -130c-56.667 -54.667 -85 -98.334 -85 -131.001v-322c12 -79.333 41.667 -132.333 89 -159c33.333 -19.333 88.333 -29 165 -29h130v1026c0 52 -18.667 96.667 -56 134
c-36.667 36.667 -81 55 -133 55s-96.333 -18.333 -133 -55zM266.999 1251l-265 179l124 3l203 -182h-62z" />
    <glyph glyph-name="aacute" unicode="&#xe1;" horiz-adv-x="450" 
d="M331 73l-49 2.00098c-103.333 5.33301 -158.333 39.666 -165 102.999l-1 5v325c0 34.667 47.667 83 143 145l72 47v-627zM93 1158c-37.333 -37.333 -56.001 -81.999 -56.001 -133.999v-89l86 34v55c0 28.667 10 53 30 73c20 20.667 44.333 31 73 31s53 -10.333 73 -31
c20 -20 30 -44.333 30 -73v-243l-26 -12c-67.333 -32 -129.666 -75.333 -186.999 -130c-56.667 -54.667 -85 -98.334 -85 -131.001v-322c12 -79.333 41.667 -132.333 89 -159c33.333 -19.333 88.333 -29 165 -29h130v1026c0 52 -18.667 96.667 -56 134
c-36.667 36.667 -81 55 -133 55s-96.333 -18.333 -133 -55zM1.99902 1251l202 182l125 -3l-266 -179h-61z" />
    <glyph glyph-name="acircumflex" unicode="&#xe2;" horiz-adv-x="450" 
d="M331 73l-49 2.00098c-103.333 5.33301 -158.333 39.666 -165 102.999l-1 5v325c0 34.667 47.667 83 143 145l72 47v-627zM92 1158c-37.333 -37.333 -56.001 -81.999 -56.001 -133.999v-89l86 34v55c0 28.667 10 53 30 73c20 20.667 44.333 31 73 31s53 -10.333 73 -31
c20 -20 30 -44.333 30 -73v-243l-26 -12c-67.333 -32 -129.666 -75.333 -186.999 -130c-56.667 -54.667 -85 -98.334 -85 -131.001v-322c12 -79.333 41.667 -132.333 89 -159c33.333 -19.333 88.333 -29 165 -29h130v1026c0 52 -18.667 96.667 -56 134
c-36.667 36.667 -81 55 -133 55s-96.333 -18.333 -133 -55zM221.999 1400l46 1l149 -150h-45l-150 113l-150 -113h-45l149 150z" />
    <glyph glyph-name="atilde" unicode="&#xe3;" horiz-adv-x="450" 
d="M331 73l-49 2.00098c-103.333 5.33301 -158.333 39.666 -165 102.999l-1 5v325c0 34.667 47.667 83 143 145l72 47v-627zM93 1158c-37.333 -37.333 -56.001 -81.999 -56.001 -133.999v-89l86 34v55c0 28.667 10 53 30 73c20 20.667 44.333 31 73 31s53 -10.333 73 -31
c20 -20 30 -44.333 30 -73v-243l-26 -12c-67.333 -32 -129.666 -75.333 -186.999 -130c-56.667 -54.667 -85 -98.334 -85 -131.001v-322c12 -79.333 41.667 -132.333 89 -159c33.333 -19.333 88.333 -29 165 -29h130v1026c0 52 -18.667 96.667 -56 134
c-36.667 36.667 -81 55 -133 55s-96.333 -18.333 -133 -55zM165.999 1376h9.99805c16.667 0 44.334 -11 83.001 -33c12 -5.33301 20.667 -8 26 -8h6c19.333 0 44 13.333 74 40h3l-12 -83c-19.333 -20 -41.333 -33.333 -66 -40c-5.33301 0 -9.66602 -0.333008 -12.999 -1
c-14 0 -40 10.667 -78 32c-14.667 6.66699 -25.667 10 -33 10h-5c-0.666992 0 -1 0.666992 -1 2c-20 0 -46.333 -14.333 -79 -43h-2l11 84c30 26.667 55.333 40 76 40z" />
    <glyph glyph-name="adieresis" unicode="&#xe4;" horiz-adv-x="450" 
d="M331 73l-49 2.00098c-103.333 5.33301 -158.333 39.666 -165 102.999l-1 5v325c0 34.667 47.667 83 143 145l72 47v-627zM93 1158c-37.333 -37.333 -56.001 -81.999 -56.001 -133.999v-89l86 34v55c0 28.667 10 53 30 73c20 20.667 44.333 31 73 31s53 -10.333 73 -31
c20 -20 30 -44.333 30 -73v-243l-26 -12c-67.333 -32 -129.666 -75.333 -186.999 -130c-56.667 -54.667 -85 -98.334 -85 -131.001v-322c12 -79.333 41.667 -132.333 89 -159c33.333 -19.333 88.333 -29 165 -29h130v1026c0 52 -18.667 96.667 -56 134
c-36.667 36.667 -81 55 -133 55s-96.333 -18.333 -133 -55zM258.999 1370v-119h75v119h-75zM92.999 1370v-119h76v119h-76z" />
    <glyph glyph-name="aring" unicode="&#xe5;" horiz-adv-x="450" 
d="M331 73l-49 2.00098c-103.333 5.33301 -158.333 39.666 -165 102.999l-1 5v325c0 34.667 47.667 83 143 145l72 47v-627zM93 1158c-37.333 -37.333 -56.001 -81.999 -56.001 -133.999v-89l86 34v55c0 28.667 10 53 30 73c20 20.667 44.333 31 73 31s53 -10.333 73 -31
c20 -20 30 -44.333 30 -73v-243l-26 -12c-67.333 -32 -129.666 -75.333 -186.999 -130c-56.667 -54.667 -85 -98.334 -85 -131.001v-322c12 -79.333 41.667 -132.333 89 -159c33.333 -19.333 88.333 -29 165 -29h130v1026c0 52 -18.667 96.667 -56 134
c-36.667 36.667 -81 55 -133 55s-96.333 -18.333 -133 -55zM262.999 1346c0 -8.66699 -4 -16.334 -12 -23.001s-17.333 -10 -28 -10s-20 3.33301 -28 10s-12 14.334 -12 23.001v50c0 9.33301 4 17 12 23c8 6.66699 17.333 10 28 10s20 -3.33301 28 -10
c8 -6 12 -13.667 12 -23v-50zM163.999 1456c-16.667 -16 -25 -35 -25 -57v-67c0 -22 8.33301 -41 25 -57c16 -16 35.667 -24 59 -24s43 8 59 24c16.667 16 25 35 25 57v67c0 22 -8.33301 41 -25 57c-16 16 -35.667 24 -59 24s-43 -8 -59 -24z" />
    <glyph glyph-name="ae" unicode="&#xe6;" horiz-adv-x="755" 
d="M288 76c-102 4.66699 -156.333 38.334 -163 101.001l-1 5v321c0 34 47 82 141 144l70 45v-494c0 -4.66699 0.333008 -10.334 1 -17.001v-108zM419 1001c0 28.667 10 53.334 30 74.001s44 31 72 31c28.667 0 53 -10.333 73 -31c19.333 -20.667 29 -45.334 29 -74.001v-284
h-204v284zM708 652l0.000976562 349.002c0 52.667 -18.333 98 -55 136c-36 37.333 -80 56 -132 56c-56.667 0 -103.667 -22.667 -141 -68c-38 49.333 -87 74 -147 74c-52 0 -96 -18.333 -132 -55c-36.667 -36 -55 -79.667 -55 -131v-88l85 33v55c0 28 9.66699 52 29 72
c20 20 44.333 30 73 30c28 0 52 -10 72 -30s30 -44 30 -72v-240l-27 -13c-66 -31.333 -127.333 -74 -184 -128c-56 -54 -84 -97 -84 -129v-317c11.333 -78.667 40.333 -131.334 87 -158.001c33.333 -18.667 87.666 -28 162.999 -28h129v38c31.333 -22 65.333 -33 102 -33
c52 0 96 19 132 57c36.667 37.333 55 82.666 55 135.999v36h-85v-36c0 -29.333 -9.66699 -54.333 -29 -75c-20 -20 -44.333 -30 -73 -30c-28 0 -52 10 -72 30c-20 20.667 -30 45.667 -30 75v454h289z" />
    <glyph glyph-name="ccedilla" unicode="&#xe7;" horiz-adv-x="478" 
d="M103 1161c-39.333 -40 -59 -88 -59 -144v-844c0 -55.333 19.667 -103 59 -143c40 -39.333 87.667 -59 143 -59c56 0 104 19.667 144 59c39.333 40 59 87.667 59 143v38h-92v-38c0 -30 -10.667 -56 -32 -78c-22 -21.333 -48.333 -32 -79 -32c-30 0 -56 10.667 -78 32
c-21.333 22 -32 48 -32 78v844c0 30.667 10.667 57 32 79c22 21.333 48 32 78 32c30.667 0 57 -10.667 79 -32c21.333 -22 32 -48.333 32 -79v-23h92v23c0 56 -19.667 104 -59 144c-40 39.333 -88 59 -144 59c-55.333 0 -103 -19.667 -143 -59zM179 -46v-163h65v-76h66v239
h-131z" />
    <glyph glyph-name="egrave" unicode="&#xe8;" horiz-adv-x="450" 
d="M246 1251l-136 179l103 3l89 -182h-56zM323 729h-204v293c0 30 10 55.333 30 76c20 21.333 44 32 72 32c28.667 0 53 -10.667 73 -32c19.333 -20.667 29 -46 29 -76v-293zM90 1162c-36.667 -38.667 -55 -85.334 -55 -140.001v-828c0 -54.667 18.333 -101.334 55 -140.001
c36 -38.667 79.667 -58 131 -58c52 0 96 19.333 132 58c36.667 38.667 55 85.334 55 140.001v38h-85v-38c0 -30 -9.66699 -55.333 -29 -76c-20 -21.333 -44.333 -32 -73 -32c-28 0 -52 10.667 -72 32c-20 20.667 -30 46 -30 76v468h289v360
c0 54.667 -18.333 101.334 -55 140.001c-36 38.667 -80 58 -132 58c-51.333 0 -95 -19.333 -131 -58z" />
    <glyph glyph-name="eacute" unicode="&#xe9;" horiz-adv-x="450" 
d="M323 729h-204v293c0 30 10 55.333 30 76c20 21.333 44 32 72 32c28.667 0 53 -10.667 73 -32c19.333 -20.667 29 -46 29 -76v-293zM90 1162c-36.667 -38.667 -55 -85.334 -55 -140.001v-828c0 -54.667 18.333 -101.334 55 -140.001c36 -38.667 79.667 -58 131 -58
c52 0 96 19.333 132 58c36.667 38.667 55 85.334 55 140.001v38h-85v-38c0 -30 -9.66699 -55.333 -29 -76c-20 -21.333 -44.333 -32 -73 -32c-28 0 -52 10.667 -72 32c-20 20.667 -30 46 -30 76v468h289v360c0 54.667 -18.333 101.334 -55 140.001
c-36 38.667 -80 58 -132 58c-51.333 0 -95 -19.333 -131 -58zM130 1251l89 182l103 -3l-137 -179h-55z" />
    <glyph glyph-name="ecircumflex" unicode="&#xea;" horiz-adv-x="450" 
d="M222 1400l46 1l149 -150h-45l-150 113l-150 -113h-45l149 150zM323 729h-204v293c0 30 10 55.333 30 76c20 21.333 44 32 72 32c28.667 0 53 -10.667 73 -32c19.333 -20.667 29 -46 29 -76v-293zM90 1162c-36.667 -38.667 -55 -85.334 -55 -140.001v-828
c0 -54.667 18.333 -101.334 55 -140.001c36 -38.667 79.667 -58 131 -58c52 0 96 19.333 132 58c36.667 38.667 55 85.334 55 140.001v38h-85v-38c0 -30 -9.66699 -55.333 -29 -76c-20 -21.333 -44.333 -32 -73 -32c-28 0 -52 10.667 -72 32c-20 20.667 -30 46 -30 76v468
h289v360c0 54.667 -18.333 101.334 -55 140.001c-36 38.667 -80 58 -132 58c-51.333 0 -95 -19.333 -131 -58z" />
    <glyph glyph-name="edieresis" unicode="&#xeb;" horiz-adv-x="450" 
d="M259 1370v-119h75v119h-75zM93 1370v-119h76v119h-76zM323 729h-204v293c0 30 10 55.333 30 76c20 21.333 44 32 72 32c28.667 0 53 -10.667 73 -32c19.333 -20.667 29 -46 29 -76v-293zM90 1162c-36.667 -38.667 -55 -85.334 -55 -140.001v-828
c0 -54.667 18.333 -101.334 55 -140.001c36 -38.667 79.667 -58 131 -58c52 0 96 19.333 132 58c36.667 38.667 55 85.334 55 140.001v38h-85v-38c0 -30 -9.66699 -55.333 -29 -76c-20 -21.333 -44.333 -32 -73 -32c-28 0 -52 10.667 -72 32c-20 20.667 -30 46 -30 76v468
h289v360c0 54.667 -18.333 101.334 -55 140.001c-36 38.667 -80 58 -132 58c-51.333 0 -95 -19.333 -131 -58z" />
    <glyph glyph-name="igrave" unicode="&#xec;" horiz-adv-x="255" 
d="M166 1251l-123 179l93 3l75 -182h-45zM216 1202h-93v-1216h93v1216z" />
    <glyph glyph-name="iacute" unicode="&#xed;" horiz-adv-x="200" 
d="M48 1251l75 182l93 -3l-123 -179h-45zM43 -14h93v1216h-93v-1216z" />
    <glyph glyph-name="icircumflex" unicode="&#xee;" horiz-adv-x="349" 
d="M171 1400l46 1l149 -150h-45l-150 113l-150 -113h-45l149 150zM125 -14h93v1216h-93v-1216z" />
    <glyph glyph-name="idieresis" unicode="&#xef;" horiz-adv-x="300" 
d="M199 1370v-119h75v119h-75zM33 1370v-119h76v119h-76zM111 -14h93v1216h-93v-1216z" />
    <glyph glyph-name="ntilde" unicode="&#xf1;" horiz-adv-x="500" 
d="M193 1376h8.99902c17.333 0 45 -11 83 -33c12 -5.33301 21 -8 27 -8h6c19.333 0 44 13.333 74 40h2l-11 -83c-20 -20 -42.333 -33.333 -67 -40c-5.33301 0 -9.33301 -0.333008 -12 -1c-14 0 -40 10.667 -78 32c-15.333 6.66699 -26.666 10 -33.999 10h-5
c-0.666992 0 -1 0.666992 -1 2c-20 0 -46.333 -14.333 -79 -43h-2l11 84c30 26.667 55.667 40 77 40zM265.999 1177c-16.667 -6 -34 -14.668 -52 -26.001l-73 -44v99h-90v-1210h90v967c0 26 8.66699 51 26 75c18 24 40 40.333 66 49c12.667 4.66699 25 7 37 7
c25.333 0 46.333 -8 63 -24c16.667 -17.333 25 -38.666 25 -63.999v-1010h90v1078c0 35.333 -10.333 63.333 -31 84c-20 20.667 -47 31 -81 31c-22 0 -45.333 -4 -70 -12z" />
    <glyph glyph-name="ograve" unicode="&#xf2;" horiz-adv-x="450" 
d="M316 198c0 -29.333 -10 -54.666 -30 -75.999c-19.333 -20.667 -43 -31 -71 -31c-27.333 0 -51 10.333 -71 31c-19.333 21.333 -29 46.666 -29 75.999v822c0 30 9.66699 55.333 29 76c20 20.667 43.667 31 71 31c28 0 51.667 -10.333 71 -31c20 -20.667 30 -46 30 -76
v-822zM86 1160c-36 -38.667 -54 -85.334 -54 -140.001v-822c0 -54.667 18 -101.334 54 -140.001s79 -58 129 -58c50.667 0 94 19.333 130 58s54 85.334 54 140.001v822c0 54.667 -18 101.334 -54 140.001s-79.333 58 -130 58c-50 0 -93 -19.333 -129 -58zM246 1251l-136 179
l103 3l89 -182h-56z" />
    <glyph glyph-name="oacute" unicode="&#xf3;" horiz-adv-x="450" 
d="M316 198c0 -29.333 -10 -54.666 -30 -75.999c-19.333 -20.667 -43 -31 -71 -31c-27.333 0 -51 10.333 -71 31c-19.333 21.333 -29 46.666 -29 75.999v822c0 30 9.66699 55.333 29 76c20 20.667 43.667 31 71 31c28 0 51.667 -10.333 71 -31c20 -20.667 30 -46 30 -76
v-822zM86 1160c-36 -38.667 -54 -85.334 -54 -140.001v-822c0 -54.667 18 -101.334 54 -140.001s79 -58 129 -58c50.667 0 94 19.333 130 58s54 85.334 54 140.001v822c0 54.667 -18 101.334 -54 140.001s-79.333 58 -130 58c-50 0 -93 -19.333 -129 -58zM130 1251l89 182
l103 -3l-137 -179h-55z" />
    <glyph glyph-name="ocircumflex" unicode="&#xf4;" horiz-adv-x="450" 
d="M222 1400l46 1l149 -150h-45l-150 113l-150 -113h-45l149 150zM316 198c0 -29.333 -10 -54.666 -30 -75.999c-19.333 -20.667 -43 -31 -71 -31c-27.333 0 -51 10.333 -71 31c-19.333 21.333 -29 46.666 -29 75.999v822c0 30 9.66699 55.333 29 76
c20 20.667 43.667 31 71 31c28 0 51.667 -10.333 71 -31c20 -20.667 30 -46 30 -76v-822zM86 1160c-36 -38.667 -54 -85.334 -54 -140.001v-822c0 -54.667 18 -101.334 54 -140.001s79 -58 129 -58c50.667 0 94 19.333 130 58s54 85.334 54 140.001v822
c0 54.667 -18 101.334 -54 140.001s-79.333 58 -130 58c-50 0 -93 -19.333 -129 -58z" />
    <glyph glyph-name="otilde" unicode="&#xf5;" horiz-adv-x="450" 
d="M167 1376h8.99902c17.333 0 45 -11 83 -33c12 -5.33301 21 -8 27 -8h6c19.333 0 44 13.333 74 40h2l-11 -83c-20 -20 -42.333 -33.333 -67 -40c-5.33301 0 -9.33301 -0.333008 -12 -1c-14 0 -40 10.667 -78 32c-15.333 6.66699 -26.666 10 -33.999 10h-5
c-0.666992 0 -1 0.666992 -1 2c-20 0 -46.333 -14.333 -79 -43h-2l11 84c30 26.667 55.667 40 77 40zM315.999 198c0 -29.333 -10 -54.666 -30 -75.999c-19.333 -20.667 -43 -31 -71 -31c-27.333 0 -51 10.333 -71 31c-19.333 21.333 -29 46.666 -29 75.999v822
c0 30 9.66699 55.333 29 76c20 20.667 43.667 31 71 31c28 0 51.667 -10.333 71 -31c20 -20.667 30 -46 30 -76v-822zM85.999 1160c-36 -38.667 -54 -85.334 -54 -140.001v-822c0 -54.667 18 -101.334 54 -140.001s79 -58 129 -58c50.667 0 94 19.333 130 58
s54 85.334 54 140.001v822c0 54.667 -18 101.334 -54 140.001s-79.333 58 -130 58c-50 0 -93 -19.333 -129 -58z" />
    <glyph glyph-name="odieresis" unicode="&#xf6;" horiz-adv-x="450" 
d="M259 1370v-119h75v119h-75zM93 1370v-119h76v119h-76zM316 198c0 -29.333 -10 -54.666 -30 -75.999c-19.333 -20.667 -43 -31 -71 -31c-27.333 0 -51 10.333 -71 31c-19.333 21.333 -29 46.666 -29 75.999v822c0 30 9.66699 55.333 29 76c20 20.667 43.667 31 71 31
c28 0 51.667 -10.333 71 -31c20 -20.667 30 -46 30 -76v-822zM86 1160c-36 -38.667 -54 -85.334 -54 -140.001v-822c0 -54.667 18 -101.334 54 -140.001s79 -58 129 -58c50.667 0 94 19.333 130 58s54 85.334 54 140.001v822c0 54.667 -18 101.334 -54 140.001
s-79.333 58 -130 58c-50 0 -93 -19.333 -129 -58z" />
    <glyph glyph-name="oslash" unicode="&#xf8;" horiz-adv-x="600" 
d="M412 186c0 -30.667 -11 -57.334 -33 -80.001c-22 -22 -48.333 -33 -79 -33c-31.333 0 -58 11 -80 33c-21.333 22.667 -32 49.334 -32 80.001v14l224 616v-630zM188 1055c0 31.333 10.667 58 32 80c22 22.667 48.667 34 80 34c30.667 0 57 -11.333 79 -34
c22 -22 33 -48.667 33 -80v-14l-224 -615v629zM573 1260l-72.001 26l-38 -105c-41.333 56 -95.666 84 -162.999 84c-56.667 0 -105 -20.667 -145 -62c-40 -40.667 -60 -90 -60 -148v-869c0 -1.33301 0.333008 -5.66602 1 -12.999l-70 -191l72 -26l39 104
c40.667 -55.333 95 -83 163 -83c56 0 104 20.333 144 61c40 41.333 60 90.666 60 147.999v869c0 2.66699 -0.333008 7 -1 13z" />
    <glyph glyph-name="ugrave" unicode="&#xf9;" horiz-adv-x="450" 
d="M241 1251l-182 179l85 3l139 -182h-42zM207 2c15.333 6.66699 31.332 15.334 47.999 26.001l67 46v-102h82v1239h-82l-1 -990c0 -26.667 -8 -52.334 -24 -77.001c-16 -24 -36 -41 -60 -51c-11.333 -4.66699 -22.666 -7 -33.999 -7c-22.667 0 -41.667 8.66699 -57 26
s-23 39 -23 65v1034h-82v-1103c0 -36.667 9.33301 -65.667 28 -87c18 -21.333 43 -32 75 -32c20 0 41 4.33301 63 13z" />
    <glyph glyph-name="uacute" unicode="&#xfa;" horiz-adv-x="450" 
d="M153 1251l144 182l89 -3l-189 -179h-44zM207 2c15.333 6.66699 31.332 15.334 47.999 26.001l67 46v-102h82v1239h-82l-1 -990c0 -26.667 -8 -52.334 -24 -77.001c-16 -24 -36 -41 -60 -51c-11.333 -4.66699 -22.666 -7 -33.999 -7c-22.667 0 -41.667 8.66699 -57 26
s-23 39 -23 65v1034h-82v-1103c0 -36.667 9.33301 -65.667 28 -87c18 -21.333 43 -32 75 -32c20 0 41 4.33301 63 13z" />
    <glyph glyph-name="ucircumflex" unicode="&#xfb;" horiz-adv-x="450" 
d="M222 1400l46 1l149 -150h-45l-150 113l-150 -113h-45l149 150zM207 2c15.333 6.66699 31.332 15.334 47.999 26.001l67 46v-102h82v1239h-82l-1 -990c0 -26.667 -8 -52.334 -24 -77.001c-16 -24 -36 -41 -60 -51c-11.333 -4.66699 -22.666 -7 -33.999 -7
c-22.667 0 -41.667 8.66699 -57 26s-23 39 -23 65v1034h-82v-1103c0 -36.667 9.33301 -65.667 28 -87c18 -21.333 43 -32 75 -32c20 0 41 4.33301 63 13z" />
    <glyph glyph-name="udieresis" unicode="&#xfc;" horiz-adv-x="450" 
d="M259 1370v-119h76v119h-76zM94 1370v-119h75v119h-75zM217 2c15.333 6.66699 31.332 15.334 47.999 26.001l67 46v-102h82v1239h-82l-1 -990c0 -26.667 -8 -52.334 -24 -77.001c-16 -24 -36 -41 -60 -51c-11.333 -4.66699 -22.666 -7 -33.999 -7
c-22.667 0 -41.667 8.66699 -57 26s-23 39 -23 65v1034h-82v-1103c0 -36.667 9.33301 -65.667 28 -87c18 -21.333 43 -32 75 -32c20 0 41 4.33301 63 13z" />
    <glyph glyph-name="ydieresis" unicode="&#xff;" 
d="M346 942v167.001c0 19.333 7.33301 36.333 22 51c14 15.333 32.333 25.666 55 30.999v-313zM571 649.001l0.000976562 -207c0 -18.667 -7.33301 -35.667 -22 -51c-14.667 -14.667 -33.334 -25 -56.001 -31v355zM664.001 1005l-0.000976562 103.999
c0 39.333 -16.333 74 -49 104s-73.334 48 -122.001 54v78h-70v-78c-48.667 -6 -89 -24 -121 -54c-32.667 -30 -49 -64.667 -49 -104l1 -192l169 -143v-414c-22.667 6 -41 16.333 -55 31c-14.667 15.333 -22 32.333 -22 51v151h-93v-151c0 -39.333 16.333 -74 49 -104
c32 -29.333 72.333 -47.333 121 -54v-148h70v148c48.667 6.66699 89.334 24.667 122.001 54c32.667 30 49 64.667 49 104v240l-171 139v370c22.667 -5.33301 41.334 -15.666 56.001 -30.999c14.667 -14.667 22 -31.667 22 -51v-104h93z" />
    <glyph glyph-name="dotlessi" unicode="&#x131;" 
d="M282 832v174c0 20 7.33301 37.667 22 53c14 16 32.333 26.667 55 32v-325zM507 528l0.000976562 -215c0 -19.333 -7.33301 -37 -22 -53c-14.667 -15.333 -33.334 -26 -56.001 -32v369zM600.001 898l-0.000976562 108c0 40.667 -16.333 76.667 -49 108
s-73.334 50 -122.001 56v81h-70v-81c-48.667 -6 -89 -24.667 -121 -56c-32.667 -31.333 -49 -67.333 -49 -108l1 -200l169 -148v-430c-22.667 6 -41 16.667 -55 32c-14.667 16 -22 33.667 -22 53v157h-93v-157c0 -40.667 16.333 -76.667 49 -108
c32 -30.667 72.333 -49.334 121 -56.001v-154h70v154c48.667 6.66699 89.334 25.334 122.001 56.001c32.667 31.333 49 67.333 49 108v249l-171 145v384c22.667 -5.33301 41.334 -16 56.001 -32c14.667 -15.333 22 -33 22 -53v-108h93z" />
    <glyph glyph-name="OE" unicode="&#x152;" horiz-adv-x="800" 
d="M348 166c0 -30.667 -11 -57 -33 -79c-22.667 -22 -49.667 -33 -81 -33c-32 0 -59 11 -81 33c-22.667 22 -34 48.333 -34 79v1242c0 30.667 11.333 57 34 79c22 22 49 33 81 33c31.333 0 58.333 -11 81 -33c22 -22 33 -48.333 33 -79v-1242zM376 1546
c-39.333 38.667 -86.666 58 -141.999 58c-56 0 -103.667 -19.333 -143 -58c-39.333 -38 -59 -84 -59 -138v-1242c0 -54 19.667 -100 59 -138c39.333 -38.667 87 -58 143 -58c55.333 0 102.666 19.333 141.999 58c8.66699 8 16.334 16.667 23.001 26v-54h359v89h-265v811h265
v67h-265v546h265v88h-359v-81c-6.66699 9.33301 -14.334 18 -23.001 26z" />
    <glyph glyph-name="oe" unicode="&#x153;" horiz-adv-x="840" 
d="M376 197c0 -29.333 -10.667 -54.333 -32 -75s-47.333 -31 -78 -31c-30 0 -55.667 10.333 -77 31s-32 45.667 -32 75v817c0 29.333 10.667 54.333 32 75c21.333 21.333 47 32 77 32c30.667 0 56.667 -10.667 78 -32c21.333 -20.667 32 -45.667 32 -75v-817zM467 1007
c0 28.667 10.667 53.334 32 74.001s47 31 77 31c30.667 0 56.667 -10.333 78 -31s32 -45.334 32 -74.001v-284h-219v284zM776 658v349.001c0 52.667 -19.667 97.667 -59 135c-38.667 38 -85.667 57 -141 57c-60 0 -110 -22.667 -150 -68c-40 53.333 -93.333 80 -160 80
c-54.667 0 -101.667 -19.333 -141 -58c-38.667 -38 -58 -84.333 -58 -139v-817c0 -54 19.333 -100.333 58 -139c39.333 -38.667 86.333 -58 141 -58c66.667 0 120 26.667 160 80c40 -45.333 90 -68 150 -68c55.333 0 102.333 19 141 57c39.333 37.333 59 82.666 59 135.999
v36h-90v-36c0 -29.333 -10.667 -54.333 -32 -75s-47.333 -31 -78 -31c-30 0 -55.667 10.333 -77 31s-32 45.667 -32 75v453h309z" />
    <glyph glyph-name="florin" unicode="&#x192;" 
d="M282 832v174c0 20 7.33301 37.667 22 53c14 16 32.333 26.667 55 32v-325zM507 528l0.000976562 -215c0 -19.333 -7.33301 -37 -22 -53c-14.667 -15.333 -33.334 -26 -56.001 -32v369zM600.001 898l-0.000976562 108c0 40.667 -16.333 76.667 -49 108
s-73.334 50 -122.001 56v81h-70v-81c-48.667 -6 -89 -24.667 -121 -56c-32.667 -31.333 -49 -67.333 -49 -108l1 -200l169 -148v-430c-22.667 6 -41 16.667 -55 32c-14.667 16 -22 33.667 -22 53v157h-93v-157c0 -40.667 16.333 -76.667 49 -108
c32 -30.667 72.333 -49.334 121 -56.001v-154h70v154c48.667 6.66699 89.334 25.334 122.001 56.001c32.667 31.333 49 67.333 49 108v249l-171 145v384c22.667 -5.33301 41.334 -16 56.001 -32c14.667 -15.333 22 -33 22 -53v-108h93z" />
    <glyph glyph-name="circumflex" unicode="&#x2c6;" 
d="M282 832v174c0 20 7.33301 37.667 22 53c14 16 32.333 26.667 55 32v-325zM507 528l0.000976562 -215c0 -19.333 -7.33301 -37 -22 -53c-14.667 -15.333 -33.334 -26 -56.001 -32v369zM600.001 898l-0.000976562 108c0 40.667 -16.333 76.667 -49 108
s-73.334 50 -122.001 56v81h-70v-81c-48.667 -6 -89 -24.667 -121 -56c-32.667 -31.333 -49 -67.333 -49 -108l1 -200l169 -148v-430c-22.667 6 -41 16.667 -55 32c-14.667 16 -22 33.667 -22 53v157h-93v-157c0 -40.667 16.333 -76.667 49 -108
c32 -30.667 72.333 -49.334 121 -56.001v-154h70v154c48.667 6.66699 89.334 25.334 122.001 56.001c32.667 31.333 49 67.333 49 108v249l-171 145v384c22.667 -5.33301 41.334 -16 56.001 -32c14.667 -15.333 22 -33 22 -53v-108h93z" />
    <glyph glyph-name="breve" unicode="&#x2d8;" 
d="M282 832v174c0 20 7.33301 37.667 22 53c14 16 32.333 26.667 55 32v-325zM507 528l0.000976562 -215c0 -19.333 -7.33301 -37 -22 -53c-14.667 -15.333 -33.334 -26 -56.001 -32v369zM600.001 898l-0.000976562 108c0 40.667 -16.333 76.667 -49 108
s-73.334 50 -122.001 56v81h-70v-81c-48.667 -6 -89 -24.667 -121 -56c-32.667 -31.333 -49 -67.333 -49 -108l1 -200l169 -148v-430c-22.667 6 -41 16.667 -55 32c-14.667 16 -22 33.667 -22 53v157h-93v-157c0 -40.667 16.333 -76.667 49 -108
c32 -30.667 72.333 -49.334 121 -56.001v-154h70v154c48.667 6.66699 89.334 25.334 122.001 56.001c32.667 31.333 49 67.333 49 108v249l-171 145v384c22.667 -5.33301 41.334 -16 56.001 -32c14.667 -15.333 22 -33 22 -53v-108h93z" />
    <glyph glyph-name="ring" unicode="&#x2da;" 
d="M282 832v174c0 20 7.33301 37.667 22 53c14 16 32.333 26.667 55 32v-325zM507 528l0.000976562 -215c0 -19.333 -7.33301 -37 -22 -53c-14.667 -15.333 -33.334 -26 -56.001 -32v369zM600.001 898l-0.000976562 108c0 40.667 -16.333 76.667 -49 108
s-73.334 50 -122.001 56v81h-70v-81c-48.667 -6 -89 -24.667 -121 -56c-32.667 -31.333 -49 -67.333 -49 -108l1 -200l169 -148v-430c-22.667 6 -41 16.667 -55 32c-14.667 16 -22 33.667 -22 53v157h-93v-157c0 -40.667 16.333 -76.667 49 -108
c32 -30.667 72.333 -49.334 121 -56.001v-154h70v154c48.667 6.66699 89.334 25.334 122.001 56.001c32.667 31.333 49 67.333 49 108v249l-171 145v384c22.667 -5.33301 41.334 -16 56.001 -32c14.667 -15.333 22 -33 22 -53v-108h93z" />
    <glyph glyph-name="glyph196" unicode="&#x2dc;" 
d="M346 942v167.001c0 19.333 7.33301 36.333 22 51c14 15.333 32.333 25.666 55 30.999v-313zM571 649.001l0.000976562 -207c0 -18.667 -7.33301 -35.667 -22 -51c-14.667 -14.667 -33.334 -25 -56.001 -31v355zM664.001 1005l-0.000976562 103.999
c0 39.333 -16.333 74 -49 104s-73.334 48 -122.001 54v78h-70v-78c-48.667 -6 -89 -24 -121 -54c-32.667 -30 -49 -64.667 -49 -104l1 -192l169 -143v-414c-22.667 6 -41 16.333 -55 31c-14.667 15.333 -22 32.333 -22 51v151h-93v-151c0 -39.333 16.333 -74 49 -104
c32 -29.333 72.333 -47.333 121 -54v-148h70v148c48.667 6.66699 89.334 24.667 122.001 54c32.667 30 49 64.667 49 104v240l-171 139v370c22.667 -5.33301 41.334 -15.666 56.001 -30.999c14.667 -14.667 22 -31.667 22 -51v-104h93z" />
    <glyph glyph-name="hungarumlaut" unicode="&#x2dd;" 
d="M282 832v174c0 20 7.33301 37.667 22 53c14 16 32.333 26.667 55 32v-325zM507 528l0.000976562 -215c0 -19.333 -7.33301 -37 -22 -53c-14.667 -15.333 -33.334 -26 -56.001 -32v369zM600.001 898l-0.000976562 108c0 40.667 -16.333 76.667 -49 108
s-73.334 50 -122.001 56v81h-70v-81c-48.667 -6 -89 -24.667 -121 -56c-32.667 -31.333 -49 -67.333 -49 -108l1 -200l169 -148v-430c-22.667 6 -41 16.667 -55 32c-14.667 16 -22 33.667 -22 53v157h-93v-157c0 -40.667 16.333 -76.667 49 -108
c32 -30.667 72.333 -49.334 121 -56.001v-154h70v154c48.667 6.66699 89.334 25.334 122.001 56.001c32.667 31.333 49 67.333 49 108v249l-171 145v384c22.667 -5.33301 41.334 -16 56.001 -32c14.667 -15.333 22 -33 22 -53v-108h93z" />
    <glyph glyph-name="glyph163" unicode="&#x2013;" 
d="M346 942v167.001c0 19.333 7.33301 36.333 22 51c14 15.333 32.333 25.666 55 30.999v-313zM571 649.001l0.000976562 -207c0 -18.667 -7.33301 -35.667 -22 -51c-14.667 -14.667 -33.334 -25 -56.001 -31v355zM664.001 1005l-0.000976562 103.999
c0 39.333 -16.333 74 -49 104s-73.334 48 -122.001 54v78h-70v-78c-48.667 -6 -89 -24 -121 -54c-32.667 -30 -49 -64.667 -49 -104l1 -192l169 -143v-414c-22.667 6 -41 16.333 -55 31c-14.667 15.333 -22 32.333 -22 51v151h-93v-151c0 -39.333 16.333 -74 49 -104
c32 -29.333 72.333 -47.333 121 -54v-148h70v148c48.667 6.66699 89.334 24.667 122.001 54c32.667 30 49 64.667 49 104v240l-171 139v370c22.667 -5.33301 41.334 -15.666 56.001 -30.999c14.667 -14.667 22 -31.667 22 -51v-104h93z" />
    <glyph glyph-name="glyph164" unicode="&#x2014;" 
d="M346 942v167.001c0 19.333 7.33301 36.333 22 51c14 15.333 32.333 25.666 55 30.999v-313zM571 649.001l0.000976562 -207c0 -18.667 -7.33301 -35.667 -22 -51c-14.667 -14.667 -33.334 -25 -56.001 -31v355zM664.001 1005l-0.000976562 103.999
c0 39.333 -16.333 74 -49 104s-73.334 48 -122.001 54v78h-70v-78c-48.667 -6 -89 -24 -121 -54c-32.667 -30 -49 -64.667 -49 -104l1 -192l169 -143v-414c-22.667 6 -41 16.333 -55 31c-14.667 15.333 -22 32.333 -22 51v151h-93v-151c0 -39.333 16.333 -74 49 -104
c32 -29.333 72.333 -47.333 121 -54v-148h70v148c48.667 6.66699 89.334 24.667 122.001 54c32.667 30 49 64.667 49 104v240l-171 139v370c22.667 -5.33301 41.334 -15.666 56.001 -30.999c14.667 -14.667 22 -31.667 22 -51v-104h93z" />
    <glyph glyph-name="glyph167" unicode="&#x2018;" 
d="M346 942v167.001c0 19.333 7.33301 36.333 22 51c14 15.333 32.333 25.666 55 30.999v-313zM571 649.001l0.000976562 -207c0 -18.667 -7.33301 -35.667 -22 -51c-14.667 -14.667 -33.334 -25 -56.001 -31v355zM664.001 1005l-0.000976562 103.999
c0 39.333 -16.333 74 -49 104s-73.334 48 -122.001 54v78h-70v-78c-48.667 -6 -89 -24 -121 -54c-32.667 -30 -49 -64.667 -49 -104l1 -192l169 -143v-414c-22.667 6 -41 16.333 -55 31c-14.667 15.333 -22 32.333 -22 51v151h-93v-151c0 -39.333 16.333 -74 49 -104
c32 -29.333 72.333 -47.333 121 -54v-148h70v148c48.667 6.66699 89.334 24.667 122.001 54c32.667 30 49 64.667 49 104v240l-171 139v370c22.667 -5.33301 41.334 -15.666 56.001 -30.999c14.667 -14.667 22 -31.667 22 -51v-104h93z" />
    <glyph glyph-name="glyph168" unicode="&#x2019;" 
d="M346 942v167.001c0 19.333 7.33301 36.333 22 51c14 15.333 32.333 25.666 55 30.999v-313zM571 649.001l0.000976562 -207c0 -18.667 -7.33301 -35.667 -22 -51c-14.667 -14.667 -33.334 -25 -56.001 -31v355zM664.001 1005l-0.000976562 103.999
c0 39.333 -16.333 74 -49 104s-73.334 48 -122.001 54v78h-70v-78c-48.667 -6 -89 -24 -121 -54c-32.667 -30 -49 -64.667 -49 -104l1 -192l169 -143v-414c-22.667 6 -41 16.333 -55 31c-14.667 15.333 -22 32.333 -22 51v151h-93v-151c0 -39.333 16.333 -74 49 -104
c32 -29.333 72.333 -47.333 121 -54v-148h70v148c48.667 6.66699 89.334 24.667 122.001 54c32.667 30 49 64.667 49 104v240l-171 139v370c22.667 -5.33301 41.334 -15.666 56.001 -30.999c14.667 -14.667 22 -31.667 22 -51v-104h93z" />
    <glyph glyph-name="quotesinglbase" unicode="&#x201a;" 
d="M346 942v167.001c0 19.333 7.33301 36.333 22 51c14 15.333 32.333 25.666 55 30.999v-313zM571 649.001l0.000976562 -207c0 -18.667 -7.33301 -35.667 -22 -51c-14.667 -14.667 -33.334 -25 -56.001 -31v355zM664.001 1005l-0.000976562 103.999
c0 39.333 -16.333 74 -49 104s-73.334 48 -122.001 54v78h-70v-78c-48.667 -6 -89 -24 -121 -54c-32.667 -30 -49 -64.667 -49 -104l1 -192l169 -143v-414c-22.667 6 -41 16.333 -55 31c-14.667 15.333 -22 32.333 -22 51v151h-93v-151c0 -39.333 16.333 -74 49 -104
c32 -29.333 72.333 -47.333 121 -54v-148h70v148c48.667 6.66699 89.334 24.667 122.001 54c32.667 30 49 64.667 49 104v240l-171 139v370c22.667 -5.33301 41.334 -15.666 56.001 -30.999c14.667 -14.667 22 -31.667 22 -51v-104h93z" />
    <glyph glyph-name="glyph165" unicode="&#x201c;" 
d="M346 942v167.001c0 19.333 7.33301 36.333 22 51c14 15.333 32.333 25.666 55 30.999v-313zM571 649.001l0.000976562 -207c0 -18.667 -7.33301 -35.667 -22 -51c-14.667 -14.667 -33.334 -25 -56.001 -31v355zM664.001 1005l-0.000976562 103.999
c0 39.333 -16.333 74 -49 104s-73.334 48 -122.001 54v78h-70v-78c-48.667 -6 -89 -24 -121 -54c-32.667 -30 -49 -64.667 -49 -104l1 -192l169 -143v-414c-22.667 6 -41 16.333 -55 31c-14.667 15.333 -22 32.333 -22 51v151h-93v-151c0 -39.333 16.333 -74 49 -104
c32 -29.333 72.333 -47.333 121 -54v-148h70v148c48.667 6.66699 89.334 24.667 122.001 54c32.667 30 49 64.667 49 104v240l-171 139v370c22.667 -5.33301 41.334 -15.666 56.001 -30.999c14.667 -14.667 22 -31.667 22 -51v-104h93z" />
    <glyph glyph-name="glyph166" unicode="&#x201d;" 
d="M346 942v167.001c0 19.333 7.33301 36.333 22 51c14 15.333 32.333 25.666 55 30.999v-313zM571 649.001l0.000976562 -207c0 -18.667 -7.33301 -35.667 -22 -51c-14.667 -14.667 -33.334 -25 -56.001 -31v355zM664.001 1005l-0.000976562 103.999
c0 39.333 -16.333 74 -49 104s-73.334 48 -122.001 54v78h-70v-78c-48.667 -6 -89 -24 -121 -54c-32.667 -30 -49 -64.667 -49 -104l1 -192l169 -143v-414c-22.667 6 -41 16.333 -55 31c-14.667 15.333 -22 32.333 -22 51v151h-93v-151c0 -39.333 16.333 -74 49 -104
c32 -29.333 72.333 -47.333 121 -54v-148h70v148c48.667 6.66699 89.334 24.667 122.001 54c32.667 30 49 64.667 49 104v240l-171 139v370c22.667 -5.33301 41.334 -15.666 56.001 -30.999c14.667 -14.667 22 -31.667 22 -51v-104h93z" />
    <glyph glyph-name="glyph177" unicode="&#x201e;" 
d="M346 942v167.001c0 19.333 7.33301 36.333 22 51c14 15.333 32.333 25.666 55 30.999v-313zM571 649.001l0.000976562 -207c0 -18.667 -7.33301 -35.667 -22 -51c-14.667 -14.667 -33.334 -25 -56.001 -31v355zM664.001 1005l-0.000976562 103.999
c0 39.333 -16.333 74 -49 104s-73.334 48 -122.001 54v78h-70v-78c-48.667 -6 -89 -24 -121 -54c-32.667 -30 -49 -64.667 -49 -104l1 -192l169 -143v-414c-22.667 6 -41 16.333 -55 31c-14.667 15.333 -22 32.333 -22 51v151h-93v-151c0 -39.333 16.333 -74 49 -104
c32 -29.333 72.333 -47.333 121 -54v-148h70v148c48.667 6.66699 89.334 24.667 122.001 54c32.667 30 49 64.667 49 104v240l-171 139v370c22.667 -5.33301 41.334 -15.666 56.001 -30.999c14.667 -14.667 22 -31.667 22 -51v-104h93z" />
    <glyph glyph-name="glyph130" unicode="&#x2020;" 
d="M346 942v167.001c0 19.333 7.33301 36.333 22 51c14 15.333 32.333 25.666 55 30.999v-313zM571 649.001l0.000976562 -207c0 -18.667 -7.33301 -35.667 -22 -51c-14.667 -14.667 -33.334 -25 -56.001 -31v355zM664.001 1005l-0.000976562 103.999
c0 39.333 -16.333 74 -49 104s-73.334 48 -122.001 54v78h-70v-78c-48.667 -6 -89 -24 -121 -54c-32.667 -30 -49 -64.667 -49 -104l1 -192l169 -143v-414c-22.667 6 -41 16.333 -55 31c-14.667 15.333 -22 32.333 -22 51v151h-93v-151c0 -39.333 16.333 -74 49 -104
c32 -29.333 72.333 -47.333 121 -54v-148h70v148c48.667 6.66699 89.334 24.667 122.001 54c32.667 30 49 64.667 49 104v240l-171 139v370c22.667 -5.33301 41.334 -15.666 56.001 -30.999c14.667 -14.667 22 -31.667 22 -51v-104h93z" />
    <glyph glyph-name="glyph175" unicode="&#x2021;" 
d="M282 832v174c0 20 7.33301 37.667 22 53c14 16 32.333 26.667 55 32v-325zM507 528l0.000976562 -215c0 -19.333 -7.33301 -37 -22 -53c-14.667 -15.333 -33.334 -26 -56.001 -32v369zM600.001 898l-0.000976562 108c0 40.667 -16.333 76.667 -49 108
s-73.334 50 -122.001 56v81h-70v-81c-48.667 -6 -89 -24.667 -121 -56c-32.667 -31.333 -49 -67.333 -49 -108l1 -200l169 -148v-430c-22.667 6 -41 16.667 -55 32c-14.667 16 -22 33.667 -22 53v157h-93v-157c0 -40.667 16.333 -76.667 49 -108
c32 -30.667 72.333 -49.334 121 -56.001v-154h70v154c48.667 6.66699 89.334 25.334 122.001 56.001c32.667 31.333 49 67.333 49 108v249l-171 145v384c22.667 -5.33301 41.334 -16 56.001 -32c14.667 -15.333 22 -33 22 -53v-108h93z" />
    <glyph glyph-name="glyph134" unicode="&#x2022;" 
d="M282 832v174c0 20 7.33301 37.667 22 53c14 16 32.333 26.667 55 32v-325zM507 528l0.000976562 -215c0 -19.333 -7.33301 -37 -22 -53c-14.667 -15.333 -33.334 -26 -56.001 -32v369zM600.001 898l-0.000976562 108c0 40.667 -16.333 76.667 -49 108
s-73.334 50 -122.001 56v81h-70v-81c-48.667 -6 -89 -24.667 -121 -56c-32.667 -31.333 -49 -67.333 -49 -108l1 -200l169 -148v-430c-22.667 6 -41 16.667 -55 32c-14.667 16 -22 33.667 -22 53v157h-93v-157c0 -40.667 16.333 -76.667 49 -108
c32 -30.667 72.333 -49.334 121 -56.001v-154h70v154c48.667 6.66699 89.334 25.334 122.001 56.001c32.667 31.333 49 67.333 49 108v249l-171 145v384c22.667 -5.33301 41.334 -16 56.001 -32c14.667 -15.333 22 -33 22 -53v-108h93z" />
    <glyph glyph-name="glyph157" unicode="&#x2026;" 
d="M282 832v174c0 20 7.33301 37.667 22 53c14 16 32.333 26.667 55 32v-325zM507 528l0.000976562 -215c0 -19.333 -7.33301 -37 -22 -53c-14.667 -15.333 -33.334 -26 -56.001 -32v369zM600.001 898l-0.000976562 108c0 40.667 -16.333 76.667 -49 108
s-73.334 50 -122.001 56v81h-70v-81c-48.667 -6 -89 -24.667 -121 -56c-32.667 -31.333 -49 -67.333 -49 -108l1 -200l169 -148v-430c-22.667 6 -41 16.667 -55 32c-14.667 16 -22 33.667 -22 53v157h-93v-157c0 -40.667 16.333 -76.667 49 -108
c32 -30.667 72.333 -49.334 121 -56.001v-154h70v154c48.667 6.66699 89.334 25.334 122.001 56.001c32.667 31.333 49 67.333 49 108v249l-171 145v384c22.667 -5.33301 41.334 -16 56.001 -32c14.667 -15.333 22 -33 22 -53v-108h93z" />
    <glyph glyph-name="perthousand" unicode="&#x2030;" 
d="M346 942v167.001c0 19.333 7.33301 36.333 22 51c14 15.333 32.333 25.666 55 30.999v-313zM571 649.001l0.000976562 -207c0 -18.667 -7.33301 -35.667 -22 -51c-14.667 -14.667 -33.334 -25 -56.001 -31v355zM664.001 1005l-0.000976562 103.999
c0 39.333 -16.333 74 -49 104s-73.334 48 -122.001 54v78h-70v-78c-48.667 -6 -89 -24 -121 -54c-32.667 -30 -49 -64.667 -49 -104l1 -192l169 -143v-414c-22.667 6 -41 16.333 -55 31c-14.667 15.333 -22 32.333 -22 51v151h-93v-151c0 -39.333 16.333 -74 49 -104
c32 -29.333 72.333 -47.333 121 -54v-148h70v148c48.667 6.66699 89.334 24.667 122.001 54c32.667 30 49 64.667 49 104v240l-171 139v370c22.667 -5.33301 41.334 -15.666 56.001 -30.999c14.667 -14.667 22 -31.667 22 -51v-104h93z" />
    <glyph glyph-name="glyph171" unicode="&#x2039;" 
d="M282 832v174c0 20 7.33301 37.667 22 53c14 16 32.333 26.667 55 32v-325zM507 528l0.000976562 -215c0 -19.333 -7.33301 -37 -22 -53c-14.667 -15.333 -33.334 -26 -56.001 -32v369zM600.001 898l-0.000976562 108c0 40.667 -16.333 76.667 -49 108
s-73.334 50 -122.001 56v81h-70v-81c-48.667 -6 -89 -24.667 -121 -56c-32.667 -31.333 -49 -67.333 -49 -108l1 -200l169 -148v-430c-22.667 6 -41 16.667 -55 32c-14.667 16 -22 33.667 -22 53v157h-93v-157c0 -40.667 16.333 -76.667 49 -108
c32 -30.667 72.333 -49.334 121 -56.001v-154h70v154c48.667 6.66699 89.334 25.334 122.001 56.001c32.667 31.333 49 67.333 49 108v249l-171 145v384c22.667 -5.33301 41.334 -16 56.001 -32c14.667 -15.333 22 -33 22 -53v-108h93z" />
    <glyph glyph-name="glyph172" unicode="&#x203a;" 
d="M282 832v174c0 20 7.33301 37.667 22 53c14 16 32.333 26.667 55 32v-325zM507 528l0.000976562 -215c0 -19.333 -7.33301 -37 -22 -53c-14.667 -15.333 -33.334 -26 -56.001 -32v369zM600.001 898l-0.000976562 108c0 40.667 -16.333 76.667 -49 108
s-73.334 50 -122.001 56v81h-70v-81c-48.667 -6 -89 -24.667 -121 -56c-32.667 -31.333 -49 -67.333 -49 -108l1 -200l169 -148v-430c-22.667 6 -41 16.667 -55 32c-14.667 16 -22 33.667 -22 53v157h-93v-157c0 -40.667 16.333 -76.667 49 -108
c32 -30.667 72.333 -49.334 121 -56.001v-154h70v154c48.667 6.66699 89.334 25.334 122.001 56.001c32.667 31.333 49 67.333 49 108v249l-171 145v384c22.667 -5.33301 41.334 -16 56.001 -32c14.667 -15.333 22 -33 22 -53v-108h93z" />
    <glyph glyph-name="fraction" unicode="&#x2044;" 
d="M282 832v174c0 20 7.33301 37.667 22 53c14 16 32.333 26.667 55 32v-325zM507 528l0.000976562 -215c0 -19.333 -7.33301 -37 -22 -53c-14.667 -15.333 -33.334 -26 -56.001 -32v369zM600.001 898l-0.000976562 108c0 40.667 -16.333 76.667 -49 108
s-73.334 50 -122.001 56v81h-70v-81c-48.667 -6 -89 -24.667 -121 -56c-32.667 -31.333 -49 -67.333 -49 -108l1 -200l169 -148v-430c-22.667 6 -41 16.667 -55 32c-14.667 16 -22 33.667 -22 53v157h-93v-157c0 -40.667 16.333 -76.667 49 -108
c32 -30.667 72.333 -49.334 121 -56.001v-154h70v154c48.667 6.66699 89.334 25.334 122.001 56.001c32.667 31.333 49 67.333 49 108v249l-171 145v384c22.667 -5.33301 41.334 -16 56.001 -32c14.667 -15.333 22 -33 22 -53v-108h93z" />
    <glyph glyph-name="fraction" unicode="&#x2215;" 
d="M282 832v174c0 20 7.33301 37.667 22 53c14 16 32.333 26.667 55 32v-325zM507 528l0.000976562 -215c0 -19.333 -7.33301 -37 -22 -53c-14.667 -15.333 -33.334 -26 -56.001 -32v369zM600.001 898l-0.000976562 108c0 40.667 -16.333 76.667 -49 108
s-73.334 50 -122.001 56v81h-70v-81c-48.667 -6 -89 -24.667 -121 -56c-32.667 -31.333 -49 -67.333 -49 -108l1 -200l169 -148v-430c-22.667 6 -41 16.667 -55 32c-14.667 16 -22 33.667 -22 53v157h-93v-157c0 -40.667 16.333 -76.667 49 -108
c32 -30.667 72.333 -49.334 121 -56.001v-154h70v154c48.667 6.66699 89.334 25.334 122.001 56.001c32.667 31.333 49 67.333 49 108v249l-171 145v384c22.667 -5.33301 41.334 -16 56.001 -32c14.667 -15.333 22 -33 22 -53v-108h93z" />
    <glyph glyph-name="franc" unicode="&#x20a3;" 
d="M282 832v174c0 20 7.33301 37.667 22 53c14 16 32.333 26.667 55 32v-325zM507 528l0.000976562 -215c0 -19.333 -7.33301 -37 -22 -53c-14.667 -15.333 -33.334 -26 -56.001 -32v369zM600.001 898l-0.000976562 108c0 40.667 -16.333 76.667 -49 108
s-73.334 50 -122.001 56v81h-70v-81c-48.667 -6 -89 -24.667 -121 -56c-32.667 -31.333 -49 -67.333 -49 -108l1 -200l169 -148v-430c-22.667 6 -41 16.667 -55 32c-14.667 16 -22 33.667 -22 53v157h-93v-157c0 -40.667 16.333 -76.667 49 -108
c32 -30.667 72.333 -49.334 121 -56.001v-154h70v154c48.667 6.66699 89.334 25.334 122.001 56.001c32.667 31.333 49 67.333 49 108v249l-171 145v384c22.667 -5.33301 41.334 -16 56.001 -32c14.667 -15.333 22 -33 22 -53v-108h93z" />
    <glyph glyph-name="lira" unicode="&#x20a4;" 
d="M282 832v174c0 20 7.33301 37.667 22 53c14 16 32.333 26.667 55 32v-325zM507 528l0.000976562 -215c0 -19.333 -7.33301 -37 -22 -53c-14.667 -15.333 -33.334 -26 -56.001 -32v369zM600.001 898l-0.000976562 108c0 40.667 -16.333 76.667 -49 108
s-73.334 50 -122.001 56v81h-70v-81c-48.667 -6 -89 -24.667 -121 -56c-32.667 -31.333 -49 -67.333 -49 -108l1 -200l169 -148v-430c-22.667 6 -41 16.667 -55 32c-14.667 16 -22 33.667 -22 53v157h-93v-157c0 -40.667 16.333 -76.667 49 -108
c32 -30.667 72.333 -49.334 121 -56.001v-154h70v154c48.667 6.66699 89.334 25.334 122.001 56.001c32.667 31.333 49 67.333 49 108v249l-171 145v384c22.667 -5.33301 41.334 -16 56.001 -32c14.667 -15.333 22 -33 22 -53v-108h93z" />
    <glyph glyph-name="peseta" unicode="&#x20a7;" 
d="M282 832v174c0 20 7.33301 37.667 22 53c14 16 32.333 26.667 55 32v-325zM507 528l0.000976562 -215c0 -19.333 -7.33301 -37 -22 -53c-14.667 -15.333 -33.334 -26 -56.001 -32v369zM600.001 898l-0.000976562 108c0 40.667 -16.333 76.667 -49 108
s-73.334 50 -122.001 56v81h-70v-81c-48.667 -6 -89 -24.667 -121 -56c-32.667 -31.333 -49 -67.333 -49 -108l1 -200l169 -148v-430c-22.667 6 -41 16.667 -55 32c-14.667 16 -22 33.667 -22 53v157h-93v-157c0 -40.667 16.333 -76.667 49 -108
c32 -30.667 72.333 -49.334 121 -56.001v-154h70v154c48.667 6.66699 89.334 25.334 122.001 56.001c32.667 31.333 49 67.333 49 108v249l-171 145v384c22.667 -5.33301 41.334 -16 56.001 -32c14.667 -15.333 22 -33 22 -53v-108h93z" />
    <glyph glyph-name="Euro" unicode="&#x20ac;" 
d="M282 832v174c0 20 7.33301 37.667 22 53c14 16 32.333 26.667 55 32v-325zM507 528l0.000976562 -215c0 -19.333 -7.33301 -37 -22 -53c-14.667 -15.333 -33.334 -26 -56.001 -32v369zM600.001 898l-0.000976562 108c0 40.667 -16.333 76.667 -49 108
s-73.334 50 -122.001 56v81h-70v-81c-48.667 -6 -89 -24.667 -121 -56c-32.667 -31.333 -49 -67.333 -49 -108l1 -200l169 -148v-430c-22.667 6 -41 16.667 -55 32c-14.667 16 -22 33.667 -22 53v157h-93v-157c0 -40.667 16.333 -76.667 49 -108
c32 -30.667 72.333 -49.334 121 -56.001v-154h70v154c48.667 6.66699 89.334 25.334 122.001 56.001c32.667 31.333 49 67.333 49 108v249l-171 145v384c22.667 -5.33301 41.334 -16 56.001 -32c14.667 -15.333 22 -33 22 -53v-108h93z" />
    <glyph glyph-name="afii61352" unicode="&#x2116;" 
d="M282 832v174c0 20 7.33301 37.667 22 53c14 16 32.333 26.667 55 32v-325zM507 528l0.000976562 -215c0 -19.333 -7.33301 -37 -22 -53c-14.667 -15.333 -33.334 -26 -56.001 -32v369zM600.001 898l-0.000976562 108c0 40.667 -16.333 76.667 -49 108
s-73.334 50 -122.001 56v81h-70v-81c-48.667 -6 -89 -24.667 -121 -56c-32.667 -31.333 -49 -67.333 -49 -108l1 -200l169 -148v-430c-22.667 6 -41 16.667 -55 32c-14.667 16 -22 33.667 -22 53v157h-93v-157c0 -40.667 16.333 -76.667 49 -108
c32 -30.667 72.333 -49.334 121 -56.001v-154h70v154c48.667 6.66699 89.334 25.334 122.001 56.001c32.667 31.333 49 67.333 49 108v249l-171 145v384c22.667 -5.33301 41.334 -16 56.001 -32c14.667 -15.333 22 -33 22 -53v-108h93z" />
    <glyph glyph-name="glyph139" unicode="&#x2122;" 
d="M346 942v167.001c0 19.333 7.33301 36.333 22 51c14 15.333 32.333 25.666 55 30.999v-313zM571 649.001l0.000976562 -207c0 -18.667 -7.33301 -35.667 -22 -51c-14.667 -14.667 -33.334 -25 -56.001 -31v355zM664.001 1005l-0.000976562 103.999
c0 39.333 -16.333 74 -49 104s-73.334 48 -122.001 54v78h-70v-78c-48.667 -6 -89 -24 -121 -54c-32.667 -30 -49 -64.667 -49 -104l1 -192l169 -143v-414c-22.667 6 -41 16.333 -55 31c-14.667 15.333 -22 32.333 -22 51v151h-93v-151c0 -39.333 16.333 -74 49 -104
c32 -29.333 72.333 -47.333 121 -54v-148h70v148c48.667 6.66699 89.334 24.667 122.001 54c32.667 30 49 64.667 49 104v240l-171 139v370c22.667 -5.33301 41.334 -15.666 56.001 -30.999c14.667 -14.667 22 -31.667 22 -51v-104h93z" />
    <glyph glyph-name="partialdiff" unicode="&#x2202;" 
d="M282 832v174c0 20 7.33301 37.667 22 53c14 16 32.333 26.667 55 32v-325zM507 528l0.000976562 -215c0 -19.333 -7.33301 -37 -22 -53c-14.667 -15.333 -33.334 -26 -56.001 -32v369zM600.001 898l-0.000976562 108c0 40.667 -16.333 76.667 -49 108
s-73.334 50 -122.001 56v81h-70v-81c-48.667 -6 -89 -24.667 -121 -56c-32.667 -31.333 -49 -67.333 -49 -108l1 -200l169 -148v-430c-22.667 6 -41 16.667 -55 32c-14.667 16 -22 33.667 -22 53v157h-93v-157c0 -40.667 16.333 -76.667 49 -108
c32 -30.667 72.333 -49.334 121 -56.001v-154h70v154c48.667 6.66699 89.334 25.334 122.001 56.001c32.667 31.333 49 67.333 49 108v249l-171 145v384c22.667 -5.33301 41.334 -16 56.001 -32c14.667 -15.333 22 -33 22 -53v-108h93z" />
    <glyph glyph-name="Delta" unicode="&#x2206;" 
d="M282 832v174c0 20 7.33301 37.667 22 53c14 16 32.333 26.667 55 32v-325zM507 528l0.000976562 -215c0 -19.333 -7.33301 -37 -22 -53c-14.667 -15.333 -33.334 -26 -56.001 -32v369zM600.001 898l-0.000976562 108c0 40.667 -16.333 76.667 -49 108
s-73.334 50 -122.001 56v81h-70v-81c-48.667 -6 -89 -24.667 -121 -56c-32.667 -31.333 -49 -67.333 -49 -108l1 -200l169 -148v-430c-22.667 6 -41 16.667 -55 32c-14.667 16 -22 33.667 -22 53v157h-93v-157c0 -40.667 16.333 -76.667 49 -108
c32 -30.667 72.333 -49.334 121 -56.001v-154h70v154c48.667 6.66699 89.334 25.334 122.001 56.001c32.667 31.333 49 67.333 49 108v249l-171 145v384c22.667 -5.33301 41.334 -16 56.001 -32c14.667 -15.333 22 -33 22 -53v-108h93z" />
    <glyph glyph-name="product" unicode="&#x220f;" 
d="M346 942v167.001c0 19.333 7.33301 36.333 22 51c14 15.333 32.333 25.666 55 30.999v-313zM571 649.001l0.000976562 -207c0 -18.667 -7.33301 -35.667 -22 -51c-14.667 -14.667 -33.334 -25 -56.001 -31v355zM664.001 1005l-0.000976562 103.999
c0 39.333 -16.333 74 -49 104s-73.334 48 -122.001 54v78h-70v-78c-48.667 -6 -89 -24 -121 -54c-32.667 -30 -49 -64.667 -49 -104l1 -192l169 -143v-414c-22.667 6 -41 16.333 -55 31c-14.667 15.333 -22 32.333 -22 51v151h-93v-151c0 -39.333 16.333 -74 49 -104
c32 -29.333 72.333 -47.333 121 -54v-148h70v148c48.667 6.66699 89.334 24.667 122.001 54c32.667 30 49 64.667 49 104v240l-171 139v370c22.667 -5.33301 41.334 -15.666 56.001 -30.999c14.667 -14.667 22 -31.667 22 -51v-104h93z" />
    <glyph glyph-name="summation" unicode="&#x2211;" 
d="M282 832v174c0 20 7.33301 37.667 22 53c14 16 32.333 26.667 55 32v-325zM507 528l0.000976562 -215c0 -19.333 -7.33301 -37 -22 -53c-14.667 -15.333 -33.334 -26 -56.001 -32v369zM600.001 898l-0.000976562 108c0 40.667 -16.333 76.667 -49 108
s-73.334 50 -122.001 56v81h-70v-81c-48.667 -6 -89 -24.667 -121 -56c-32.667 -31.333 -49 -67.333 -49 -108l1 -200l169 -148v-430c-22.667 6 -41 16.667 -55 32c-14.667 16 -22 33.667 -22 53v157h-93v-157c0 -40.667 16.333 -76.667 49 -108
c32 -30.667 72.333 -49.334 121 -56.001v-154h70v154c48.667 6.66699 89.334 25.334 122.001 56.001c32.667 31.333 49 67.333 49 108v249l-171 145v384c22.667 -5.33301 41.334 -16 56.001 -32c14.667 -15.333 22 -33 22 -53v-108h93z" />
    <glyph glyph-name="minus" unicode="&#x2212;" 
d="M282 832v174c0 20 7.33301 37.667 22 53c14 16 32.333 26.667 55 32v-325zM507 528l0.000976562 -215c0 -19.333 -7.33301 -37 -22 -53c-14.667 -15.333 -33.334 -26 -56.001 -32v369zM600.001 898l-0.000976562 108c0 40.667 -16.333 76.667 -49 108
s-73.334 50 -122.001 56v81h-70v-81c-48.667 -6 -89 -24.667 -121 -56c-32.667 -31.333 -49 -67.333 -49 -108l1 -200l169 -148v-430c-22.667 6 -41 16.667 -55 32c-14.667 16 -22 33.667 -22 53v157h-93v-157c0 -40.667 16.333 -76.667 49 -108
c32 -30.667 72.333 -49.334 121 -56.001v-154h70v154c48.667 6.66699 89.334 25.334 122.001 56.001c32.667 31.333 49 67.333 49 108v249l-171 145v384c22.667 -5.33301 41.334 -16 56.001 -32c14.667 -15.333 22 -33 22 -53v-108h93z" />
    <glyph glyph-name="radical" unicode="&#x221a;" 
d="M282 832v174c0 20 7.33301 37.667 22 53c14 16 32.333 26.667 55 32v-325zM507 528l0.000976562 -215c0 -19.333 -7.33301 -37 -22 -53c-14.667 -15.333 -33.334 -26 -56.001 -32v369zM600.001 898l-0.000976562 108c0 40.667 -16.333 76.667 -49 108
s-73.334 50 -122.001 56v81h-70v-81c-48.667 -6 -89 -24.667 -121 -56c-32.667 -31.333 -49 -67.333 -49 -108l1 -200l169 -148v-430c-22.667 6 -41 16.667 -55 32c-14.667 16 -22 33.667 -22 53v157h-93v-157c0 -40.667 16.333 -76.667 49 -108
c32 -30.667 72.333 -49.334 121 -56.001v-154h70v154c48.667 6.66699 89.334 25.334 122.001 56.001c32.667 31.333 49 67.333 49 108v249l-171 145v384c22.667 -5.33301 41.334 -16 56.001 -32c14.667 -15.333 22 -33 22 -53v-108h93z" />
    <glyph glyph-name="infinity" unicode="&#x221e;" 
d="M282 832v174c0 20 7.33301 37.667 22 53c14 16 32.333 26.667 55 32v-325zM507 528l0.000976562 -215c0 -19.333 -7.33301 -37 -22 -53c-14.667 -15.333 -33.334 -26 -56.001 -32v369zM600.001 898l-0.000976562 108c0 40.667 -16.333 76.667 -49 108
s-73.334 50 -122.001 56v81h-70v-81c-48.667 -6 -89 -24.667 -121 -56c-32.667 -31.333 -49 -67.333 -49 -108l1 -200l169 -148v-430c-22.667 6 -41 16.667 -55 32c-14.667 16 -22 33.667 -22 53v157h-93v-157c0 -40.667 16.333 -76.667 49 -108
c32 -30.667 72.333 -49.334 121 -56.001v-154h70v154c48.667 6.66699 89.334 25.334 122.001 56.001c32.667 31.333 49 67.333 49 108v249l-171 145v384c22.667 -5.33301 41.334 -16 56.001 -32c14.667 -15.333 22 -33 22 -53v-108h93z" />
    <glyph glyph-name="integral" unicode="&#x222b;" 
d="M282 832v174c0 20 7.33301 37.667 22 53c14 16 32.333 26.667 55 32v-325zM507 528l0.000976562 -215c0 -19.333 -7.33301 -37 -22 -53c-14.667 -15.333 -33.334 -26 -56.001 -32v369zM600.001 898l-0.000976562 108c0 40.667 -16.333 76.667 -49 108
s-73.334 50 -122.001 56v81h-70v-81c-48.667 -6 -89 -24.667 -121 -56c-32.667 -31.333 -49 -67.333 -49 -108l1 -200l169 -148v-430c-22.667 6 -41 16.667 -55 32c-14.667 16 -22 33.667 -22 53v157h-93v-157c0 -40.667 16.333 -76.667 49 -108
c32 -30.667 72.333 -49.334 121 -56.001v-154h70v154c48.667 6.66699 89.334 25.334 122.001 56.001c32.667 31.333 49 67.333 49 108v249l-171 145v384c22.667 -5.33301 41.334 -16 56.001 -32c14.667 -15.333 22 -33 22 -53v-108h93z" />
    <glyph glyph-name="approxequal" unicode="&#x2248;" 
d="M282 832v174c0 20 7.33301 37.667 22 53c14 16 32.333 26.667 55 32v-325zM507 528l0.000976562 -215c0 -19.333 -7.33301 -37 -22 -53c-14.667 -15.333 -33.334 -26 -56.001 -32v369zM600.001 898l-0.000976562 108c0 40.667 -16.333 76.667 -49 108
s-73.334 50 -122.001 56v81h-70v-81c-48.667 -6 -89 -24.667 -121 -56c-32.667 -31.333 -49 -67.333 -49 -108l1 -200l169 -148v-430c-22.667 6 -41 16.667 -55 32c-14.667 16 -22 33.667 -22 53v157h-93v-157c0 -40.667 16.333 -76.667 49 -108
c32 -30.667 72.333 -49.334 121 -56.001v-154h70v154c48.667 6.66699 89.334 25.334 122.001 56.001c32.667 31.333 49 67.333 49 108v249l-171 145v384c22.667 -5.33301 41.334 -16 56.001 -32c14.667 -15.333 22 -33 22 -53v-108h93z" />
    <glyph glyph-name="lessequal" unicode="&#x2264;" 
d="M282 832v174c0 20 7.33301 37.667 22 53c14 16 32.333 26.667 55 32v-325zM507 528l0.000976562 -215c0 -19.333 -7.33301 -37 -22 -53c-14.667 -15.333 -33.334 -26 -56.001 -32v369zM600.001 898l-0.000976562 108c0 40.667 -16.333 76.667 -49 108
s-73.334 50 -122.001 56v81h-70v-81c-48.667 -6 -89 -24.667 -121 -56c-32.667 -31.333 -49 -67.333 -49 -108l1 -200l169 -148v-430c-22.667 6 -41 16.667 -55 32c-14.667 16 -22 33.667 -22 53v157h-93v-157c0 -40.667 16.333 -76.667 49 -108
c32 -30.667 72.333 -49.334 121 -56.001v-154h70v154c48.667 6.66699 89.334 25.334 122.001 56.001c32.667 31.333 49 67.333 49 108v249l-171 145v384c22.667 -5.33301 41.334 -16 56.001 -32c14.667 -15.333 22 -33 22 -53v-108h93z" />
    <glyph glyph-name="greaterequal" unicode="&#x2265;" 
d="M282 832v174c0 20 7.33301 37.667 22 53c14 16 32.333 26.667 55 32v-325zM507 528l0.000976562 -215c0 -19.333 -7.33301 -37 -22 -53c-14.667 -15.333 -33.334 -26 -56.001 -32v369zM600.001 898l-0.000976562 108c0 40.667 -16.333 76.667 -49 108
s-73.334 50 -122.001 56v81h-70v-81c-48.667 -6 -89 -24.667 -121 -56c-32.667 -31.333 -49 -67.333 -49 -108l1 -200l169 -148v-430c-22.667 6 -41 16.667 -55 32c-14.667 16 -22 33.667 -22 53v157h-93v-157c0 -40.667 16.333 -76.667 49 -108
c32 -30.667 72.333 -49.334 121 -56.001v-154h70v154c48.667 6.66699 89.334 25.334 122.001 56.001c32.667 31.333 49 67.333 49 108v249l-171 145v384c22.667 -5.33301 41.334 -16 56.001 -32c14.667 -15.333 22 -33 22 -53v-108h93z" />
    <glyph glyph-name="fi" unicode="&#xf001;" 
d="M282 832v174c0 20 7.33301 37.667 22 53c14 16 32.333 26.667 55 32v-325zM507 528l0.000976562 -215c0 -19.333 -7.33301 -37 -22 -53c-14.667 -15.333 -33.334 -26 -56.001 -32v369zM600.001 898l-0.000976562 108c0 40.667 -16.333 76.667 -49 108
s-73.334 50 -122.001 56v81h-70v-81c-48.667 -6 -89 -24.667 -121 -56c-32.667 -31.333 -49 -67.333 -49 -108l1 -200l169 -148v-430c-22.667 6 -41 16.667 -55 32c-14.667 16 -22 33.667 -22 53v157h-93v-157c0 -40.667 16.333 -76.667 49 -108
c32 -30.667 72.333 -49.334 121 -56.001v-154h70v154c48.667 6.66699 89.334 25.334 122.001 56.001c32.667 31.333 49 67.333 49 108v249l-171 145v384c22.667 -5.33301 41.334 -16 56.001 -32c14.667 -15.333 22 -33 22 -53v-108h93z" />
    <glyph glyph-name="fl" unicode="&#xf002;" 
d="M282 832v174c0 20 7.33301 37.667 22 53c14 16 32.333 26.667 55 32v-325zM507 528l0.000976562 -215c0 -19.333 -7.33301 -37 -22 -53c-14.667 -15.333 -33.334 -26 -56.001 -32v369zM600.001 898l-0.000976562 108c0 40.667 -16.333 76.667 -49 108
s-73.334 50 -122.001 56v81h-70v-81c-48.667 -6 -89 -24.667 -121 -56c-32.667 -31.333 -49 -67.333 -49 -108l1 -200l169 -148v-430c-22.667 6 -41 16.667 -55 32c-14.667 16 -22 33.667 -22 53v157h-93v-157c0 -40.667 16.333 -76.667 49 -108
c32 -30.667 72.333 -49.334 121 -56.001v-154h70v154c48.667 6.66699 89.334 25.334 122.001 56.001c32.667 31.333 49 67.333 49 108v249l-171 145v384c22.667 -5.33301 41.334 -16 56.001 -32c14.667 -15.333 22 -33 22 -53v-108h93z" />
    <glyph glyph-name="uniF001" unicode="&#xfb01;" 
d="M346 942v167.001c0 19.333 7.33301 36.333 22 51c14 15.333 32.333 25.666 55 30.999v-313zM571 649.001l0.000976562 -207c0 -18.667 -7.33301 -35.667 -22 -51c-14.667 -14.667 -33.334 -25 -56.001 -31v355zM664.001 1005l-0.000976562 103.999
c0 39.333 -16.333 74 -49 104s-73.334 48 -122.001 54v78h-70v-78c-48.667 -6 -89 -24 -121 -54c-32.667 -30 -49 -64.667 -49 -104l1 -192l169 -143v-414c-22.667 6 -41 16.333 -55 31c-14.667 15.333 -22 32.333 -22 51v151h-93v-151c0 -39.333 16.333 -74 49 -104
c32 -29.333 72.333 -47.333 121 -54v-148h70v148c48.667 6.66699 89.334 24.667 122.001 54c32.667 30 49 64.667 49 104v240l-171 139v370c22.667 -5.33301 41.334 -15.666 56.001 -30.999c14.667 -14.667 22 -31.667 22 -51v-104h93z" />
    <glyph glyph-name="uniF002" unicode="&#xfb02;" 
d="M282 832v174c0 20 7.33301 37.667 22 53c14 16 32.333 26.667 55 32v-325zM507 528l0.000976562 -215c0 -19.333 -7.33301 -37 -22 -53c-14.667 -15.333 -33.334 -26 -56.001 -32v369zM600.001 898l-0.000976562 108c0 40.667 -16.333 76.667 -49 108
s-73.334 50 -122.001 56v81h-70v-81c-48.667 -6 -89 -24.667 -121 -56c-32.667 -31.333 -49 -67.333 -49 -108l1 -200l169 -148v-430c-22.667 6 -41 16.667 -55 32c-14.667 16 -22 33.667 -22 53v157h-93v-157c0 -40.667 16.333 -76.667 49 -108
c32 -30.667 72.333 -49.334 121 -56.001v-154h70v154c48.667 6.66699 89.334 25.334 122.001 56.001c32.667 31.333 49 67.333 49 108v249l-171 145v384c22.667 -5.33301 41.334 -16 56.001 -32c14.667 -15.333 22 -33 22 -53v-108h93z" />
    <glyph glyph-name=".null" horiz-adv-x="0" 
 />
    <glyph glyph-name="nonmarkingreturn" horiz-adv-x="508" 
 />
    <glyph glyph-name="glyph101" 
d="M346 942v167.001c0 19.333 7.33301 36.333 22 51c14 15.333 32.333 25.666 55 30.999v-313zM571 649.001l0.000976562 -207c0 -18.667 -7.33301 -35.667 -22 -51c-14.667 -14.667 -33.334 -25 -56.001 -31v355zM664.001 1005l-0.000976562 103.999
c0 39.333 -16.333 74 -49 104s-73.334 48 -122.001 54v78h-70v-78c-48.667 -6 -89 -24 -121 -54c-32.667 -30 -49 -64.667 -49 -104l1 -192l169 -143v-414c-22.667 6 -41 16.333 -55 31c-14.667 15.333 -22 32.333 -22 51v151h-93v-151c0 -39.333 16.333 -74 49 -104
c32 -29.333 72.333 -47.333 121 -54v-148h70v148c48.667 6.66699 89.334 24.667 122.001 54c32.667 30 49 64.667 49 104v240l-171 139v370c22.667 -5.33301 41.334 -15.666 56.001 -30.999c14.667 -14.667 22 -31.667 22 -51v-104h93z" />
    <glyph glyph-name="tilde" 
d="M282 832v174c0 20 7.33301 37.667 22 53c14 16 32.333 26.667 55 32v-325zM507 528l0.000976562 -215c0 -19.333 -7.33301 -37 -22 -53c-14.667 -15.333 -33.334 -26 -56.001 -32v369zM600.001 898l-0.000976562 108c0 40.667 -16.333 76.667 -49 108
s-73.334 50 -122.001 56v81h-70v-81c-48.667 -6 -89 -24.667 -121 -56c-32.667 -31.333 -49 -67.333 -49 -108l1 -200l169 -148v-430c-22.667 6 -41 16.667 -55 32c-14.667 16 -22 33.667 -22 53v157h-93v-157c0 -40.667 16.333 -76.667 49 -108
c32 -30.667 72.333 -49.334 121 -56.001v-154h70v154c48.667 6.66699 89.334 25.334 122.001 56.001c32.667 31.333 49 67.333 49 108v249l-171 145v384c22.667 -5.33301 41.334 -16 56.001 -32c14.667 -15.333 22 -33 22 -53v-108h93z" />
    <glyph glyph-name="endash" 
d="M282 832v174c0 20 7.33301 37.667 22 53c14 16 32.333 26.667 55 32v-325zM507 528l0.000976562 -215c0 -19.333 -7.33301 -37 -22 -53c-14.667 -15.333 -33.334 -26 -56.001 -32v369zM600.001 898l-0.000976562 108c0 40.667 -16.333 76.667 -49 108
s-73.334 50 -122.001 56v81h-70v-81c-48.667 -6 -89 -24.667 -121 -56c-32.667 -31.333 -49 -67.333 -49 -108l1 -200l169 -148v-430c-22.667 6 -41 16.667 -55 32c-14.667 16 -22 33.667 -22 53v157h-93v-157c0 -40.667 16.333 -76.667 49 -108
c32 -30.667 72.333 -49.334 121 -56.001v-154h70v154c48.667 6.66699 89.334 25.334 122.001 56.001c32.667 31.333 49 67.333 49 108v249l-171 145v384c22.667 -5.33301 41.334 -16 56.001 -32c14.667 -15.333 22 -33 22 -53v-108h93z" />
    <glyph glyph-name="emdash" 
d="M282 832v174c0 20 7.33301 37.667 22 53c14 16 32.333 26.667 55 32v-325zM507 528l0.000976562 -215c0 -19.333 -7.33301 -37 -22 -53c-14.667 -15.333 -33.334 -26 -56.001 -32v369zM600.001 898l-0.000976562 108c0 40.667 -16.333 76.667 -49 108
s-73.334 50 -122.001 56v81h-70v-81c-48.667 -6 -89 -24.667 -121 -56c-32.667 -31.333 -49 -67.333 -49 -108l1 -200l169 -148v-430c-22.667 6 -41 16.667 -55 32c-14.667 16 -22 33.667 -22 53v157h-93v-157c0 -40.667 16.333 -76.667 49 -108
c32 -30.667 72.333 -49.334 121 -56.001v-154h70v154c48.667 6.66699 89.334 25.334 122.001 56.001c32.667 31.333 49 67.333 49 108v249l-171 145v384c22.667 -5.33301 41.334 -16 56.001 -32c14.667 -15.333 22 -33 22 -53v-108h93z" />
    <glyph glyph-name="quoteleft" 
d="M282 832v174c0 20 7.33301 37.667 22 53c14 16 32.333 26.667 55 32v-325zM507 528l0.000976562 -215c0 -19.333 -7.33301 -37 -22 -53c-14.667 -15.333 -33.334 -26 -56.001 -32v369zM600.001 898l-0.000976562 108c0 40.667 -16.333 76.667 -49 108
s-73.334 50 -122.001 56v81h-70v-81c-48.667 -6 -89 -24.667 -121 -56c-32.667 -31.333 -49 -67.333 -49 -108l1 -200l169 -148v-430c-22.667 6 -41 16.667 -55 32c-14.667 16 -22 33.667 -22 53v157h-93v-157c0 -40.667 16.333 -76.667 49 -108
c32 -30.667 72.333 -49.334 121 -56.001v-154h70v154c48.667 6.66699 89.334 25.334 122.001 56.001c32.667 31.333 49 67.333 49 108v249l-171 145v384c22.667 -5.33301 41.334 -16 56.001 -32c14.667 -15.333 22 -33 22 -53v-108h93z" />
    <glyph glyph-name="quoteright" 
d="M282 832v174c0 20 7.33301 37.667 22 53c14 16 32.333 26.667 55 32v-325zM507 528l0.000976562 -215c0 -19.333 -7.33301 -37 -22 -53c-14.667 -15.333 -33.334 -26 -56.001 -32v369zM600.001 898l-0.000976562 108c0 40.667 -16.333 76.667 -49 108
s-73.334 50 -122.001 56v81h-70v-81c-48.667 -6 -89 -24.667 -121 -56c-32.667 -31.333 -49 -67.333 -49 -108l1 -200l169 -148v-430c-22.667 6 -41 16.667 -55 32c-14.667 16 -22 33.667 -22 53v157h-93v-157c0 -40.667 16.333 -76.667 49 -108
c32 -30.667 72.333 -49.334 121 -56.001v-154h70v154c48.667 6.66699 89.334 25.334 122.001 56.001c32.667 31.333 49 67.333 49 108v249l-171 145v384c22.667 -5.33301 41.334 -16 56.001 -32c14.667 -15.333 22 -33 22 -53v-108h93z" />
    <glyph glyph-name="quotedblleft" 
d="M282 832v174c0 20 7.33301 37.667 22 53c14 16 32.333 26.667 55 32v-325zM507 528l0.000976562 -215c0 -19.333 -7.33301 -37 -22 -53c-14.667 -15.333 -33.334 -26 -56.001 -32v369zM600.001 898l-0.000976562 108c0 40.667 -16.333 76.667 -49 108
s-73.334 50 -122.001 56v81h-70v-81c-48.667 -6 -89 -24.667 -121 -56c-32.667 -31.333 -49 -67.333 -49 -108l1 -200l169 -148v-430c-22.667 6 -41 16.667 -55 32c-14.667 16 -22 33.667 -22 53v157h-93v-157c0 -40.667 16.333 -76.667 49 -108
c32 -30.667 72.333 -49.334 121 -56.001v-154h70v154c48.667 6.66699 89.334 25.334 122.001 56.001c32.667 31.333 49 67.333 49 108v249l-171 145v384c22.667 -5.33301 41.334 -16 56.001 -32c14.667 -15.333 22 -33 22 -53v-108h93z" />
    <glyph glyph-name="quotedblright" 
d="M282 832v174c0 20 7.33301 37.667 22 53c14 16 32.333 26.667 55 32v-325zM507 528l0.000976562 -215c0 -19.333 -7.33301 -37 -22 -53c-14.667 -15.333 -33.334 -26 -56.001 -32v369zM600.001 898l-0.000976562 108c0 40.667 -16.333 76.667 -49 108
s-73.334 50 -122.001 56v81h-70v-81c-48.667 -6 -89 -24.667 -121 -56c-32.667 -31.333 -49 -67.333 -49 -108l1 -200l169 -148v-430c-22.667 6 -41 16.667 -55 32c-14.667 16 -22 33.667 -22 53v157h-93v-157c0 -40.667 16.333 -76.667 49 -108
c32 -30.667 72.333 -49.334 121 -56.001v-154h70v154c48.667 6.66699 89.334 25.334 122.001 56.001c32.667 31.333 49 67.333 49 108v249l-171 145v384c22.667 -5.33301 41.334 -16 56.001 -32c14.667 -15.333 22 -33 22 -53v-108h93z" />
    <glyph glyph-name="quotedblbase" 
d="M282 832v174c0 20 7.33301 37.667 22 53c14 16 32.333 26.667 55 32v-325zM507 528l0.000976562 -215c0 -19.333 -7.33301 -37 -22 -53c-14.667 -15.333 -33.334 -26 -56.001 -32v369zM600.001 898l-0.000976562 108c0 40.667 -16.333 76.667 -49 108
s-73.334 50 -122.001 56v81h-70v-81c-48.667 -6 -89 -24.667 -121 -56c-32.667 -31.333 -49 -67.333 -49 -108l1 -200l169 -148v-430c-22.667 6 -41 16.667 -55 32c-14.667 16 -22 33.667 -22 53v157h-93v-157c0 -40.667 16.333 -76.667 49 -108
c32 -30.667 72.333 -49.334 121 -56.001v-154h70v154c48.667 6.66699 89.334 25.334 122.001 56.001c32.667 31.333 49 67.333 49 108v249l-171 145v384c22.667 -5.33301 41.334 -16 56.001 -32c14.667 -15.333 22 -33 22 -53v-108h93z" />
    <glyph glyph-name="dagger" 
d="M282 832v174c0 20 7.33301 37.667 22 53c14 16 32.333 26.667 55 32v-325zM507 528l0.000976562 -215c0 -19.333 -7.33301 -37 -22 -53c-14.667 -15.333 -33.334 -26 -56.001 -32v369zM600.001 898l-0.000976562 108c0 40.667 -16.333 76.667 -49 108
s-73.334 50 -122.001 56v81h-70v-81c-48.667 -6 -89 -24.667 -121 -56c-32.667 -31.333 -49 -67.333 -49 -108l1 -200l169 -148v-430c-22.667 6 -41 16.667 -55 32c-14.667 16 -22 33.667 -22 53v157h-93v-157c0 -40.667 16.333 -76.667 49 -108
c32 -30.667 72.333 -49.334 121 -56.001v-154h70v154c48.667 6.66699 89.334 25.334 122.001 56.001c32.667 31.333 49 67.333 49 108v249l-171 145v384c22.667 -5.33301 41.334 -16 56.001 -32c14.667 -15.333 22 -33 22 -53v-108h93z" />
    <glyph glyph-name="daggerdbl" 
d="M282 832v174c0 20 7.33301 37.667 22 53c14 16 32.333 26.667 55 32v-325zM507 528l0.000976562 -215c0 -19.333 -7.33301 -37 -22 -53c-14.667 -15.333 -33.334 -26 -56.001 -32v369zM600.001 898l-0.000976562 108c0 40.667 -16.333 76.667 -49 108
s-73.334 50 -122.001 56v81h-70v-81c-48.667 -6 -89 -24.667 -121 -56c-32.667 -31.333 -49 -67.333 -49 -108l1 -200l169 -148v-430c-22.667 6 -41 16.667 -55 32c-14.667 16 -22 33.667 -22 53v157h-93v-157c0 -40.667 16.333 -76.667 49 -108
c32 -30.667 72.333 -49.334 121 -56.001v-154h70v154c48.667 6.66699 89.334 25.334 122.001 56.001c32.667 31.333 49 67.333 49 108v249l-171 145v384c22.667 -5.33301 41.334 -16 56.001 -32c14.667 -15.333 22 -33 22 -53v-108h93z" />
    <glyph glyph-name="bullet" 
d="M282 832v174c0 20 7.33301 37.667 22 53c14 16 32.333 26.667 55 32v-325zM507 528l0.000976562 -215c0 -19.333 -7.33301 -37 -22 -53c-14.667 -15.333 -33.334 -26 -56.001 -32v369zM600.001 898l-0.000976562 108c0 40.667 -16.333 76.667 -49 108
s-73.334 50 -122.001 56v81h-70v-81c-48.667 -6 -89 -24.667 -121 -56c-32.667 -31.333 -49 -67.333 -49 -108l1 -200l169 -148v-430c-22.667 6 -41 16.667 -55 32c-14.667 16 -22 33.667 -22 53v157h-93v-157c0 -40.667 16.333 -76.667 49 -108
c32 -30.667 72.333 -49.334 121 -56.001v-154h70v154c48.667 6.66699 89.334 25.334 122.001 56.001c32.667 31.333 49 67.333 49 108v249l-171 145v384c22.667 -5.33301 41.334 -16 56.001 -32c14.667 -15.333 22 -33 22 -53v-108h93z" />
    <glyph glyph-name="ellipsis" 
d="M282 832v174c0 20 7.33301 37.667 22 53c14 16 32.333 26.667 55 32v-325zM507 528l0.000976562 -215c0 -19.333 -7.33301 -37 -22 -53c-14.667 -15.333 -33.334 -26 -56.001 -32v369zM600.001 898l-0.000976562 108c0 40.667 -16.333 76.667 -49 108
s-73.334 50 -122.001 56v81h-70v-81c-48.667 -6 -89 -24.667 -121 -56c-32.667 -31.333 -49 -67.333 -49 -108l1 -200l169 -148v-430c-22.667 6 -41 16.667 -55 32c-14.667 16 -22 33.667 -22 53v157h-93v-157c0 -40.667 16.333 -76.667 49 -108
c32 -30.667 72.333 -49.334 121 -56.001v-154h70v154c48.667 6.66699 89.334 25.334 122.001 56.001c32.667 31.333 49 67.333 49 108v249l-171 145v384c22.667 -5.33301 41.334 -16 56.001 -32c14.667 -15.333 22 -33 22 -53v-108h93z" />
    <glyph glyph-name="guilsinglleft" 
d="M282 832v174c0 20 7.33301 37.667 22 53c14 16 32.333 26.667 55 32v-325zM507 528l0.000976562 -215c0 -19.333 -7.33301 -37 -22 -53c-14.667 -15.333 -33.334 -26 -56.001 -32v369zM600.001 898l-0.000976562 108c0 40.667 -16.333 76.667 -49 108
s-73.334 50 -122.001 56v81h-70v-81c-48.667 -6 -89 -24.667 -121 -56c-32.667 -31.333 -49 -67.333 -49 -108l1 -200l169 -148v-430c-22.667 6 -41 16.667 -55 32c-14.667 16 -22 33.667 -22 53v157h-93v-157c0 -40.667 16.333 -76.667 49 -108
c32 -30.667 72.333 -49.334 121 -56.001v-154h70v154c48.667 6.66699 89.334 25.334 122.001 56.001c32.667 31.333 49 67.333 49 108v249l-171 145v384c22.667 -5.33301 41.334 -16 56.001 -32c14.667 -15.333 22 -33 22 -53v-108h93z" />
    <glyph glyph-name="guilsinglright" 
d="M346 942v167.001c0 19.333 7.33301 36.333 22 51c14 15.333 32.333 25.666 55 30.999v-313zM571 649.001l0.000976562 -207c0 -18.667 -7.33301 -35.667 -22 -51c-14.667 -14.667 -33.334 -25 -56.001 -31v355zM664.001 1005l-0.000976562 103.999
c0 39.333 -16.333 74 -49 104s-73.334 48 -122.001 54v78h-70v-78c-48.667 -6 -89 -24 -121 -54c-32.667 -30 -49 -64.667 -49 -104l1 -192l169 -143v-414c-22.667 6 -41 16.333 -55 31c-14.667 15.333 -22 32.333 -22 51v151h-93v-151c0 -39.333 16.333 -74 49 -104
c32 -29.333 72.333 -47.333 121 -54v-148h70v148c48.667 6.66699 89.334 24.667 122.001 54c32.667 30 49 64.667 49 104v240l-171 139v370c22.667 -5.33301 41.334 -15.666 56.001 -30.999c14.667 -14.667 22 -31.667 22 -51v-104h93z" />
    <glyph glyph-name="trademark" 
d="M282 832v174c0 20 7.33301 37.667 22 53c14 16 32.333 26.667 55 32v-325zM507 528l0.000976562 -215c0 -19.333 -7.33301 -37 -22 -53c-14.667 -15.333 -33.334 -26 -56.001 -32v369zM600.001 898l-0.000976562 108c0 40.667 -16.333 76.667 -49 108
s-73.334 50 -122.001 56v81h-70v-81c-48.667 -6 -89 -24.667 -121 -56c-32.667 -31.333 -49 -67.333 -49 -108l1 -200l169 -148v-430c-22.667 6 -41 16.667 -55 32c-14.667 16 -22 33.667 -22 53v157h-93v-157c0 -40.667 16.333 -76.667 49 -108
c32 -30.667 72.333 -49.334 121 -56.001v-154h70v154c48.667 6.66699 89.334 25.334 122.001 56.001c32.667 31.333 49 67.333 49 108v249l-171 145v384c22.667 -5.33301 41.334 -16 56.001 -32c14.667 -15.333 22 -33 22 -53v-108h93z" />
  </font>
</defs>
</svg>
