<?xml version="1.0" encoding="utf-8"?>
<!-- Generator: Adobe Illustrator 16.0.0, SVG Export Plug-In . SVG Version: 6.00 Build 0)  -->
<!DOCTYPE svg PUBLIC "-//W3C//DTD SVG 1.1//EN" "http://www.w3.org/Graphics/SVG/1.1/DTD/svg11.dtd">
<svg version="1.1" id="Layer_1" xmlns="http://www.w3.org/2000/svg" xmlns:xlink="http://www.w3.org/1999/xlink" x="0px" y="0px"
	 width="960px" height="560px" viewBox="0 0 960 560" enable-background="new 0 0 960 560" xml:space="preserve">
<path fill="none" stroke="#000000" stroke-width="6" stroke-miterlimit="10" d="M485,320.5L308,263v-69l176.5-56L662,194.5V263
	L485,320.5z"/>
<path fill="none" stroke="#000000" stroke-width="2" stroke-linecap="round" stroke-miterlimit="10" d="M485.28,163.313v34.371
	 M485.34,163.435l17.379,24.954 M485.28,163.313l-17.185,25.777 M468.096,189.091l17.185,8.593 M485.28,197.684l17.623-8.91
	 M468.096,189.091V172.41 M468.096,172.41l17.185,5.877 M485.28,178.287l17.438-6.191 M485.28,178.287l-17.185,10.804
	 M468.096,172.41l17.185,25.274 M502.719,172.41l-17.438,25.274 M485.28,178.287l16.996,10.102 M502.903,172.096v16.292"/>
<path fill="none" stroke="#000000" stroke-width="3" stroke-miterlimit="10" d="M384,264.5h204"/>
<g>
	<g>
		<g>
			<path d="M361.214,215.667h-2.685h-1.951v36.856h4.636c1.27,0,2.348-0.428,3.236-1.285c0.887-0.856,1.331-1.897,1.331-3.121
				V233.36c0-1.178-0.429-2.195-1.285-3.052l-0.78-0.78l0.78-0.803c0.856-0.841,1.285-1.851,1.285-3.029v-5.623
				c0-1.224-0.444-2.264-1.331-3.121C363.563,216.095,362.484,215.667,361.214,215.667z M363.831,233.36v14.756
				c0,0.719-0.252,1.331-0.757,1.836c-0.521,0.505-1.14,0.757-1.859,0.757h-2.685v-19.92l2.685-0.023
				c0.719,0,1.338,0.252,1.859,0.757C363.578,232.029,363.831,232.642,363.831,233.36z M363.831,225.695
				c0,0.704-0.252,1.308-0.757,1.813c-0.521,0.521-1.14,0.78-1.859,0.78l-2.685-0.023v-10.786h2.685
				c0.719,0,1.338,0.252,1.859,0.757c0.505,0.505,0.757,1.117,0.757,1.836V225.695z"/>
			<path d="M577.189,231.226c1.545-1.407,2.317-2.532,2.317-3.374v-7.688c-0.29-1.897-0.994-3.167-2.111-3.81
				c-0.795-0.459-2.104-0.688-3.924-0.688h-3.098v36.879h1.996v-18.153l0.619-0.298c0.199-0.092,0.429-0.207,0.689-0.344
				l1.354-0.734l3.396,19.53h1.974l-3.649-20.907L577.189,231.226z M574.068,231.318l-1.698,1.125v-14.986l1.147,0.046
				c2.463,0.123,3.778,0.941,3.947,2.456v0.138v7.757C577.465,228.679,576.332,229.834,574.068,231.318z"/>
			<polygon points="605.792,215.598 605.792,217.686 609.327,217.686 609.327,252.477 611.323,252.477 611.323,217.686 
				614.857,217.686 614.857,215.598 			"/>
			<path d="M398.721,231.226c1.545-1.407,2.318-2.532,2.318-3.374v-7.688c-0.291-1.897-0.995-3.167-2.111-3.81
				c-0.796-0.459-2.104-0.688-3.924-0.688h-3.098v36.879h1.997v-18.153l0.62-0.298c0.199-0.092,0.428-0.207,0.688-0.344l1.354-0.734
				l3.396,19.53h1.974l-3.649-20.907L398.721,231.226z M395.6,231.318l-1.698,1.125v-14.986l1.147,0.046
				c2.463,0.123,3.779,0.941,3.947,2.456v0.138v7.757C398.997,228.679,397.864,229.834,395.6,231.318z"/>
			<path d="M504.38,215.758c-1.408,0-2.609,0.429-3.604,1.285c-0.995,0.857-1.492,1.897-1.492,3.121v27.929
				c0,1.224,0.497,2.265,1.492,3.121c0.994,0.857,2.195,1.285,3.604,1.285c1.407,0,2.607-0.428,3.603-1.285
				c0.994-0.856,1.491-1.897,1.491-3.121V230.01h-4.818v1.606h2.615v16.478c0,0.704-0.283,1.308-0.849,1.813
				c-0.566,0.505-1.247,0.757-2.042,0.757c-0.796,0-1.478-0.252-2.043-0.757c-0.566-0.505-0.85-1.109-0.85-1.813v-27.929
				c0-0.704,0.283-1.308,0.85-1.813c0.565-0.505,1.247-0.757,2.043-0.757c0.795,0,1.476,0.252,2.042,0.757
				c0.565,0.505,0.849,1.109,0.849,1.813v2.295h2.203v-2.295c0-1.224-0.497-2.264-1.491-3.121
				C506.987,216.187,505.787,215.758,504.38,215.758z"/>
			<path d="M537.525,215.689l-3.236,36.811h1.928l0.528-5.944h5.944l0.527,5.944h1.928l-3.236-36.811H537.525z M536.975,244.399
				l2.502-27.493h0.504l2.479,27.493H536.975z"/>
			<path d="M467.997,215.758c-1.408,0-2.609,0.429-3.603,1.285c-0.995,0.857-1.492,1.897-1.492,3.121v27.929
				c0,1.224,0.497,2.265,1.492,3.121c0.994,0.857,2.195,1.285,3.603,1.285c1.407,0,2.608-0.428,3.603-1.285
				c0.994-0.856,1.492-1.897,1.492-3.121V230.01h-4.819v1.606h2.616v16.478c0,0.704-0.283,1.308-0.849,1.813
				c-0.566,0.505-1.247,0.757-2.042,0.757c-0.796,0-1.477-0.252-2.042-0.757c-0.566-0.505-0.849-1.109-0.849-1.813v-27.929
				c0-0.704,0.283-1.308,0.849-1.813c0.566-0.505,1.247-0.757,2.042-0.757c0.795,0,1.476,0.252,2.042,0.757
				c0.566,0.505,0.849,1.109,0.849,1.813v2.295h2.203v-2.295c0-1.224-0.498-2.264-1.492-3.121
				C470.605,216.187,469.404,215.758,467.997,215.758z"/>
			<path d="M430.101,215.689l-3.236,36.811h1.928l0.528-5.944h5.944l0.528,5.944h1.928l-3.236-36.811H430.101z M429.55,244.399
				l2.501-27.493h0.505l2.479,27.493H429.55z"/>
		</g>
	</g>
</g>
<g>
	<g>
		<g>
			<path d="M454.849,275.252L452.575,284h1.212l0.438-1.787h2.475l0.45,1.787h1.212l-2.274-8.748H454.849z M454.462,281.176
				l0.812-3.299c0.087-0.337,0.188-0.862,0.188-0.862h0.025c0,0,0.087,0.525,0.175,0.862l0.812,3.299H454.462z"/>
			<polygon points="470.036,284 474.46,284 474.46,282.9 471.187,282.9 471.187,280.476 473.973,280.476 473.973,279.376 
				471.187,279.376 471.187,276.364 474.46,276.364 474.46,275.252 470.036,275.252 			"/>
			<path d="M446.636,278.301c-0.15,0.288-0.362,0.712-0.362,0.712h-0.025c0,0-0.2-0.425-0.35-0.7l-1.625-3.062h-1.25V284h1.1v-5.936
				c0-0.35-0.013-0.787-0.013-0.787h0.025c0,0,0.2,0.4,0.35,0.687l1.725,3.161h0.1l1.762-3.173c0.162-0.288,0.325-0.663,0.325-0.663
				h0.025c0,0-0.012,0.413-0.012,0.775V284h1.112v-8.748h-1.262L446.636,278.301z"/>
			<path d="M463.424,275.252h-2.012V284h2.062c2.312,0,3.149-1.975,3.149-4.374S465.786,275.252,463.424,275.252z M463.474,282.9
				h-0.913v-6.548h0.862c1.438,0,2.037,1.35,2.037,3.274C465.461,281.551,464.861,282.9,463.474,282.9z"/>
			<polygon points="483.174,284 484.324,284 484.324,280.838 487.099,280.838 487.099,279.739 484.324,279.739 484.324,276.364 
				487.598,276.364 487.598,275.252 483.174,275.252 			"/>
			<path d="M516.724,278.301c-0.15,0.288-0.362,0.712-0.362,0.712h-0.025c0,0-0.2-0.425-0.35-0.7l-1.625-3.062h-1.25V284h1.1v-5.936
				c0-0.35-0.012-0.787-0.012-0.787h0.024c0,0,0.2,0.4,0.351,0.687l1.725,3.161h0.1l1.762-3.173
				c0.163-0.288,0.325-0.663,0.325-0.663h0.025c0,0-0.013,0.413-0.013,0.775V284h1.112v-8.748h-1.263L516.724,278.301z"/>
			<polygon points="527.859,276.364 527.859,275.252 523.436,275.252 523.436,284 527.859,284 527.859,282.9 524.586,282.9 
				524.586,280.476 527.372,280.476 527.372,279.376 524.586,279.376 524.586,276.364 			"/>
			<path d="M493.211,275.127c-2.137,0-2.899,2.025-2.899,4.499c0,2.475,0.763,4.499,2.899,4.499c2.149,0,2.912-2.024,2.912-4.499
				C496.123,277.152,495.36,275.127,493.211,275.127z M493.211,283.025c-1.225,0-1.75-1.35-1.75-3.399
				c0-2.049,0.513-3.399,1.75-3.399c1.25,0,1.762,1.35,1.762,3.399C494.973,281.676,494.448,283.025,493.211,283.025z"/>
			<path d="M504.522,278.214c0-1.625-0.862-2.962-2.812-2.962h-2.237V284h1.15v-2.799h0.949c0.175,0,0.351,0,0.513-0.038
				l1.237,2.837h1.237l-1.4-3.199C504.085,280.301,504.522,279.326,504.522,278.214z M501.599,280.101h-0.975v-3.749h0.975
				c1.188,0,1.774,0.725,1.774,1.875C503.373,279.351,502.786,280.101,501.599,280.101z"/>
		</g>
	</g>
</g>
<path opacity="0.4" fill="none" stroke="#E90E8B" stroke-width="3" stroke-miterlimit="10" enable-background="new    " d="
	M397.333,231.775c1.219,7.348,2.438,14.695,3.569,21.518"/>
<line opacity="0.4" fill="none" stroke="#FF7BAC" stroke-width="2" stroke-linecap="round" stroke-miterlimit="10" x1="468" y1="173" x2="468" y2="189"/>
<path opacity="0.4" fill="none" stroke="#E90E8B" stroke-width="3" stroke-miterlimit="10" enable-background="new    " d="
	M575.844,231.188c1.251,7.439,2.502,14.878,3.663,21.785"/>
</svg>
