<?xml version="1.0" encoding="utf-8"?>
<!-- Generator: Adobe Illustrator 16.0.0, SVG Export Plug-In . SVG Version: 6.00 Build 0)  -->
<!DOCTYPE svg PUBLIC "-//W3C//DTD SVG 1.1//EN" "http://www.w3.org/Graphics/SVG/1.1/DTD/svg11.dtd">
<svg version="1.1" id="Layer_1" xmlns="http://www.w3.org/2000/svg" xmlns:xlink="http://www.w3.org/1999/xlink" x="0px" y="0px"
	 width="792px" height="612px" viewBox="0 0 792 612" enable-background="new 0 0 792 612" xml:space="preserve">
<path fill="none" stroke="#000000" stroke-width="3" stroke-linecap="round" stroke-miterlimit="10" d="M617.936,380.553v34.37
	 M617.994,380.674l17.379,24.954 M617.936,380.553L600.75,406.33 M600.75,406.33l17.186,8.593 M617.936,414.923l17.623-8.909
	 M600.75,406.33v-16.681 M600.75,389.649l17.186,5.877 M617.936,395.526l17.438-6.191 M617.936,395.526L600.75,406.33
	 M600.75,389.649l17.186,25.273 M635.373,389.649l-17.438,25.273 M617.936,395.526l16.996,10.102 M635.559,389.335v16.293"/>
<path opacity="0.4" fill="none" stroke="#EC008C" stroke-width="3" stroke-miterlimit="10" enable-background="new    " d="
	M617.621,395.414c-6.412-2.237-12.824-4.473-19.237-6.708"/>
<path opacity="0.4" fill="none" stroke="#EC008C" stroke-width="3" stroke-miterlimit="10" enable-background="new    " d="
	M600.75,389.275c0,5.862,0,11.726,0,17.589"/>
<path opacity="0.4" fill="none" stroke="#EC008C" stroke-width="3" stroke-miterlimit="10" enable-background="new    " d="
	M599.525,405.669c6.281,3.152,12.563,6.304,18.843,9.456"/>
<path opacity="0.4" fill="none" stroke="#EC008C" stroke-width="3" stroke-miterlimit="10" enable-background="new    " d="
	M616.639,415.712c6.574-3.374,13.15-6.748,19.727-10.123"/>
<path opacity="0.4" fill="none" stroke="#EC008C" stroke-width="3" stroke-miterlimit="10" enable-background="new    " d="
	M635.559,406.864c0-6.416,0-12.834,0-19.25"/>
<path opacity="0.4" fill="none" stroke="#EC008C" stroke-width="3" stroke-miterlimit="10" enable-background="new    " d="
	M635.584,389.275c-5.766,2.022-11.531,4.046-17.296,6.068"/>
<path opacity="0.4" fill="none" stroke="#EC008C" stroke-width="3" stroke-miterlimit="10" enable-background="new    " d="
	M617.947,378.87c0,12.018,0,24.035,0,36.053"/>
<path opacity="0.4" fill="none" stroke="#EC008C" stroke-width="3" stroke-miterlimit="10" enable-background="new    " d="
	M599.525,407.259c5.663-3.625,11.327-7.251,16.99-10.875"/>
<path opacity="0.4" fill="none" stroke="#EC008C" stroke-width="3" stroke-miterlimit="10" enable-background="new    " d="
	M617.594,395.337c6.057,3.561,12.115,7.123,18.174,10.685"/>
<path opacity="0.4" fill="none" stroke="#EC008C" stroke-width="3" stroke-miterlimit="10" enable-background="new    " d="
	M617.18,413.751c-5.488-8.031-10.977-16.062-16.465-24.092"/>
<path opacity="0.4" fill="none" stroke="#EC008C" stroke-width="3" stroke-miterlimit="10" enable-background="new    " d="
	M634.727,390.335c-5.484,8.033-10.967,16.067-16.449,24.103"/>
<path opacity="0.4" fill="none" stroke="#EC008C" stroke-width="3" stroke-miterlimit="10" enable-background="new    " d="
	M601.089,405.731c5.614-8.393,11.229-16.787,16.847-25.179"/>
<path opacity="0.4" fill="none" stroke="#EC008C" stroke-width="3" stroke-miterlimit="10" enable-background="new    " d="
	M617.936,380.553c5.689,8.179,11.377,16.36,17.066,24.541"/>
<g>
	<g>
		<g>
			<path d="M303.598,239.919l-9.432,107.299h5.619l1.539-17.326h17.326l1.539,17.326h5.619l-9.432-107.299H303.598z
				 M301.992,323.604l7.292-80.14h1.472l7.225,80.14H301.992z"/>
			<path d="M277.643,238.515c-3.88,0-7.181,1.294-9.9,3.88c-2.766,2.587-4.147,5.709-4.147,9.365v83.484
				c0,3.612,1.382,6.713,4.147,9.299c2.72,2.586,6.021,3.879,9.9,3.879s7.202-1.293,9.967-3.879
				c2.765-2.586,4.147-5.687,4.147-9.299v-6.957h-6.087v7.961c0,2.096-0.781,3.902-2.341,5.418
				c-1.562,1.472-3.457,2.207-5.686,2.207c-2.186,0-4.059-0.735-5.619-2.207c-1.562-1.516-2.341-3.322-2.341-5.418v-84.89
				c0-2.096,0.78-3.902,2.341-5.418c1.561-1.472,3.434-2.208,5.619-2.208c2.229,0,4.125,0.736,5.686,2.208
				c1.561,1.517,2.341,3.323,2.341,5.418v7.292h6.087v-6.89c0-3.656-1.383-6.778-4.147-9.365
				C284.844,239.809,281.522,238.515,277.643,238.515z"/>
			<polygon points="355.642,336.716 341.393,239.919 331.426,239.919 331.426,347.754 336.978,347.754 336.978,243.666 
				352.364,347.754 358.853,347.754 374.238,243.666 374.238,347.754 379.791,347.754 379.791,239.919 369.823,239.919 			"/>
			<path d="M414.775,239.652c-4.146,0-7.67,1.361-10.568,4.081c-2.943,2.721-4.415,5.999-4.415,9.833v21.607l24.349,17.058
				l-0.2,42.344c0,2.186-0.894,4.059-2.677,5.619c-1.782,1.562-3.944,2.341-6.487,2.341c-2.541,0-4.705-0.779-6.488-2.341
				c-1.785-1.562-2.676-3.435-2.676-5.619v-24.617h-5.819v24.617c0,3.836,1.472,7.114,4.415,9.833
				c2.898,2.721,6.422,4.081,10.568,4.081c4.104,0,7.627-1.36,10.569-4.081c2.943-2.719,4.414-5.997,4.414-9.833v-45.421
				l-24.283-16.924l0.136-18.664c0-2.185,0.891-4.058,2.676-5.619c1.783-1.561,3.947-2.341,6.488-2.341
				c2.543,0,4.705,0.781,6.487,2.341c1.783,1.562,2.677,3.435,2.677,5.619v15.051h5.819v-15.051c0-3.835-1.471-7.113-4.414-9.833
				C422.402,241.013,418.879,239.652,414.775,239.652z"/>
			<rect x="387.417" y="240.12" width="5.82" height="107.099"/>
			<path d="M497.324,268.617v-15.051c0-3.835-1.471-7.113-4.414-9.833c-2.943-2.72-6.467-4.081-10.57-4.081
				c-4.146,0-7.67,1.361-10.568,4.081c-2.942,2.721-4.415,5.999-4.415,9.833v21.607l24.35,17.058l-0.201,42.344
				c0,2.186-0.893,4.059-2.676,5.619c-1.783,1.562-3.945,2.341-6.488,2.341c-2.541,0-4.705-0.779-6.487-2.341
				c-1.785-1.562-2.677-3.435-2.677-5.619v-24.617h-5.819v24.617c0,3.836,1.473,7.114,4.416,9.833
				c2.897,2.721,6.422,4.081,10.567,4.081c4.104,0,7.627-1.36,10.57-4.081c2.942-2.719,4.414-5.997,4.414-9.833v-45.421
				l-24.283-16.924l0.135-18.664c0-2.185,0.892-4.058,2.677-5.619c1.782-1.562,3.946-2.341,6.487-2.341
				c2.543,0,4.705,0.781,6.488,2.341c1.783,1.562,2.676,3.435,2.676,5.619v15.051H497.324z"/>
			<path d="M441.936,239.919l-9.432,107.299h5.619l1.539-17.326h17.324l1.539,17.326h5.618l-9.432-107.299H441.936z M440.33,323.604
				l7.291-80.14h1.473l7.226,80.14H440.33z"/>
		</g>
	</g>
</g>
<path opacity="0.4" fill="none" stroke="#EC008C" stroke-width="7.5" stroke-miterlimit="10" enable-background="new    " d="
	M333.333,238.515"/>
<path opacity="0.4" fill="none" stroke="#EC008C" stroke-width="7.5" stroke-miterlimit="10" enable-background="new    " d="
	M333.333,348.489"/>
<path opacity="0.4" fill="none" stroke="#E90E8B" stroke-width="7" stroke-miterlimit="10" enable-background="new    " d="
	M451.938,238.974c3.257,37.237,6.517,74.474,9.541,109.05"/>
<path opacity="0.4" fill="none" stroke="#E90E8B" stroke-width="8" stroke-miterlimit="10" enable-background="new    " d="
	M434.51,348.031c3.445-36.891,6.892-73.777,10.09-108.029"/>
<path opacity="0.4" fill="none" stroke="#E90E8B" stroke-width="7" stroke-miterlimit="10" enable-background="new    " d="
	M440.219,327.408c4.935,0,11.512,0,16.447,0"/>
<path opacity="0.4" fill="none" stroke="#E90E8B" stroke-width="7" stroke-miterlimit="10" enable-background="new    " d="
	M440.219,242.158c4.935,0,11.512,0,16.447,0"/>
<path opacity="0.4" fill="none" stroke="#E90E8B" stroke-width="7" stroke-miterlimit="10" enable-background="new    " d="
	M308.119,104.974c3.229,36.908,6.458,73.815,9.457,108.087"/>
<path opacity="0.4" fill="none" stroke="#E90E8B" stroke-width="8" stroke-miterlimit="10" enable-background="new    " d="
	M290.691,213.031c3.445-36.89,6.891-73.777,10.09-108.029"/>
<path opacity="0.4" fill="none" stroke="#E90E8B" stroke-width="7" stroke-miterlimit="10" enable-background="new    " d="
	M296.4,191.408c4.935,0,11.513,0,16.447,0"/>
<path opacity="0.4" fill="none" stroke="#E90E8B" stroke-width="7" stroke-miterlimit="10" enable-background="new    " d="
	M296.4,107.158c4.935,0,11.513,0,16.447,0"/>
<path opacity="0.4" fill="none" stroke="#E90E8B" stroke-width="7" stroke-miterlimit="10" enable-background="new    " d="
	M445.938,103.488c3.257,37.237,6.516,74.474,9.541,109.05"/>
<path opacity="0.4" fill="none" stroke="#E90E8B" stroke-width="8" stroke-miterlimit="10" enable-background="new    " d="
	M428.509,212.546c3.445-36.89,6.892-73.777,10.09-108.029"/>
<path opacity="0.4" fill="none" stroke="#E90E8B" stroke-width="7" stroke-miterlimit="10" enable-background="new    " d="
	M434.218,191.923c4.936,0,11.513,0,16.447,0"/>
<path opacity="0.4" fill="none" stroke="#E90E8B" stroke-width="7" stroke-miterlimit="10" enable-background="new    " d="
	M434.218,106.673c4.936,0,11.513,0,16.447,0"/>
<path opacity="0.4" fill="none" stroke="#EC008C" stroke-width="7" stroke-miterlimit="10" enable-background="new    " d="
	M384,105.25c0,35.766,0,71.532,0,107.296"/>
<path opacity="0.4" fill="none" stroke="#EC008C" stroke-width="7.5" stroke-miterlimit="10" enable-background="new    " d="
	M327.333,103.515c0,36.658,0,73.317,0,109.975"/>
<path opacity="0.4" fill="none" stroke="#EC008C" stroke-width="7" stroke-miterlimit="10" enable-background="new    " d="
	M371.334,103.974c0,36.505,0,73.012,0,109.516"/>
<path opacity="0.4" fill="none" stroke="#EC008C" stroke-width="7" stroke-miterlimit="10" enable-background="new    " d="
	M332.127,104.587c5.454,37.235,10.909,74.472,16.362,111.704"/>
<path opacity="0.4" fill="none" stroke="#EC008C" stroke-width="7.5" stroke-miterlimit="10" enable-background="new    " d="
	M364.928,104.587c-5.454,37.235-10.908,74.472-16.362,111.704"/>
<path opacity="0.4" fill="none" stroke="#EC008C" stroke-width="8" stroke-miterlimit="10" enable-background="new    " d="
	M393.792,135.671c9.99,7.073,19.979,14.15,29.968,21.226"/>
<path opacity="0.4" fill="none" stroke="#EC008C" stroke-width="8" stroke-miterlimit="10" enable-background="new    " d="
	M461.355,135.671c9.989,7.074,19.979,14.15,29.969,21.226"/>
<path opacity="0.5" fill="none" stroke="#EC008C" stroke-width="8" stroke-miterlimit="10" enable-background="new    " d="
	M397.257,137.579c0-7.476-1.834-18.211,1.666-24.729c2.334-4.217,7.5-5.367,11.334-5.176c4.333,0.384,7.5,2.492,9.333,7.285
	c3.167,8.052,0.833,19.937,1.667,28.946"/>
<path opacity="0.5" fill="none" stroke="#EC008C" stroke-width="8" stroke-miterlimit="10" enable-background="new    " d="
	M464.836,137.175c0-7.476-1.834-18.211,1.666-24.729c2.334-4.217,7.5-5.367,11.334-5.176c4.333,0.384,7.5,2.492,9.333,7.285
	c3.167,8.052,0.833,19.937,1.667,28.946"/>
<path opacity="0.5" fill="none" stroke="#EC008C" stroke-width="9" stroke-miterlimit="10" enable-background="new    " d="
	M397.152,166.38c0,11.21-1.834,27.307,1.666,37.081c2.334,6.324,7.5,8.049,11.334,7.762c4.333-0.575,7.5-3.737,9.333-10.924
	c3.167-12.072,0.833-29.894,1.667-43.402"/>
<path opacity="0.5" fill="none" stroke="#EC008C" stroke-width="9.5" stroke-miterlimit="10" enable-background="new    " d="
	M465.152,166.38c0,11.21-1.834,27.307,1.666,37.081c2.334,6.324,7.5,8.049,11.334,7.762c4.333-0.575,7.5-3.737,9.333-10.924
	c3.167-12.072,0.833-29.895,1.667-43.402"/>
<path opacity="0.3" fill="none" stroke="#EC008C" stroke-width="10" stroke-miterlimit="10" enable-background="new    " d="
	M279.334,126.182c1-8.955-2-19.829-14.668-16.63c-8.666,2.238-7,12.153-7,18.869c0,12.153-0.332,24.627-1,36.78
	C256,176.075,256,187.269,256,198.143c0,7.037,6.334,15.672,14.666,12.794c6.668-2.24,9.668-11.194,9.334-16.951"/>
<g>
	<g>
		<g>
			<path d="M450.422,424.727c1.545-1.407,2.318-2.531,2.318-3.373v-7.688c-0.291-1.897-0.994-3.167-2.111-3.81
				c-0.795-0.459-2.104-0.688-3.924-0.688h-3.098v36.88h1.996v-18.153l0.619-0.298c0.199-0.092,0.428-0.207,0.689-0.345l1.354-0.734
				l3.396,19.53h1.973l-3.648-20.907L450.422,424.727z M447.301,424.818l-1.697,1.125v-14.986l1.146,0.046
				c2.463,0.122,3.779,0.94,3.947,2.456v0.137v7.758C450.697,422.18,449.564,423.334,447.301,424.818z"/>
			<polygon points="478.883,409.098 478.883,411.187 482.418,411.187 482.418,445.978 484.414,445.978 484.414,411.187 
				487.949,411.187 487.949,409.098 			"/>
			<path d="M235.293,409.167h-2.685h-1.951v36.856h4.636c1.27,0,2.348-0.428,3.236-1.285c0.887-0.856,1.331-1.896,1.331-3.121
				v-14.756c0-1.178-0.429-2.195-1.285-3.053l-0.78-0.78l0.78-0.804c0.856-0.841,1.285-1.851,1.285-3.029v-5.622
				c0-1.224-0.444-2.265-1.331-3.121C237.641,409.596,236.563,409.167,235.293,409.167z M237.909,426.861v14.756
				c0,0.719-0.252,1.331-0.757,1.836c-0.521,0.505-1.14,0.758-1.859,0.758h-2.685v-19.92l2.685-0.023
				c0.719,0,1.338,0.252,1.859,0.758C237.657,425.529,237.909,426.143,237.909,426.861z M237.909,419.195
				c0,0.705-0.252,1.309-0.757,1.813c-0.521,0.521-1.14,0.78-1.859,0.78l-2.685-0.023V410.98h2.685c0.719,0,1.338,0.252,1.859,0.757
				c0.505,0.505,0.757,1.117,0.757,1.836V419.195z"/>
			<path d="M341.653,409.259c-1.408,0-2.609,0.429-3.603,1.285c-0.995,0.856-1.492,1.897-1.492,3.121v27.929
				c0,1.225,0.497,2.266,1.492,3.121c0.994,0.857,2.195,1.285,3.603,1.285c1.407,0,2.608-0.428,3.603-1.285
				c0.994-0.855,1.492-1.896,1.492-3.121V423.51h-4.819v1.607h2.616v16.477c0,0.705-0.283,1.309-0.849,1.813
				c-0.566,0.505-1.247,0.757-2.042,0.757c-0.796,0-1.477-0.252-2.042-0.757c-0.566-0.505-0.849-1.108-0.849-1.813v-27.929
				c0-0.704,0.283-1.308,0.849-1.813c0.566-0.504,1.247-0.757,2.042-0.757c0.795,0,1.476,0.253,2.042,0.757
				c0.566,0.506,0.849,1.109,0.849,1.813v2.295h2.203v-2.295c0-1.224-0.498-2.265-1.492-3.121
				C344.261,409.688,343.06,409.259,341.653,409.259z"/>
			<path d="M410.9,409.189L407.664,446h1.928l0.527-5.943h5.945l0.527,5.943h1.928l-3.236-36.811H410.9z M410.35,437.899
				l2.502-27.493h0.504l2.479,27.493H410.35z"/>
			<path d="M272.659,424.727c1.545-1.407,2.318-2.531,2.318-3.373v-7.688c-0.291-1.897-0.995-3.167-2.111-3.81
				c-0.796-0.459-2.104-0.688-3.924-0.688h-3.098v36.88h1.997v-18.153l0.62-0.298c0.199-0.092,0.428-0.207,0.688-0.345l1.354-0.734
				l3.396,19.53h1.974l-3.649-20.907L272.659,424.727z M269.538,424.818l-1.698,1.125v-14.986l1.147,0.046
				c2.463,0.122,3.779,0.94,3.947,2.456v0.137v7.758C272.934,422.18,271.802,423.334,269.538,424.818z"/>
			<path d="M377.895,409.259c-1.408,0-2.609,0.429-3.604,1.285s-1.492,1.897-1.492,3.121v27.929c0,1.225,0.498,2.266,1.492,3.121
				c0.994,0.857,2.195,1.285,3.604,1.285c1.406,0,2.607-0.428,3.602-1.285c0.994-0.855,1.492-1.896,1.492-3.121V423.51h-4.818v1.607
				h2.615v16.477c0,0.705-0.283,1.309-0.85,1.813s-1.246,0.757-2.041,0.757c-0.797,0-1.477-0.252-2.043-0.757
				s-0.85-1.108-0.85-1.813v-27.929c0-0.704,0.283-1.308,0.85-1.813c0.566-0.504,1.246-0.757,2.043-0.757
				c0.795,0,1.475,0.253,2.041,0.757c0.566,0.506,0.85,1.109,0.85,1.813v2.295h2.203v-2.295c0-1.224-0.498-2.265-1.492-3.121
				S379.301,409.259,377.895,409.259z"/>
			<path d="M303.897,409.189L300.661,446h1.928l0.528-5.943h5.944l0.528,5.943h1.928l-3.236-36.811H303.897z M303.346,437.899
				l2.501-27.493h0.505l2.479,27.493H303.346z"/>
		</g>
	</g>
</g>
<path opacity="0.4" fill="none" stroke="#E90E8B" stroke-width="3" stroke-miterlimit="10" enable-background="new    " d="
	M306.732,406.809c1.211,13.838,2.423,27.676,3.549,40.526"/>
<path opacity="0.4" fill="none" stroke="#E90E8B" stroke-width="3" stroke-miterlimit="10" enable-background="new    " d="
	M301.191,447.324c1.293-13.832,2.586-27.662,3.786-40.506"/>
<path opacity="0.4" fill="none" stroke="#E90E8B" stroke-width="3" stroke-miterlimit="10" enable-background="new    " d="
	M303.334,439.217c1.852,0,4.32,0,6.173,0"/>
<path opacity="0.4" fill="none" stroke="#E90E8B" stroke-width="3" stroke-miterlimit="10" enable-background="new    " d="
	M413.822,406.809c1.211,13.838,2.423,27.676,3.549,40.525"/>
<path opacity="0.4" fill="none" stroke="#E90E8B" stroke-width="3.5" stroke-miterlimit="10" enable-background="new    " d="
	M408.281,447.323c1.293-13.831,2.586-27.662,3.786-40.505"/>
<path opacity="0.4" fill="none" stroke="#E90E8B" stroke-width="3" stroke-miterlimit="10" enable-background="new    " d="
	M410.424,439.216c1.852,0,4.32,0,6.173,0"/>
<path opacity="0.3" fill="none" stroke="#E90E8B" stroke-width="3" stroke-miterlimit="10" d="M230.412,409.5
	c1.87,0.172,4.052-0.172,5.818,0.602c2.702,1.288,2.078,3.436,2.078,5.67c0,1.461,0.731,4.289-0.308,5.406
	c-1.144,1.203-4.368,0.609-6.03,0.522"/>
<path opacity="0.3" fill="none" stroke="#E90E8B" stroke-width="3" stroke-miterlimit="10" d="M230.615,422.736
	c2.027,0.303,4.394-0.305,6.309,1.066c2.93,2.283,2.254,6.092,2.254,10.051c0,2.59,0.449,8.313-1.178,9.906
	c-2.333,2.287-6.164,1.497-8.083,1.334"/>
<path opacity="0.4" fill="none" stroke="#EC008C" stroke-width="2.4" stroke-miterlimit="10" enable-background="new    " d="
	M231.333,408.578c0,12.443,0,24.886,0,37.328"/>
<path opacity="0.4" fill="none" stroke="#EC008C" stroke-width="3" stroke-miterlimit="10" enable-background="new    " d="
	M266.917,408.408c0,12.442,0,25.66,0,38.102"/>
<path opacity="0.4" fill="none" stroke="#E90E8B" stroke-width="3" stroke-miterlimit="10" d="M267.5,409.938
	c1.878,0,5.066-0.102,5.809,1.835c0.262,0.716,0.306,1.853,0.393,2.651c0.087,1.01,0.131,2.021,0.131,3.03
	c0,0.884,0.043,1.769,0,2.61c-0.087,1.136-0.34,2.199-1.083,2.998c-0.743,0.8-1.502,1.452-2.375,2.125
	c-0.743,0.549-2.001,1.163-2.875,1.5"/>
<path opacity="0.4" fill="none" stroke="#EC008C" stroke-width="3" stroke-miterlimit="10" enable-background="new    " d="
	M444.916,408.408c0,12.76,0,25.52,0,38.279"/>
<path opacity="0.4" fill="none" stroke="#EC008C" stroke-width="2.2" stroke-miterlimit="10" enable-background="new    " d="
	M483.501,411c0,15.74,0,27.653,0,35.734"/>
<path opacity="0.4" fill="none" stroke="#E90E8B" stroke-width="3" stroke-miterlimit="10" enable-background="new    " d="
	M479.674,409.666c-2.458,0,1.363,0,9.184,0"/>
<path opacity="0.4" fill="none" stroke="#E90E8B" stroke-width="3" stroke-miterlimit="10" d="M345.5,416.25
	c0.656-3.333-1.125-7.152-5.5-5.625c-3.475,1.213-2.06,5.375-2.06,8.375c0,4.667-0.656,9.334-0.328,14
	c0,2.667-0.675,8.104,0.638,10.438c0.528,1.181,6.006,3.05,7.625-1.063c0.319-0.703-0.028-19.646-0.028-18.252
	c-0.656,0.334-3.362-0.02-4.347,0.314"/>
<path opacity="0.4" fill="none" stroke="#E90E8B" stroke-width="3" stroke-miterlimit="10" d="M445.5,409.938
	c1.878,0,5.066-0.102,5.809,1.835c0.262,0.716,0.306,1.853,0.393,2.651c0.088,1.01,0.131,2.021,0.131,3.03
	c0,0.884,0.044,1.769,0,2.61c-0.087,1.136-0.34,2.199-1.082,2.998c-0.742,0.8-1.502,1.452-2.375,2.125
	c-0.742,0.549-2.002,1.163-2.875,1.5"/>
<path opacity="0.4" fill="none" stroke="#E90E8B" stroke-width="3" stroke-miterlimit="10" enable-background="new    " d="
	M449.213,425.17c1.22,7.348,2.438,14.695,3.57,21.518"/>
<path opacity="0.4" fill="none" stroke="#E90E8B" stroke-width="3" stroke-miterlimit="10" enable-background="new    " d="
	M271.39,425.403c1.216,7.338,2.431,14.677,3.561,21.491"/>
<path opacity="0.4" fill="none" stroke="#E90E8B" stroke-width="3" stroke-miterlimit="10" d="M381.5,416.25
	c0.656-3.333-1.125-7.152-5.5-5.625c-3.475,1.213-2.06,5.375-2.06,8.375c0,4.667-0.656,9.334-0.328,14
	c0,2.667-0.092,7.688,0.638,10.438c0.332,1.25,6.006,3.05,7.625-1.063c0.319-0.703-0.028-19.646-0.028-18.252
	c-0.656,0.334-3.362-0.02-4.347,0.314"/>
<path fill="none" stroke="#FF7BAC" stroke-width="6" stroke-miterlimit="50" d="M430.5,308.5v73"/>
<path fill="none" stroke="#FF7BAC" stroke-width="6" stroke-miterlimit="10" d="M606,437l181.167-58.831"/>
<path fill="none" stroke="#FF7BAC" stroke-width="6.1169" stroke-miterlimit="10" d="M428.5,310.75l179-56.5"/>
<path fill="none" stroke="#FF7BAC" stroke-width="6" stroke-linejoin="bevel" stroke-miterlimit="10" d="M608,436.75l-179-58.5"/>
<path fill="none" stroke="#FF7BAC" stroke-width="6" stroke-linejoin="bevel" stroke-miterlimit="10" d="M606,254l180.833,57.172"/>
<path fill="none" stroke="#FF7BAC" stroke-width="6" stroke-miterlimit="50" d="M784.5,308.5v73"/>
</svg>
