<?xml version="1.0" encoding="utf-8"?>
<!-- Generator: Adobe Illustrator 16.0.0, SVG Export Plug-In . SVG Version: 6.00 Build 0)  -->
<!DOCTYPE svg PUBLIC "-//W3C//DTD SVG 1.1//EN" "http://www.w3.org/Graphics/SVG/1.1/DTD/svg11.dtd">
<svg version="1.1" id="Layer_1" xmlns="http://www.w3.org/2000/svg" xmlns:xlink="http://www.w3.org/1999/xlink" x="0px" y="0px"
	 width="360px" height="190px" viewBox="0 0 360 190" enable-background="new 0 0 360 190" xml:space="preserve">
<path fill="none" stroke="#000000" stroke-width="6" stroke-miterlimit="10" d="M180,186.5L3,129V60L179.5,4L357,60.5V129L180,186.5
	z"/>
<path fill="none" stroke="#000000" stroke-width="2" stroke-linecap="round" stroke-miterlimit="10" d="M180.28,29.313v34.371
	 M180.34,29.435l17.379,24.954 M180.28,29.313L163.095,55.09 M163.096,55.091l17.186,8.593 M180.28,63.684l17.623-8.91
	 M163.096,55.091V38.41 M163.096,38.41l17.186,5.877 M180.28,44.287l17.438-6.191 M180.28,44.287l-17.186,10.804 M163.096,38.41
	l17.186,25.274 M197.719,38.41l-17.438,25.274 M180.28,44.287l16.996,10.102 M197.903,38.096v16.292"/>
<path fill="none" stroke="#000000" stroke-width="3" stroke-miterlimit="10" d="M79,130.5h204"/>
<g>
	<g>
		<g>
			<path d="M56.214,81.667h-2.685h-1.951v36.856h4.636c1.27,0,2.348-0.428,3.236-1.285c0.887-0.856,1.331-1.897,1.331-3.121V99.359
				c0-1.178-0.429-2.194-1.285-3.051l-0.78-0.781l0.78-0.803c0.856-0.841,1.285-1.851,1.285-3.029v-5.623
				c0-1.224-0.444-2.264-1.331-3.121C58.563,82.095,57.484,81.667,56.214,81.667z M58.831,99.359v14.757
				c0,0.719-0.252,1.331-0.757,1.836c-0.521,0.505-1.14,0.757-1.859,0.757H53.53v-19.92l2.685-0.023
				c0.719,0,1.338,0.252,1.859,0.758C58.578,98.029,58.831,98.643,58.831,99.359z M58.831,91.695c0,0.704-0.252,1.308-0.757,1.813
				c-0.521,0.521-1.14,0.78-1.859,0.78l-2.685-0.023V83.479h2.685c0.719,0,1.338,0.252,1.859,0.757
				c0.505,0.505,0.757,1.117,0.757,1.836V91.695z"/>
			<path d="M272.189,97.227c1.545-1.408,2.316-2.533,2.316-3.375v-7.688c-0.29-1.897-0.994-3.167-2.111-3.81
				c-0.795-0.459-2.104-0.688-3.924-0.688h-3.098v36.879h1.996v-18.152l0.619-0.299c0.198-0.092,0.429-0.207,0.688-0.344
				l1.354-0.734l3.396,19.53h1.975l-3.649-20.907L272.189,97.227z M269.068,97.318l-1.698,1.125V83.457l1.146,0.046
				c2.464,0.123,3.778,0.941,3.947,2.456v0.138v7.757C272.465,94.679,271.332,95.834,269.068,97.318z"/>
			<polygon points="300.792,81.598 300.792,83.686 304.327,83.686 304.327,118.477 306.323,118.477 306.323,83.686 309.857,83.686 
				309.857,81.598 			"/>
			<path d="M93.721,97.227c1.545-1.408,2.318-2.533,2.318-3.375v-7.688c-0.291-1.897-0.995-3.167-2.111-3.81
				c-0.796-0.459-2.104-0.688-3.924-0.688h-3.098v36.879h1.997v-18.152l0.62-0.299c0.199-0.092,0.428-0.207,0.688-0.344l1.354-0.734
				l3.396,19.53h1.974l-3.648-20.907L93.721,97.227z M90.6,97.318l-1.698,1.125V83.457l1.147,0.046
				c2.463,0.123,3.779,0.941,3.947,2.456v0.138v7.757C93.997,94.679,92.864,95.834,90.6,97.318z"/>
			<path d="M199.38,81.758c-1.408,0-2.608,0.429-3.604,1.285c-0.995,0.857-1.492,1.897-1.492,3.121v27.929
				c0,1.224,0.497,2.265,1.492,3.121c0.993,0.856,2.194,1.285,3.604,1.285c1.407,0,2.607-0.429,3.604-1.285
				c0.993-0.856,1.49-1.897,1.49-3.121V96.01h-4.817v1.606h2.615v16.478c0,0.704-0.283,1.309-0.85,1.813
				c-0.565,0.505-1.247,0.757-2.042,0.757c-0.796,0-1.478-0.252-2.043-0.757s-0.85-1.109-0.85-1.813V86.165
				c0-0.704,0.282-1.308,0.85-1.813c0.565-0.505,1.247-0.757,2.043-0.757c0.795,0,1.477,0.252,2.042,0.757s0.85,1.109,0.85,1.813
				v2.295h2.202v-2.295c0-1.224-0.497-2.264-1.49-3.121C201.987,82.187,200.787,81.758,199.38,81.758z"/>
			<path d="M232.525,81.689l-3.236,36.811h1.928l0.528-5.943h5.944l0.526,5.943h1.928l-3.235-36.811H232.525z M231.975,110.398
				l2.502-27.492h0.505l2.479,27.492H231.975z"/>
			<path d="M162.997,81.758c-1.408,0-2.609,0.429-3.604,1.285c-0.994,0.857-1.491,1.897-1.491,3.121v27.929
				c0,1.224,0.497,2.265,1.491,3.121s2.195,1.285,3.604,1.285c1.407,0,2.608-0.429,3.603-1.285s1.492-1.897,1.492-3.121V96.01
				h-4.818v1.606h2.615v16.478c0,0.704-0.282,1.309-0.849,1.813s-1.247,0.757-2.042,0.757c-0.796,0-1.477-0.252-2.042-0.757
				c-0.566-0.505-0.849-1.109-0.849-1.813V86.165c0-0.704,0.282-1.308,0.849-1.813s1.247-0.757,2.042-0.757s1.476,0.252,2.042,0.757
				s0.849,1.109,0.849,1.813v2.295h2.203v-2.295c0-1.224-0.498-2.264-1.492-3.121S164.404,81.758,162.997,81.758z"/>
			<path d="M125.101,81.689l-3.235,36.811h1.928l0.528-5.943h5.943l0.528,5.943h1.928l-3.235-36.811H125.101z M124.55,110.398
				l2.501-27.492h0.505l2.479,27.492H124.55z"/>
		</g>
	</g>
</g>
<g>
	<g>
		<g>
			<path d="M149.849,141.252L147.575,150h1.212l0.438-1.787h2.476l0.45,1.787h1.212l-2.274-8.748H149.849z M149.462,147.176
				l0.813-3.299c0.087-0.337,0.188-0.861,0.188-0.861h0.025c0,0,0.087,0.524,0.175,0.861l0.812,3.299H149.462z"/>
			<polygon points="165.036,150 169.46,150 169.46,148.9 166.188,148.9 166.188,146.477 168.973,146.477 168.973,145.376 
				166.188,145.376 166.188,142.364 169.46,142.364 169.46,141.252 165.036,141.252 			"/>
			<path d="M141.636,144.301c-0.149,0.288-0.361,0.713-0.361,0.713h-0.025c0,0-0.2-0.426-0.35-0.701l-1.625-3.062h-1.25V150h1.1
				v-5.936c0-0.351-0.013-0.787-0.013-0.787h0.024c0,0,0.2,0.399,0.351,0.687l1.725,3.161h0.1l1.763-3.173
				c0.162-0.288,0.325-0.663,0.325-0.663h0.024c0,0-0.012,0.413-0.012,0.775V150h1.112v-8.748h-1.263L141.636,144.301z"/>
			<path d="M158.424,141.252h-2.012V150h2.062c2.313,0,3.149-1.975,3.149-4.374S160.786,141.252,158.424,141.252z M158.474,148.9
				h-0.913v-6.549h0.862c1.438,0,2.037,1.351,2.037,3.274C160.461,147.551,159.861,148.9,158.474,148.9z"/>
			<polygon points="178.174,150 179.324,150 179.324,146.838 182.099,146.838 182.099,145.739 179.324,145.739 179.324,142.364 
				182.598,142.364 182.598,141.252 178.174,141.252 			"/>
			<path d="M211.724,144.301c-0.149,0.288-0.361,0.713-0.361,0.713h-0.025c0,0-0.2-0.426-0.35-0.701l-1.625-3.062h-1.25V150h1.1
				v-5.936c0-0.351-0.012-0.787-0.012-0.787h0.023c0,0,0.2,0.399,0.352,0.687l1.725,3.161h0.101l1.762-3.173
				c0.163-0.288,0.325-0.663,0.325-0.663h0.024c0,0-0.013,0.413-0.013,0.775V150h1.112v-8.748h-1.264L211.724,144.301z"/>
			<polygon points="222.859,142.364 222.859,141.252 218.436,141.252 218.436,150 222.859,150 222.859,148.9 219.586,148.9 
				219.586,146.477 222.372,146.477 222.372,145.376 219.586,145.376 219.586,142.364 			"/>
			<path d="M188.211,141.127c-2.137,0-2.898,2.025-2.898,4.499c0,2.476,0.763,4.499,2.898,4.499c2.149,0,2.912-2.023,2.912-4.499
				C191.123,143.152,190.36,141.127,188.211,141.127z M188.211,149.025c-1.225,0-1.75-1.351-1.75-3.399s0.513-3.399,1.75-3.399
				c1.25,0,1.762,1.351,1.762,3.399C189.973,147.676,189.448,149.025,188.211,149.025z"/>
			<path d="M199.522,144.214c0-1.625-0.862-2.962-2.813-2.962h-2.237V150h1.15v-2.799h0.949c0.175,0,0.351,0,0.513-0.038
				l1.237,2.837h1.236l-1.399-3.199C199.085,146.301,199.522,145.326,199.522,144.214z M196.599,146.102h-0.975v-3.75h0.975
				c1.188,0,1.774,0.726,1.774,1.875C198.373,145.352,197.786,146.102,196.599,146.102z"/>
		</g>
	</g>
</g>
<path opacity="0.4" fill="none" stroke="#E90E8B" stroke-width="3" stroke-miterlimit="10" enable-background="new    " d="
	M92.333,97.775c1.219,7.348,2.438,14.695,3.569,21.518"/>
<line opacity="0.4" fill="none" stroke="#FF7BAC" stroke-width="2" stroke-linecap="round" stroke-miterlimit="10" enable-background="new    " x1="163" y1="39" x2="163" y2="55"/>
<path opacity="0.4" fill="none" stroke="#E90E8B" stroke-width="3" stroke-miterlimit="10" enable-background="new    " d="
	M270.844,97.188c1.251,7.439,2.502,14.879,3.663,21.785"/>
</svg>
