<?xml version="1.0" encoding="utf-8"?>
<!-- Generator: Adobe Illustrator 16.0.0, SVG Export Plug-In . SVG Version: 6.00 Build 0)  -->
<!DOCTYPE svg PUBLIC "-//W3C//DTD SVG 1.1//EN" "http://www.w3.org/Graphics/SVG/1.1/DTD/svg11.dtd">
<svg version="1.1" id="Layer_1" xmlns="http://www.w3.org/2000/svg" xmlns:xlink="http://www.w3.org/1999/xlink" x="0px" y="0px"
	 width="792px" height="612px" viewBox="0 0 792 612" enable-background="new 0 0 792 612" xml:space="preserve">
<g>
	<g>
		<g>
			<path d="M292.745,255.441l-9.294,105.733h5.537l1.516-17.073h17.073l1.516,17.073h5.537l-9.294-105.733H292.745z
				 M291.163,337.904l7.185-78.97h1.45l7.119,78.97H291.163z"/>
			<polygon points="265.521,255.441 259.852,255.441 259.852,361.701 281.407,361.701 281.407,355.768 265.521,355.768 			"/>
			<polygon points="349.369,261.176 359.52,261.176 359.52,361.107 365.255,361.107 365.255,261.176 375.406,261.176 
				375.406,255.177 349.369,255.177 			"/>
			<rect x="380.416" y="255.639" width="5.735" height="105.535"/>
			<polygon points="454.441,354.647 435.721,255.375 425.899,255.375 425.899,361.371 431.305,361.371 431.305,259.396 
				450.948,361.371 454.441,361.371 460.045,361.371 460.045,255.375 454.441,255.375 			"/>
			<path d="M526.489,255.441h-12.59l-9.295,105.733h5.537l1.517-17.073h17.073l1.516,17.073h5.537L526.489,255.441z
				 M512.317,337.904l7.186-78.97h1.449l7.119,78.97H512.317z"/>
			<polygon points="393.797,361.174 417.462,361.174 417.462,355.307 399.994,355.307 399.994,301.847 417.462,301.847 
				417.462,297.431 399.994,297.431 399.994,261.439 417.462,261.439 417.462,255.639 393.797,255.639 			"/>
			<path d="M495.641,259.33c-2.9-2.46-6.417-3.691-10.547-3.691h-9.953h-6.461v105.535h16.414c4.13,0,7.646-1.23,10.547-3.691
				s4.351-5.449,4.351-8.965v-80.223C499.991,264.78,498.541,261.792,495.641,259.33z M493.466,348.518
				c0,2.021-0.814,3.757-2.439,5.207c-1.626,1.45-3.604,2.176-5.933,2.176c-0.659,0-2.834-0.021-6.525-0.066h-3.428v-94.856h3.428
				c3.251-0.043,5.427-0.066,6.525-0.066c2.329,0,4.307,0.725,5.933,2.175c1.625,1.45,2.439,3.187,2.439,5.208V348.518z"/>
		</g>
	</g>
</g>
<path opacity="0.4" fill="none" stroke="#EC008C" stroke-width="7" stroke-miterlimit="10" d="M362.333,261"/>
<path opacity="0.4" fill="none" stroke="#EC008C" stroke-width="7" stroke-miterlimit="10" d="M471.75,255.639
	c0,35.179,0,70.357,0,105.535"/>
<path opacity="0.4" fill="none" stroke="#EC008C" stroke-width="10" stroke-miterlimit="10" d="M472.859,258.12
	c6.295,0,12.874-1.756,18.311,2.259c6.58,4.517,5.436,11.793,5.722,18.569c0.285,8.532,0.571,17.063,0.571,25.595
	c0,9.787,0.287,19.573,0.287,29.61c0,12.045,0.571,21.831-14.306,25.595c-2.574,0.753-7.724,1.004-10.299,0"/>
</svg>
